<svg width="10" height="10" viewBox="0 0 10 10" fill="none" xmlns="http://www.w3.org/2000/svg">
<g clip-path="url(#clip0_556_4282)">
<path d="M3.5972 1.69401L6.93623 4.80743C7.00947 4.87536 7.05054 4.96706 7.05054 5.06262C7.05054 5.15818 7.00947 5.24988 6.93623 5.31781L3.59792 8.43124C3.52473 8.49959 3.48371 8.59159 3.48371 8.68742C3.48371 8.78325 3.52473 8.87525 3.59792 8.9436C3.63368 8.97726 3.67641 9.00401 3.72361 9.02228C3.77081 9.04054 3.82151 9.04995 3.87273 9.04995C3.92396 9.04995 3.97466 9.04054 4.02186 9.02228C4.06905 9.00401 4.11179 8.97726 4.14755 8.9436L7.48586 5.83084C7.70522 5.62581 7.82812 5.34996 7.82812 5.06262C7.82812 4.77528 7.70522 4.49943 7.48586 4.2944L4.14755 1.18164C4.11178 1.14788 4.069 1.12104 4.02173 1.10272C3.97447 1.08439 3.92368 1.07495 3.87237 1.07495C3.82106 1.07495 3.77027 1.08439 3.72301 1.10272C3.67575 1.12104 3.63296 1.14788 3.5972 1.18164C3.524 1.24999 3.48299 1.34199 3.48299 1.43782C3.48299 1.53366 3.524 1.62566 3.5972 1.69401Z" fill="url(#paint0_linear_556_4282)"/>
</g>
<defs>
<linearGradient id="paint0_linear_556_4282" x1="3.50505" y1="-0.942118" x2="5.89549" y2="10.0477" gradientUnits="userSpaceOnUse">
<stop stop-color="#284FDC"/>
<stop offset="1" stop-color="#578FEC"/>
</linearGradient>
<clipPath id="clip0_556_4282">
<rect width="9.425" height="9.41446" fill="white" transform="translate(10 0.349976) rotate(90)"/>
</clipPath>
</defs>
</svg>
