<svg width="23" height="21" viewBox="0 0 23 21" fill="none" xmlns="http://www.w3.org/2000/svg">
<g clip-path="url(#clip0_556_4255)">
<path d="M14.053 5.67223L11.4176 2.31499L13.3055 1.94408L15.9313 5.30132L14.053 5.67223ZM20.6366 4.37879L19.8891 0.650635L16.1229 1.39246L18.7487 4.75921L20.6366 4.37879ZM11.2355 6.23335L8.60974 2.85709L6.72186 3.24703L9.35723 6.60427L11.2355 6.23335ZM1.83444 8.08792V17.5985C1.83444 18.103 2.03637 18.5868 2.39581 18.9435C2.75525 19.3002 3.24275 19.5006 3.75108 19.5006H19.0841C20.1479 19.5006 21.0008 18.6542 21.0008 17.5985V8.08792H1.83444ZM3.90441 3.80815L2.96526 3.98885C2.46855 4.08989 2.03201 4.38121 1.75035 4.79961C1.46868 5.21802 1.36461 5.72977 1.4607 6.22384L1.83444 8.08792L6.53019 7.16539L3.90441 3.80815Z" fill="white"/>
</g>
<defs>
<clipPath id="clip0_556_4255">
<rect width="21.75" height="19.575" fill="white" transform="translate(0.699219 0.650635)"/>
</clipPath>
</defs>
</svg>
