<svg width="24" height="23" viewBox="0 0 24 23" fill="none" xmlns="http://www.w3.org/2000/svg">
<g clip-path="url(#clip0_556_4263)">
<path d="M8.4243 4.40986C8.88445 3.977 9.43074 3.63364 10.032 3.39938C10.6332 3.16511 11.2776 3.04454 11.9284 3.04454C12.5792 3.04454 13.2236 3.16511 13.8248 3.39938C14.4261 3.63364 14.9724 3.977 15.4325 4.40986C15.4978 4.47346 15.5759 4.52418 15.6623 4.55908C15.7487 4.59397 15.8416 4.61234 15.9356 4.61311C16.0296 4.61388 16.1228 4.59703 16.2098 4.56355C16.2968 4.53007 16.3758 4.48063 16.4423 4.41811C16.5087 4.3556 16.5613 4.28125 16.5969 4.19942C16.6325 4.11759 16.6504 4.02991 16.6496 3.9415C16.6488 3.85309 16.6292 3.76572 16.5921 3.68449C16.555 3.60325 16.5011 3.52978 16.4335 3.46835C15.8419 2.91188 15.1395 2.47046 14.3665 2.1693C13.5936 1.86814 12.7651 1.71313 11.9284 1.71313C11.0917 1.71313 10.2633 1.86814 9.49027 2.1693C8.71729 2.47046 8.01494 2.91188 7.42333 3.46835C7.29438 3.59393 7.22302 3.76213 7.22464 3.93671C7.22625 4.11129 7.3007 4.2783 7.43195 4.40175C7.5632 4.5252 7.74075 4.59523 7.92636 4.59675C8.11197 4.59826 8.29079 4.53115 8.4243 4.40986Z" fill="white"/>
<path d="M10.5246 6.58709C10.898 6.20214 11.4041 5.98591 11.9318 5.98591C12.4595 5.98591 12.9656 6.20214 13.3389 6.58709C13.4636 6.71575 13.6326 6.78804 13.8089 6.78804C13.9851 6.78804 14.1541 6.71575 14.2788 6.58709C14.4034 6.45842 14.4734 6.28392 14.4734 6.10196C14.4734 5.92 14.4034 5.74549 14.2788 5.61683C13.9706 5.29859 13.6047 5.04615 13.202 4.87392C12.7993 4.70168 12.3677 4.61304 11.9318 4.61304C11.4959 4.61304 11.0642 4.70168 10.6615 4.87392C10.2588 5.04615 9.89294 5.29859 9.58476 5.61683C9.46385 5.74606 9.39695 5.91915 9.39846 6.09881C9.39997 6.27847 9.46978 6.45033 9.59284 6.57737C9.71591 6.70442 9.88239 6.77648 10.0564 6.77804C10.2305 6.7796 10.3981 6.71054 10.5233 6.58572L10.5246 6.58709Z" fill="white"/>
<path d="M4.87676 3.66161C4.85031 3.5722 4.80583 3.48896 4.74598 3.41689C4.68614 3.34482 4.61216 3.2854 4.52847 3.24217C4.44479 3.19895 4.35311 3.17281 4.25894 3.16532C4.16477 3.15784 4.07004 3.16916 3.98041 3.19862C3.89078 3.22807 3.8081 3.27505 3.73732 3.33674C3.66654 3.39843 3.60911 3.47356 3.56847 3.55764C3.52783 3.64172 3.50481 3.73302 3.5008 3.82608C3.49679 3.91913 3.51186 4.01203 3.54512 4.0992L6.04546 11.4967H2.80625C2.24743 11.4967 1.7115 11.7156 1.31635 12.1051C0.921209 12.4947 0.699219 13.023 0.699219 13.5739L0.699219 16.3435C0.699219 16.8944 0.921209 17.4228 1.31635 17.8123C1.7115 18.2018 2.24743 18.4207 2.80625 18.4207H3.50859C3.50859 18.6043 3.58259 18.7804 3.71431 18.9103C3.84602 19.0401 4.02466 19.1131 4.21094 19.1131H7.02031C7.20659 19.1131 7.38523 19.0401 7.51694 18.9103C7.64866 18.7804 7.72266 18.6043 7.72266 18.4207H16.1508C16.1508 18.6043 16.2248 18.7804 16.3565 18.9103C16.4882 19.0401 16.6669 19.1131 16.8531 19.1131H19.6625C19.8488 19.1131 20.0274 19.0401 20.1591 18.9103C20.2908 18.7804 20.3648 18.6043 20.3648 18.4207H21.0672C21.626 18.4207 22.1619 18.2018 22.5571 17.8123C22.9522 17.4228 23.1742 16.8944 23.1742 16.3435V13.5739C23.1742 13.023 22.9522 12.4947 22.5571 12.1051C22.1619 11.7156 21.626 11.4967 21.0672 11.4967H17.828L20.3283 4.0992C20.3616 4.01203 20.3766 3.91913 20.3726 3.82608C20.3686 3.73302 20.3456 3.64172 20.305 3.55764C20.2643 3.47356 20.2069 3.39843 20.1361 3.33674C20.0653 3.27505 19.9827 3.22807 19.893 3.19862C19.8034 3.16916 19.7087 3.15784 19.6145 3.16532C19.5203 3.17281 19.4287 3.19895 19.345 3.24217C19.2613 3.2854 19.1873 3.34482 19.1275 3.41689C19.0676 3.48896 19.0231 3.5722 18.9967 3.66161L16.3474 11.4967H7.526L4.87676 3.66161ZM4.21094 15.6511C4.02466 15.6511 3.84602 15.5782 3.71431 15.4483C3.58259 15.3185 3.50859 15.1424 3.50859 14.9587C3.50859 14.7751 3.58259 14.599 3.71431 14.4691C3.84602 14.3393 4.02466 14.2663 4.21094 14.2663C4.39721 14.2663 4.57585 14.3393 4.70757 14.4691C4.83928 14.599 4.91328 14.7751 4.91328 14.9587C4.91328 15.1424 4.83928 15.3185 4.70757 15.4483C4.57585 15.5782 4.39721 15.6511 4.21094 15.6511ZM10.532 14.9587C10.532 14.7751 10.606 14.599 10.7377 14.4691C10.8695 14.3393 11.0481 14.2663 11.2344 14.2663C11.4206 14.2663 11.5993 14.3393 11.731 14.4691C11.8627 14.599 11.9367 14.7751 11.9367 14.9587C11.9367 15.1424 11.8627 15.3185 11.731 15.4483C11.5993 15.5782 11.4206 15.6511 11.2344 15.6511C11.0481 15.6511 10.8695 15.5782 10.7377 15.4483C10.606 15.3185 10.532 15.1424 10.532 14.9587ZM14.0437 15.6511C13.8575 15.6511 13.6788 15.5782 13.5471 15.4483C13.4154 15.3185 13.3414 15.1424 13.3414 14.9587C13.3414 14.7751 13.4154 14.599 13.5471 14.4691C13.6788 14.3393 13.8575 14.2663 14.0437 14.2663C14.23 14.2663 14.4087 14.3393 14.5404 14.4691C14.6721 14.599 14.7461 14.7751 14.7461 14.9587C14.7461 15.1424 14.6721 15.3185 14.5404 15.4483C14.4087 15.5782 14.23 15.6511 14.0437 15.6511ZM16.1508 14.9587C16.1508 14.7751 16.2248 14.599 16.3565 14.4691C16.4882 14.3393 16.6669 14.2663 16.8531 14.2663C17.0394 14.2663 17.218 14.3393 17.3498 14.4691C17.4815 14.599 17.5555 14.7751 17.5555 14.9587C17.5555 15.1424 17.4815 15.3185 17.3498 15.4483C17.218 15.5782 17.0394 15.6511 16.8531 15.6511C16.6669 15.6511 16.4882 15.5782 16.3565 15.4483C16.2248 15.3185 16.1508 15.1424 16.1508 14.9587ZM18.9602 14.9587C18.9602 14.7751 19.0342 14.599 19.1659 14.4691C19.2976 14.3393 19.4762 14.2663 19.6625 14.2663C19.8488 14.2663 20.0274 14.3393 20.1591 14.4691C20.2908 14.599 20.3648 14.7751 20.3648 14.9587C20.3648 15.1424 20.2908 15.3185 20.1591 15.4483C20.0274 15.5782 19.8488 15.6511 19.6625 15.6511C19.4762 15.6511 19.2976 15.5782 19.1659 15.4483C19.0342 15.3185 18.9602 15.1424 18.9602 14.9587Z" fill="white"/>
<path d="M13.0242 8.23818C13.0242 8.43047 12.9478 8.61487 12.8119 8.75084C12.6759 8.8868 12.4915 8.96318 12.2992 8.96318C12.1069 8.96318 11.9225 8.8868 11.7866 8.75084C11.6506 8.61487 11.5742 8.43047 11.5742 8.23818C11.5742 8.0459 11.6506 7.8615 11.7866 7.72553C11.9225 7.58957 12.1069 7.51318 12.2992 7.51318C12.4915 7.51318 12.6759 7.58957 12.8119 7.72553C12.9478 7.8615 13.0242 8.0459 13.0242 8.23818Z" fill="white"/>
</g>
<defs>
<clipPath id="clip0_556_4263">
<rect width="22.475" height="22.475" fill="white" transform="translate(0.699219 0.262939)"/>
</clipPath>
</defs>
</svg>
