<svg width="1380" height="1000" viewBox="0 0 1380 1000" fill="none" xmlns="http://www.w3.org/2000/svg">
<g clip-path="url(#clip0_399_1667)">
<path d="M1370.54 19.7884L1340.65 -30H-85V1029C245.427 913.823 928.995 676 1019.85 646.127C1110.71 616.254 1154.68 552.027 1165.31 523.647C1226.58 401.002 1353.4 146.45 1370.54 109.408C1387.67 72.365 1377.68 34.2271 1370.54 19.7884Z" fill="url(#paint0_linear_399_1667)"/>
<path d="M587.967 260.944L1263 -20.5138L967 -113C956 -96.8358 384.467 -34.2118 338.467 40.977C292.467 116.166 334.634 173.957 361.467 193.454C373.3 201.786 409.567 224.85 459.967 250.446C510.367 276.042 566.3 268.11 587.967 260.944Z" fill="url(#paint1_linear_399_1667)"/>
<path d="M336.208 426.062L-84.5179 537.139L-112 1057C-101.007 1040.82 539.576 721.467 585.546 646.215C631.516 570.962 589.377 513.122 562.561 493.608C550.736 485.269 514.492 462.187 464.125 436.569C413.758 410.951 357.861 418.89 336.208 426.062Z" fill="url(#paint2_linear_399_1667)"/>
</g>
<defs>
<linearGradient id="paint0_linear_399_1667" x1="-332.073" y1="541.571" x2="1615.09" y2="274.446" gradientUnits="userSpaceOnUse">
<stop stop-color="#0D2B96"/>
<stop offset="1" stop-color="#478BFB"/>
</linearGradient>
<linearGradient id="paint1_linear_399_1667" x1="1123.97" y1="106.467" x2="217.827" y2="236.434" gradientUnits="userSpaceOnUse">
<stop stop-color="#2A7AFF" stop-opacity="0"/>
<stop offset="1" stop-color="#2F53B8" stop-opacity="0.42"/>
</linearGradient>
<linearGradient id="paint2_linear_399_1667" x1="-199.443" y1="580.669" x2="706.163" y2="450.973" gradientUnits="userSpaceOnUse">
<stop stop-color="#468BFD" stop-opacity="0"/>
<stop offset="1" stop-color="#1F44AC" stop-opacity="0.42"/>
</linearGradient>
<clipPath id="clip0_399_1667">
<rect width="1380" height="1000" fill="white"/>
</clipPath>
</defs>
</svg>
