<svg width="510" height="540" viewBox="0 0 510 540" fill="none" xmlns="http://www.w3.org/2000/svg">
<g opacity="0.3">
<mask id="mask0_399_1681" style="mask-type:luminance" maskUnits="userSpaceOnUse" x="33" y="223" width="112" height="66">
<path d="M131.433 289L33 230.782L46.567 223L145 281.218L131.433 289Z" fill="white"/>
</mask>
<g mask="url(#mask0_399_1681)">
<path d="M46.567 223L33 230.782L131.433 289L145 281.218L46.567 223Z" fill="white"/>
<path d="M145 281L90.9504 249L85 261L131.612 289L145 281Z" fill="#749DEB"/>
</g>
</g>
<g opacity="0.3">
<path d="M464.834 387.228C467.722 388.965 467.722 391.571 464.834 393.019L321.29 476.697C318.402 478.434 314.07 478.434 311.182 476.697L97.1661 352.772C94.278 351.035 94.278 348.429 97.1661 346.981L240.71 263.303C243.598 261.566 247.93 261.566 250.818 263.303L464.834 387.228Z" fill="#A3A5A5"/>
</g>
<path d="M116 206L127.714 199L128 199.292L116.286 206H116Z" fill="#A6CEC2"/>
<path d="M76 169.385C75.7113 169.103 75.4227 169.103 75.1341 168.821C74.8454 168.538 74.5567 168.538 74.2681 168.256H73.9794C73.6907 168.256 73.6907 167.974 73.4021 167.974C73.1134 167.692 72.8247 167.692 72.5361 167.692C72.2474 167.692 72.2474 167.41 71.9588 167.41C71.9588 167.41 71.9588 167.41 71.6701 167.41C71.3814 167.41 71.0928 167.128 70.8042 167.128C70.5155 167.128 70.2268 166.846 69.9382 166.846C69.6495 166.846 69.6495 166.846 69.3609 166.564C69.0722 166.564 68.7835 166.282 68.4949 166.282H68.2062C68.2062 166.282 68.2062 166.282 67.9176 166.282H67.6289C67.3402 166.282 67.0516 166.282 66.7629 166C66.4742 166 66.4742 166 66.1856 166C66.1856 166 66.1856 166 65.8969 166C65.8969 166 65.8969 166 65.6083 166C65.3196 166 65.0309 166 64.7423 166H64.4536H64.165H63.8763C63.5876 166 63.0103 166 62.7217 166.282H62.433C62.1443 166.282 61.567 166.564 61.2784 166.564C60.7011 166.846 60.1237 166.846 59.8351 167.128L48 173.897C48.5773 173.615 49.1546 173.333 49.4433 173.333C49.732 173.051 50.3093 173.051 50.598 173.051H50.8866C51.4639 173.051 51.7526 172.769 52.3299 172.769H52.6186C53.1959 172.769 53.7732 172.769 54.0619 172.769C54.0619 172.769 54.0618 172.769 54.3505 172.769C54.9278 172.769 55.5052 172.769 56.0825 173.051C56.0825 173.051 56.0825 173.051 56.3712 173.051C56.9485 173.051 57.5258 173.333 58.1031 173.615C58.6804 173.897 59.2577 174.18 60.1237 174.462C60.701 174.744 61.567 175.026 62.1444 175.59C62.7217 175.872 63.5877 176.436 64.165 177L76 169.385C76 169.667 76 169.667 76 169.385Z" fill="#A2C9F3"/>
<path d="M94.9587 168.714C95.8247 169.286 96.402 169.857 97.268 170.714C98.134 171.286 98.7113 172.143 99.2886 172.714C99.866 173.571 100.732 174.143 101.309 175C101.887 175.857 102.753 176.429 103.33 177.286C103.907 177.857 104.485 178.714 104.773 179.286C105.062 179.571 105.351 179.857 105.351 180.143C105.639 180.429 105.928 181 106.216 181.286C106.505 181.857 107.082 182.429 107.371 183.286C107.66 183.571 107.948 184.143 108.237 184.429C108.526 184.714 108.526 185 108.814 185.286C109.103 186.143 109.68 186.714 109.969 187.571C110.546 188.429 110.835 189.286 111.412 190.429C111.412 190.429 111.412 190.429 111.412 190.714C111.701 191.571 112.278 192.429 112.567 193.286V193.571C112.856 194.429 113.144 195.286 113.433 196.143V196.429C113.722 197.286 114.01 198.143 114.299 199.286C114.588 200.143 114.876 201.286 114.876 202.143C115.165 203 115.165 204.143 115.165 205L127 198.143C127 197.857 127 197.857 127 197.571C127 197.286 127 196.714 126.711 196.429C126.711 196.143 126.711 195.571 126.423 195.286C126.423 194.714 126.134 194.429 126.134 193.857C126.134 193.286 125.845 193 125.845 192.429C125.845 192.143 125.557 191.571 125.557 191.286C125.557 190.714 125.268 190.429 125.268 189.857V189.571V189.286C125.268 189 124.979 188.714 124.979 188.429C124.691 187.857 124.691 187.571 124.402 187C124.402 186.714 124.402 186.714 124.113 186.429V186.143C124.113 185.857 124.113 185.857 123.825 185.571C123.536 185.286 123.536 184.714 123.247 184.429C123.247 184.143 122.959 183.857 122.959 183.571C122.959 183.571 122.959 183.571 122.959 183.286C122.959 183.286 122.959 183.286 122.959 183C122.67 182.714 122.67 182.143 122.381 181.857C122.093 181.286 121.804 181 121.804 180.429C121.515 179.857 121.227 179.571 120.938 179C120.938 178.714 120.649 178.429 120.361 178.143C120.072 177.857 120.072 177.571 119.784 177.286C119.784 177 119.495 177 119.495 176.714C119.495 176.429 119.206 176.143 119.206 176.143C118.918 175.571 118.34 175 118.052 174.143C118.052 173.857 117.763 173.857 117.763 173.571C117.474 173.286 117.474 173 117.186 173C116.897 172.714 116.608 172.429 116.608 172.143C116.608 171.857 116.32 171.857 116.32 171.571C116.031 171 115.454 170.714 115.165 170.143C114.876 169.857 114.588 169.286 114.299 169C114.01 168.714 113.722 168.143 113.433 167.857C113.144 167.571 112.856 167 112.278 166.714C111.99 166.429 111.701 165.857 111.124 165.571C110.835 165.286 110.546 165 109.969 164.429C109.68 164.143 109.103 163.857 108.814 163.286C108.526 163 107.948 162.714 107.66 162.143C107.371 161.857 107.082 161.571 106.505 161.286C106.216 161 105.639 160.714 105.351 160.429C105.062 160.143 104.485 159.857 104.196 159.571C103.907 159.286 103.619 159 103.041 159C102.753 158.714 102.175 158.429 101.887 158.429C101.887 158.429 101.598 158.429 101.598 158.143C101.309 157.857 101.021 157.857 100.732 157.571C100.443 157.286 100.155 157.286 99.5773 157C99.2887 157 99 156.714 99 156.714C99 156.714 99 156.714 98.7113 156.714C98.7113 156.714 98.7113 156.714 98.4227 156.714C98.134 156.429 97.8453 156.429 97.268 156.143C96.9794 156.143 96.6907 155.857 96.1134 155.857C96.1134 155.857 96.1134 155.857 95.8247 155.857C95.8247 155.857 95.8247 155.857 95.5361 155.857C95.2474 155.857 94.9587 155.571 94.9587 155.571C94.6701 155.571 94.3814 155.286 93.8041 155.286C93.5155 155.286 93.5155 155.286 93.2268 155.286H92.9381H92.6495C92.3608 155.286 91.7835 155.286 91.4948 155C91.2062 155 90.9175 155 90.9175 155H90.6288H90.3402C90.0515 155 89.4742 155 89.1855 155C88.8969 155 88.8969 155 88.6082 155H88.3196H88.0309C87.4536 155 87.1649 155 86.5876 155.286H86.2989C85.7216 155.286 85.433 155.571 84.8556 155.571C84.2783 155.857 83.4123 156.143 82.835 156.429L71 163.286C71.5773 163 72.1546 162.714 73.0206 162.429C73.5979 162.143 73.8866 162.143 74.4639 162.143H74.7525C75.3299 162.143 75.9072 161.857 76.7732 161.857H77.0618C77.6392 161.857 78.2165 161.857 79.0824 161.857H79.3711C79.9484 161.857 80.8144 162.143 81.3917 162.143H81.6804C82.5464 162.429 83.1237 162.429 83.9897 162.714C83.9897 162.714 83.9897 162.714 84.2783 162.714C85.1443 163 86.0103 163.286 86.8763 163.571C86.8763 163.571 86.8763 163.571 87.1649 163.571C88.0309 163.857 88.8969 164.429 89.7629 165C90.6289 165.571 91.4948 165.857 92.0721 166.429C93.5154 167.571 94.0928 168.143 94.9587 168.714Z" fill="#A2C9F3"/>
<path d="M164.712 246.058C164.712 245.77 164.712 245.77 164.712 245.482V245.194V244.906C164.712 244.618 164.712 244.33 164.712 244.33C164.712 244.042 164.712 243.754 164.712 243.754C164.712 243.466 164.712 243.466 164.712 243.178C164.712 242.89 164.712 242.602 164.712 242.602V242.314C164.712 242.314 164.712 242.314 164.712 242.026V241.738C164.712 241.45 164.712 241.162 164.423 241.162C164.423 240.874 164.423 240.874 164.135 240.586C164.135 240.298 163.847 240.01 163.847 240.01C163.847 239.722 163.558 239.435 163.558 239.435C163.558 239.435 163.558 239.147 163.27 239.147C163.27 238.859 162.982 238.571 162.982 238.571C162.982 238.283 162.982 238.283 162.693 237.995C162.693 237.707 162.405 237.707 162.405 237.419C162.405 237.131 162.117 236.843 162.117 236.843C162.117 236.555 161.828 236.555 161.828 236.267C161.828 235.979 161.54 235.691 161.54 235.691C161.54 235.691 161.54 235.403 161.251 235.403C161.251 235.115 160.963 235.115 160.963 234.827C160.675 234.539 160.675 234.251 160.386 233.963C160.098 233.675 159.81 233.099 159.521 232.811C159.233 232.523 159.233 232.236 158.945 231.948C158.656 231.66 158.656 231.66 158.368 231.372C158.08 231.084 158.08 231.084 157.791 230.796C157.503 230.508 157.503 230.508 157.215 230.22L156.926 229.932C156.638 229.644 156.638 229.644 156.35 229.356C156.35 229.356 156.35 229.356 156.061 229.068L155.773 228.78C155.485 228.492 155.485 228.492 155.196 228.204L154.908 227.916C154.908 227.916 154.908 227.916 154.62 227.628C154.331 227.34 154.331 227.34 154.043 227.052L153.755 226.764C153.466 226.764 153.466 226.476 153.178 226.476C152.89 226.476 152.89 226.188 152.601 226.188L152.313 225.9C152.024 225.9 152.025 225.613 151.736 225.613C151.448 225.613 151.448 225.325 151.159 225.325H150.871C150.583 225.325 150.583 225.325 150.294 225.037C150.006 225.037 150.006 225.037 149.718 224.749H149.429C149.141 224.749 149.141 224.749 148.853 224.749C148.564 224.749 148.564 224.749 148.276 224.749C147.988 224.749 147.988 224.749 147.699 224.749C147.411 224.749 147.411 224.749 147.123 224.749H146.834C146.834 224.461 146.834 224.461 146.834 224.173C146.834 223.885 146.546 223.597 146.546 223.309C146.546 223.021 146.258 222.733 146.258 222.445C146.258 222.157 145.969 221.869 145.969 221.581C145.969 221.581 145.969 221.581 145.969 221.293C145.969 221.005 145.681 221.005 145.681 220.717C145.681 220.429 145.393 220.141 145.393 219.853C145.104 219.565 145.104 219.277 144.816 218.99C144.816 218.702 144.528 218.414 144.528 218.414C144.528 218.414 144.528 218.414 144.528 218.126V217.838C144.239 217.262 143.951 216.686 143.663 216.11C143.374 215.822 143.374 215.534 143.086 215.246C142.798 214.958 142.798 214.67 142.509 214.382C142.221 214.094 142.221 213.806 141.933 213.518C141.644 212.942 141.067 212.366 140.779 211.791C140.779 211.791 140.779 211.503 140.491 211.503C140.491 211.503 140.491 211.503 140.491 211.215C140.202 210.927 140.202 210.639 139.914 210.639C139.626 210.351 139.337 210.063 139.049 209.775C138.761 209.487 138.472 209.199 138.184 208.911L137.896 208.623C137.896 208.335 137.607 208.335 137.607 208.047C137.319 207.759 137.031 207.471 136.742 207.183C136.454 206.895 136.166 206.607 135.877 206.319L135.589 206.031L135.301 205.743C135.012 205.455 134.724 205.168 134.436 204.88C134.147 204.592 133.859 204.304 133.571 204.304C133.282 204.016 133.282 204.016 132.994 203.728C132.994 203.728 132.994 203.728 132.706 203.728C132.417 203.44 132.129 203.44 131.84 203.152C131.552 202.864 131.264 202.864 130.975 202.576C130.687 202.288 130.399 202.288 130.11 202C130.11 202 130.11 202 129.822 202L118 208.911C118.865 209.487 120.018 210.063 120.883 210.639C121.748 211.215 122.614 212.078 123.479 212.942C124.344 213.806 125.209 214.67 125.785 215.534C126.65 216.398 127.227 217.262 128.092 218.126C128.092 218.126 128.092 218.126 128.092 218.414C128.669 219.277 129.245 220.141 129.822 221.005C130.11 221.293 130.11 221.581 130.399 221.869C130.975 222.733 131.552 223.597 131.84 224.461C131.84 224.461 131.84 224.461 131.84 224.749C132.417 225.9 132.994 227.052 133.282 227.916C133.859 229.068 134.147 230.22 134.436 231.372C135.012 231.372 135.301 231.372 135.877 231.372C136.454 231.372 136.742 231.66 137.319 231.66C137.896 231.948 138.472 231.948 138.761 232.236C139.337 232.524 139.914 232.811 140.491 233.099C141.067 233.387 141.356 233.675 141.933 233.963C142.221 234.251 142.798 234.539 143.086 234.827C143.374 235.115 143.951 235.403 144.239 235.691C144.528 235.979 145.104 236.555 145.393 236.843C145.681 237.131 146.258 237.707 146.546 237.995C146.834 238.571 147.411 238.859 147.699 239.435C147.988 240.01 148.276 240.298 148.564 240.874C148.853 241.162 148.853 241.45 149.141 241.738C149.429 242.026 149.429 242.314 149.718 242.602C149.718 242.602 149.718 242.89 150.006 242.89C150.294 243.178 150.583 243.754 150.583 244.042C150.871 244.618 151.159 245.194 151.448 245.482C151.736 246.058 151.736 246.634 152.025 246.921C152.313 247.497 152.313 248.073 152.601 248.649C152.89 249.225 152.89 249.801 152.89 250.089C152.89 250.089 152.89 250.089 152.89 250.377C152.89 250.953 153.178 251.529 153.178 251.817C153.178 252.393 153.466 252.969 153.466 253.256C153.466 253.832 153.466 254.408 153.466 254.696C153.466 255.56 153.466 256.424 153.178 257L165 250.089C165 249.801 165 249.801 165 249.513C165 249.225 165 249.225 165 248.937C165 248.649 165 248.649 165 248.361C165 248.073 165 248.073 165 247.785C164.712 246.633 164.712 246.346 164.712 246.058Z" fill="#A2C9F3"/>
<path d="M90.2734 165.538C103.281 173.053 113.977 190.393 115.711 205.711L116 206C123.805 210.336 130.453 219.584 133.344 228.833C135.078 228.833 137.391 229.411 139.703 230.567C147.219 234.902 153 245.306 153 253.688C153 254.555 153 255.422 152.711 256L133.922 245.306L126.117 240.682L104.437 227.966L97.5 223.919L81.8906 214.96L75.5312 211.203L42.5781 192.128C42.2891 190.104 42 188.081 42 186.058C42 173.053 51.25 168.139 62.2344 174.498C62.8125 174.787 63.6797 175.365 64.2578 175.943C66.2812 162.937 76.9766 158.024 90.2734 165.538Z" fill="#769EFB"/>
<mask id="mask1_399_1681" style="mask-type:luminance" maskUnits="userSpaceOnUse" x="78" y="171" width="24" height="51">
<path d="M78 208.67L78.2927 171L102 184.33L101.707 222L78 208.67Z" fill="white"/>
</mask>
<g mask="url(#mask1_399_1681)">
<path d="M89.5 178L78 183.448L83.175 186.601V211.545L95.825 219V193.769L101 196.923L89.5 178Z" fill="white"/>
</g>
<path d="M485 389.216C485 389.505 485 389.505 485 389.505C485 389.505 485 389.505 485 389.794C485 389.794 485 389.794 485 390.082V390.371C485 390.371 485 390.371 485 390.659C485 390.659 485 390.948 484.71 390.948L484.42 391.236C484.42 391.236 484.42 391.236 484.13 391.525C484.13 391.525 484.13 391.525 483.84 391.813C483.84 391.813 483.55 391.814 483.55 392.102C483.55 392.102 483.26 392.102 483.26 392.391L338.859 475.209C338.569 475.497 338.279 475.497 337.989 475.786H337.699C337.409 475.786 337.119 475.786 337.119 476.074C336.829 476.074 336.539 476.074 336.539 476.363C336.249 476.363 335.959 476.363 335.669 476.652C335.669 476.652 335.669 476.652 335.379 476.652C335.089 476.652 334.509 476.652 334.219 476.652C334.219 476.652 334.219 476.652 333.929 476.652C332.19 476.652 330.45 476.363 329 475.497V481.846C330.45 482.711 331.9 483 333.639 483H333.929C333.929 483 333.929 483 334.219 483H334.509C334.799 483 335.089 483 335.379 483C335.379 483 335.379 483 335.669 483C335.959 483 335.959 483 336.249 483H336.539C336.829 483 337.119 483 337.119 482.711H337.409H337.699H337.989C338.279 482.711 338.569 482.423 338.859 482.134L482.97 398.739C482.97 398.739 482.97 398.739 483.26 398.739C483.26 398.739 483.55 398.739 483.55 398.45C483.55 398.45 483.55 398.45 483.84 398.162C483.84 398.162 484.13 398.162 484.13 397.873L484.42 397.585C484.42 397.585 484.42 397.296 484.71 397.296V397.008C484.71 397.008 484.71 397.008 484.71 396.719C484.71 396.719 484.71 396.719 484.71 396.431V396.142C484.71 396.142 484.71 396.142 484.71 395.853L485 389.216C485 388.928 485 388.928 485 389.216Z" fill="#D7E9F6"/>
<path d="M333 476.647V483C332.711 483 332.421 483 332.421 483C332.132 483 331.843 483 331.843 483C331.554 483 331.264 483 331.264 483C330.975 483 330.686 483 330.397 482.711C330.107 482.711 329.818 482.422 329.529 482.422C329.239 482.134 328.95 482.134 328.372 481.845L114.025 358.241C112.578 357.375 112 356.509 112 355.353V349C112 350.155 112.578 351.022 114.025 351.888L328.372 475.491C328.661 475.78 328.95 475.78 329.529 476.069C329.818 476.069 330.107 476.358 330.397 476.358C330.686 476.358 330.975 476.358 331.264 476.647C331.554 476.647 331.843 476.647 331.843 476.647C332.132 476.647 332.421 476.647 332.421 476.647C332.421 476.647 332.711 476.647 333 476.647Z" fill="#A2C9F3"/>
<path d="M481.834 386.228C484.722 387.965 484.722 390.571 481.834 392.019L338.29 475.697C335.402 477.434 331.07 477.434 328.182 475.697L114.166 351.772C111.278 350.035 111.278 347.429 114.166 345.981L257.71 262.303C260.598 260.566 264.93 260.566 267.818 262.303L481.834 386.228Z" fill="#F5F9FC"/>
<path d="M490.131 206.942C489.842 206.653 489.842 206.653 489.842 206.363C489.842 206.363 489.842 206.073 489.552 206.073C489.552 206.073 489.552 205.783 489.263 205.783C489.263 205.783 489.263 205.783 488.973 205.493C488.973 205.493 488.684 205.493 488.684 205.204C488.684 205.204 488.394 205.204 488.394 204.914C488.394 204.914 488.105 204.914 488.105 204.624C488.105 204.624 487.815 204.624 487.815 204.334C487.815 204.334 487.526 204.334 487.526 204.044C487.526 204.044 487.526 204.044 487.236 204.044C487.236 204.044 487.236 204.044 486.946 204.044L272.397 80C272.397 80 272.397 80 272.107 80C272.107 80 272.107 80 271.818 80C271.818 80 271.818 80 271.528 80C271.528 80 271.528 80 271.239 80C271.239 80 271.239 80 270.949 80H270.659H270.37H270.08H269.791C269.791 80 269.501 80 269.501 80.2898L264 83.4779C264 83.4779 264.29 83.4778 264.29 83.188H264.579H264.869H265.158H265.448C265.737 83.188 265.737 83.188 266.027 83.188C266.316 83.188 266.316 83.188 266.606 83.4779C266.895 83.4779 266.895 83.7677 267.185 83.7677L481.735 207.812C481.735 207.812 481.735 207.812 482.024 207.812C482.024 207.812 482.024 207.812 482.314 207.812C482.314 207.812 482.603 207.812 482.603 208.102C482.603 208.102 482.893 208.102 482.893 208.392C482.893 208.392 483.182 208.392 483.182 208.681C483.182 208.681 483.472 208.681 483.472 208.971C483.472 208.971 483.761 208.971 483.761 209.261C483.761 209.261 483.761 209.261 484.051 209.551C484.051 209.551 484.051 209.551 484.341 209.841C484.341 209.841 484.341 209.841 484.63 210.131C484.63 210.131 484.63 210.42 484.92 210.42C484.92 210.42 484.92 210.71 485.209 210.71L485.499 211L491 207.812C490.421 207.232 490.131 206.942 490.131 206.942Z" fill="#D7E9F6"/>
<path d="M492 212.662C492 212.372 492 212.372 492 212.662C492 212.372 492 212.372 492 212.083V211.793V211.503V211.214V210.924V210.634V210.345V210.055V209.765V209.476V209.186V208.896V208.607V208.317V208.027C492 208.027 492 207.738 491.708 207.738C491.708 207.448 491.417 207.448 491.417 207.159C491.417 206.869 491.125 206.869 491.125 206.579C491.125 206.29 490.833 206.29 490.833 206L485.292 209.186C485.292 209.476 485.583 209.476 485.583 209.765C485.583 210.055 485.875 210.055 485.875 210.345C485.875 210.634 486.167 210.634 486.167 210.924C486.167 210.924 486.167 211.214 486.458 211.214V211.503V211.793V212.083V212.372V212.662V212.951V213.241V213.531V213.82V214.11V214.4V214.689V214.979V215.269V215.558V215.848V216.138L485.875 382.393C485.875 382.683 485.875 382.683 485.875 382.973C485.875 383.262 485.875 383.262 485.875 383.552C485.875 383.841 485.875 383.841 485.875 383.841V384.131C485.875 384.131 485.875 384.421 485.583 384.421C485.583 384.71 485.292 384.71 485.292 384.71L485 385L490.542 381.814C490.833 381.814 490.833 381.524 490.833 381.524L491.125 381.235C491.125 381.235 491.125 380.945 491.417 380.945V380.655V380.366V380.076V379.786V379.497L492 212.662Z" fill="#A2C9F3"/>
<path d="M481.084 207.589C483.976 209.326 486 213.087 486 216.27L485.422 382.364C485.422 385.547 483.108 386.993 480.216 385.257L265.916 261.411C263.024 259.674 261 255.913 261 252.73L261.578 86.6363C261.578 83.4534 263.892 82.0066 266.784 83.7427L481.084 207.589Z" fill="white"/>
<path d="M270.868 253.997C270.579 253.708 270.289 253.13 270 252.553L270.579 96L477.132 215.003C477.421 215.292 477.711 215.87 478 216.447L477.421 373L270.868 253.997Z" fill="#769EFB"/>
<mask id="mask2_399_1681" style="mask-type:luminance" maskUnits="userSpaceOnUse" x="138" y="275" width="307" height="178">
<path d="M138 349.673L266.518 275L445 378.327L316.482 453L138 349.673Z" fill="white"/>
</mask>
<g mask="url(#mask2_399_1681)">
<path d="M352.096 402.777L357.579 399.602L368.255 405.951L362.773 409.126L352.096 402.777ZM200.03 314.754L210.706 308.405L221.383 314.754L210.706 321.103L200.03 314.754ZM211.86 321.681L222.537 315.331L233.213 321.681L222.537 328.03L211.86 321.681ZM223.98 328.607L234.656 322.258L245.332 328.607L234.656 334.956L223.98 328.607ZM236.387 335.822L247.064 329.473L261.203 337.554L250.526 343.903L236.387 335.822ZM251.392 344.48L262.068 338.131L321.798 372.762L311.122 379.112L251.392 344.48ZM312.565 379.977L323.241 373.628L336.803 381.42L326.127 387.769L312.565 379.977ZM327.281 388.347L337.957 381.997L348.634 388.347L337.957 394.696L327.281 388.347ZM339.977 395.562L350.654 389.212L361.33 395.562L350.654 401.911L339.977 395.562ZM358.156 399.313L363.061 396.427L373.738 402.777L368.832 405.663L358.156 399.313ZM364.504 409.991L375.18 403.642L385.857 409.991L375.18 416.341L364.504 409.991ZM212.149 307.828L222.825 301.479L235.81 308.982L225.134 315.331L212.149 307.828ZM227.154 316.486L237.83 310.137L248.506 316.486L237.83 322.835L227.154 316.486ZM251.392 330.627L262.068 324.278L272.745 330.627L262.068 336.976L251.392 330.627ZM263.8 337.554L274.476 331.204L285.152 337.554L274.476 343.903L263.8 337.554ZM275.919 344.768L286.595 338.419L297.272 344.768L286.595 351.118L275.919 344.768ZM288.038 351.695L298.714 345.346L309.391 351.695L298.714 358.044L288.038 351.695ZM300.446 358.621L311.122 352.272L321.798 358.621L311.122 364.97L300.446 358.621ZM312.565 365.836L323.241 359.487L333.918 365.836L323.241 372.185L312.565 365.836ZM324.684 372.762L335.36 366.413L346.037 372.762L335.36 379.112L324.684 372.762ZM336.803 379.977L347.48 373.628L358.156 379.977L347.48 386.326L336.803 379.977ZM349.211 386.904L359.887 380.554L370.564 386.904L359.887 393.253L349.211 386.904ZM361.619 394.119L372.295 387.769L398.265 402.777L387.588 409.126L361.619 394.119ZM239.273 323.412L249.949 317.063L260.626 323.412L249.949 329.761L239.273 323.412ZM223.691 300.902L234.367 294.553L254.277 306.096L243.601 312.445L223.691 300.902ZM245.044 313.023L255.72 306.674L266.397 313.023L255.72 319.372L245.044 313.023ZM257.163 320.238L267.839 313.888L278.516 320.238L267.839 326.587L257.163 320.238ZM269.282 327.164L279.958 320.815L290.635 327.164L279.958 333.513L269.282 327.164ZM281.69 334.379L292.366 328.03L303.043 334.379L292.366 340.728L281.69 334.379ZM293.809 341.305L304.485 334.956L315.162 341.305L304.485 347.654L293.809 341.305ZM305.928 348.52L316.605 342.171L327.281 348.52L316.605 354.869L305.928 348.52ZM318.336 355.447L329.012 349.097L339.689 355.447L329.012 361.796L318.336 355.447ZM330.455 362.373L341.131 356.024L351.808 362.373L341.131 368.722L330.455 362.373ZM342.574 369.588L353.251 363.239L363.927 369.588L353.251 375.937L342.574 369.588ZM354.982 376.514L365.658 370.165L376.335 376.514L365.658 382.863L354.982 376.514ZM367.101 383.729L377.777 377.38L388.454 383.729L377.777 390.078L367.101 383.729ZM379.22 390.655L389.897 384.306L400.573 390.655L389.897 397.005L379.22 390.655ZM235.522 293.975L246.198 287.626L263.223 297.438L252.546 303.788L235.522 293.975ZM253.989 304.653L264.665 298.304L275.342 304.653L264.665 311.003L253.989 304.653ZM266.108 311.58L276.784 305.231L287.461 311.58L276.784 317.929L266.108 311.58ZM278.516 318.795L289.192 312.445L299.869 318.795L289.192 325.144L278.516 318.795ZM290.635 325.721L301.311 319.372L311.988 325.721L301.311 332.07L290.635 325.721ZM302.754 332.936L313.43 326.587L324.107 332.936L313.719 338.996L302.754 332.936ZM315.162 339.862L325.838 333.513L336.515 339.862L325.838 346.211L315.162 339.862ZM327.281 347.077L337.957 340.728L348.634 347.077L337.957 353.426L327.281 347.077ZM339.4 354.004L350.077 347.654L360.753 354.004L350.077 360.353L339.4 354.004ZM351.519 360.93L362.196 354.581L372.872 360.93L362.196 367.279L351.519 360.93ZM363.927 368.145L374.603 361.796L385.28 368.145L374.603 374.494L363.927 368.145ZM376.046 375.071L386.723 368.722L397.399 375.071L386.723 381.42L376.046 375.071ZM388.165 382.286L398.842 375.937L409.518 382.286L398.842 388.635L388.165 382.286ZM400.284 389.212L410.961 382.863L421.637 389.212L399.13 402.199L391.051 397.582L402.881 390.655L400.284 389.212ZM247.352 287.338L258.029 280.988L268.705 287.338L258.029 293.687L247.352 287.338ZM259.471 294.264L270.148 287.915L280.824 294.264L270.148 300.613L259.471 294.264ZM271.879 301.19L282.555 294.841L293.232 301.19L282.555 307.539L271.879 301.19ZM283.998 308.405L294.675 302.056L305.351 308.405L294.675 314.754L283.998 308.405ZM296.117 315.331L306.794 308.982L317.47 315.331L306.794 321.681L296.117 315.331ZM308.525 322.546L319.201 316.197L329.878 322.546L319.201 328.896L308.525 322.546ZM320.644 329.473L331.321 323.124L341.997 329.473L331.321 335.822L320.644 329.473ZM332.763 336.688L343.44 330.339L354.116 336.688L343.44 343.037L332.763 336.688ZM345.171 343.614L355.848 337.265L366.524 343.614L355.848 349.963L345.171 343.614ZM357.29 350.54L367.967 344.191L378.643 350.54L367.967 356.89L357.29 350.54ZM369.409 357.755L380.086 351.406L390.762 357.755L380.086 364.104L369.409 357.755ZM381.817 364.682L392.494 358.333L403.17 364.682L392.494 371.031L381.817 364.682ZM393.648 371.608L404.324 365.259L415.001 371.608L404.324 377.957L393.648 371.608ZM406.055 378.823L416.732 372.474L433.468 382.286L422.791 388.635L406.055 378.823ZM267.551 283.874L271.879 281.277L281.401 286.76L277.073 289.358L267.551 283.874ZM279.67 290.801L283.998 288.203L293.52 293.687L289.192 296.284L279.67 290.801ZM291.789 298.016L296.117 295.418L305.64 300.902L301.311 303.499L291.789 298.016ZM303.62 304.942L307.948 302.345L317.47 307.828L313.142 310.425L303.62 304.942ZM383.26 350.829L387.588 348.232L397.11 353.715L392.782 356.312L383.26 350.829ZM395.379 357.755L399.707 355.158L409.23 360.641L404.901 363.239L395.379 357.755ZM407.498 364.682L411.827 362.084L421.349 367.568L417.02 370.165L407.498 364.682ZM419.329 371.608L423.657 369.011L433.179 374.494L428.851 377.091L419.329 371.608ZM443.567 377.091L266.974 275.216C266.397 274.928 265.531 274.928 265.242 275.216L197.433 314.754C196.856 315.043 196.856 315.62 197.433 315.909L374.026 417.784C374.603 418.072 375.469 418.072 375.758 417.784L443.567 378.246C444.144 377.669 444.144 377.38 443.567 377.091Z" fill="#769EFB"/>
<path d="M273 330.14L261.853 324L251 330.14L262.147 336L273 330.14Z" fill="white"/>
<path d="M261 322.86L249.853 317L239 322.86L249.853 329L261 322.86Z" fill="white"/>
<path d="M248 316.5L237.5 310L227 316.5L237.5 323L248 316.5Z" fill="white"/>
<path d="M310 351.5L298.853 345L288 351.5L299.147 358L310 351.5Z" fill="white"/>
<path d="M298 345.14L286.853 339L276 345.14L286.853 351L298 345.14Z" fill="white"/>
<path d="M285 337.86L274.5 332L264 337.86L274.5 344L285 337.86Z" fill="white"/>
<path d="M347 372.86L335.853 367L325 372.86L336.147 379L347 372.86Z" fill="white"/>
<path d="M334 366.5L323.5 360L313 366.5L323.5 373L334 366.5Z" fill="white"/>
<path d="M321 358.86L310.5 353L300 358.86L310.5 365L321 358.86Z" fill="white"/>
<path d="M370 386.86L359.5 381L349 386.86L359.5 393L370 386.86Z" fill="white"/>
<path d="M374 403.188L363.037 397L358 399.812L368.963 406L374 403.188Z" fill="white"/>
<path d="M368 406.667L357.333 400L352 403.333L362.667 410L368 406.667Z" fill="white"/>
<path d="M322 373.603L262.012 339L251 345.106L311.278 380L322 373.603Z" fill="white"/>
<path d="M261 338.12L246.756 330L236 336.16L250.244 344L261 338.12Z" fill="white"/>
<path d="M246 328.86L234.853 323L224 328.86L234.853 335L246 328.86Z" fill="white"/>
<path d="M234 321.5L222.853 315L212 321.5L222.853 328L234 321.5Z" fill="white"/>
<path d="M221 314.86L210.5 309L200 314.86L210.5 321L221 314.86Z" fill="white"/>
<path d="M361 395.86L350.5 390L340 395.86L350.5 402L361 395.86Z" fill="white"/>
<path d="M349 388.86L337.853 383L327 388.86L338.147 395L349 388.86Z" fill="white"/>
<path d="M338 381.714L323.882 374L313 380.286L326.823 388L338 381.714Z" fill="white"/>
<path d="M386 410.14L374.853 404L364 410.14L374.853 416L386 410.14Z" fill="white"/>
<path d="M399 402.757L372.779 388L362 394.243L388.221 409L399 402.757Z" fill="white"/>
<path d="M359 380.14L348.147 374L337 380.14L348.147 386L359 380.14Z" fill="white"/>
<path d="M291 326.86L280.147 321L269 326.86L280.147 333L291 326.86Z" fill="white"/>
<path d="M279 320.14L267.853 314L257 320.14L268.147 326L279 320.14Z" fill="white"/>
<path d="M266 312.86L255.5 307L245 312.86L255.5 319L266 312.86Z" fill="white"/>
<path d="M328 348.14L317.147 342L306 348.14L317.147 354L328 348.14Z" fill="white"/>
<path d="M316 341.5L304.853 335L294 341.5L304.853 348L316 341.5Z" fill="white"/>
<path d="M303 334.14L292.5 328L282 334.14L292.5 340L303 334.14Z" fill="white"/>
<path d="M365 369.14L353.853 363L343 369.14L354.147 375L365 369.14Z" fill="white"/>
<path d="M352 361.86L340.853 356L330 361.86L340.853 368L352 361.86Z" fill="white"/>
<path d="M339 355.5L328.5 349L318 355.5L328.5 362L339 355.5Z" fill="white"/>
<path d="M389 384.14L377.853 378L367 384.14L377.853 390L389 384.14Z" fill="white"/>
<path d="M400 391.5L389.5 385L379 391.5L389.5 398L400 391.5Z" fill="white"/>
<path d="M410 382.14L398.853 376L388 382.14L399.147 388L410 382.14Z" fill="white"/>
<path d="M422 389.239L410.887 383L400.066 389.239L402.991 390.657L391 397.463L399.189 402L422 389.239Z" fill="white"/>
<path d="M416 371.5L404.853 365L394 371.5L404.853 378L416 371.5Z" fill="white"/>
<path d="M433 382.714L416.516 373L406 379.286L422.484 389L433 382.714Z" fill="white"/>
<path d="M376 376.86L365.5 371L355 376.86L365.5 383L376 376.86Z" fill="white"/>
<path d="M299 319.5L288.5 313L278 319.5L288.5 326L299 319.5Z" fill="white"/>
<path d="M288 311.86L277.147 306L266 311.86L277.147 318L288 311.86Z" fill="white"/>
<path d="M276 304.5L264.853 298L254 304.5L264.853 311L276 304.5Z" fill="white"/>
<path d="M336 339.86L325.5 334L315 339.86L325.5 346L336 339.86Z" fill="white"/>
<path d="M325 333.14L313.853 327L303 333.14L314.147 339L325 333.14Z" fill="white"/>
<path d="M313 325.86L301.853 320L291 325.86L301.853 332L313 325.86Z" fill="white"/>
<path d="M373 360.86L362.147 355L351 360.86L362.147 367L373 360.86Z" fill="white"/>
<path d="M361 354.5L349.853 348L339 354.5L350.147 361L361 354.5Z" fill="white"/>
<path d="M349 347.14L337.853 341L327 347.14L337.853 353L349 347.14Z" fill="white"/>
<path d="M398 374.86L386.853 369L376 374.86L387.147 381L398 374.86Z" fill="white"/>
<path d="M385 368.5L374.5 362L364 368.5L374.5 375L385 368.5Z" fill="white"/>
<path d="M306 308.14L294.853 302L284 308.14L295.147 314L306 308.14Z" fill="white"/>
<path d="M293 300.86L282.5 295L272 300.86L282.5 307L293 300.86Z" fill="white"/>
<path d="M281 294.5L270.147 288L259 294.5L270.147 301L281 294.5Z" fill="white"/>
<path d="M269 287.14L257.853 281L247 287.14L258.147 293L269 287.14Z" fill="white"/>
<path d="M263 297.891L246.083 288L235 294.109L252.208 304L263 297.891Z" fill="white"/>
<path d="M255 306.508L234.821 295L224 301.197L244.179 313L255 306.508Z" fill="white"/>
<path d="M236 309.583L222.829 302L212 308.417L225.171 316L236 309.583Z" fill="white"/>
<path d="M343 329.5L331.853 323L321 329.5L331.853 336L343 329.5Z" fill="white"/>
<path d="M329 322.14L318.5 316L308 322.14L318.5 328L329 322.14Z" fill="white"/>
<path d="M318 314.86L307.147 309L296 314.86L307.147 321L318 314.86Z" fill="white"/>
<path d="M379 350.86L367.853 345L357 350.86L367.853 357L379 350.86Z" fill="white"/>
<path d="M366 343.5L355.5 337L345 343.5L355.5 350L366 343.5Z" fill="white"/>
<path d="M355 336.14L344.147 330L333 336.14L344.147 342L355 336.14Z" fill="white"/>
<path d="M403 364.86L392.5 359L382 364.86L392.5 371L403 364.86Z" fill="white"/>
<path d="M391 358.14L379.853 352L369 358.14L380.147 364L391 358.14Z" fill="white"/>
<path d="M315.093 395.638L236.155 350.432C234.999 349.856 232.975 349.856 232.107 350.432L187.867 376.058C186.711 376.634 186.711 377.786 187.867 378.362L266.805 423.568C267.961 424.144 269.985 424.144 270.853 423.568L315.382 397.942C316.249 397.366 316.249 396.502 315.093 395.638Z" fill="#A2C9F3"/>
<path d="M282 287.429L272.375 282L268 284.286L277.625 290L282 287.429Z" fill="white"/>
<path d="M294 294.429L284.375 289L280 291.286L289.625 297L294 294.429Z" fill="white"/>
<path d="M306 300.429L296.083 295L292 297.571L301.625 303L306 300.429Z" fill="white"/>
<path d="M318 307.429L308.375 302L304 304.571L313.625 310L318 307.429Z" fill="white"/>
<path d="M397 353.429L387.375 348L383 350.571L392.625 356L397 353.429Z" fill="white"/>
<path d="M409 360.714L399.375 355L395 357.571L404.625 363L409 360.714Z" fill="white"/>
<path d="M421 367.714L411.083 362L407 364.571L416.625 370L421 367.714Z" fill="white"/>
<path d="M433 374.714L423.375 369L419 371.571L428.625 377L433 374.714Z" fill="white"/>
</g>
<mask id="mask3_399_1681" style="mask-type:luminance" maskUnits="userSpaceOnUse" x="302" y="151" width="119" height="161">
<path d="M302 243.33L302.289 151L421 219.382L420.711 312L302 243.33Z" fill="white"/>
</mask>
<g mask="url(#mask3_399_1681)">
<path d="M361.645 184.626C336.745 170.239 314.74 172.54 302 187.791L309.528 198.437C320.53 184.913 339.64 182.899 361.645 195.272C383.65 207.645 402.759 232.103 413.472 258L421 255.986C408.55 226.636 386.545 199.013 361.645 184.626Z" fill="white"/>
<path d="M361.645 207.956C343.314 197.293 327.02 199.311 318 211.126L325.565 221.789C332.839 211.703 346.224 209.685 361.645 218.619C377.067 227.265 390.451 244.556 397.435 263L405 260.983C396.271 238.792 380.268 218.331 361.645 207.956Z" fill="white"/>
<path d="M361.146 231.092C349.47 224.408 338.962 226.151 334 234.579L341.589 245.623C344.8 238.939 352.389 236.904 361.146 242.135C369.903 247.076 377.492 257.538 380.411 268L388 265.966C383.33 251.435 373.113 237.776 361.146 231.092Z" fill="white"/>
<path d="M361 254.384C356.714 251.844 353 252.973 351.571 256.359C351.286 257.206 351 258.616 351 259.745C351 265.953 355.286 273.571 361 276.675C366.429 279.779 371 277.24 371 271.032C371 269.621 370.714 268.21 370.429 266.799C369 262.002 365.286 256.923 361 254.384Z" fill="white"/>
</g>
<path d="M425 60.526C424.709 60.8182 424.127 60.8182 423.836 61.1104C423.545 61.1104 423.254 61.4026 422.963 61.4026C422.963 61.4026 422.963 61.4026 422.672 61.4026C422.381 61.4026 421.798 61.4026 421.507 61.4026H421.216C420.925 61.4026 420.343 61.4026 420.052 61.4026C419.761 61.4026 419.179 61.4026 418.888 61.1104C418.597 61.1104 418.015 60.8182 417.433 60.8182C416.851 60.526 416.56 60.526 415.978 60.2338C415.396 59.9416 415.104 59.6493 414.522 59.3571C413.94 59.0649 413.649 58.7727 413.067 58.4805C412.485 58.1883 412.194 57.8961 411.612 57.3117C411.612 57.3117 411.612 57.3117 411.321 57.3117C411.03 57.0195 410.448 56.435 410.157 56.1428C410.157 56.1428 410.157 56.1428 409.866 56.1428C409.575 55.8506 408.993 55.2662 408.701 54.974C408.41 54.3896 407.828 54.0974 407.537 53.513C407.246 52.9286 406.664 52.3442 406.373 52.052C406.082 51.4675 405.791 51.1753 405.5 50.5909C405.209 50.2987 405.209 50.0065 404.918 49.7143C404.627 49.4221 404.627 49.1299 404.336 48.8376L404.045 48.5455C403.754 47.9611 403.463 47.6688 403.172 47.0844C403.172 47.0844 403.172 47.0844 403.172 46.7922C402.881 46.2078 402.589 45.6234 402.298 45.039C402.007 44.4546 401.716 43.8701 401.716 43.2857C401.425 42.7013 401.425 42.1169 401.134 41.5325C400.843 40.948 400.843 40.3637 400.552 39.7792C400.552 39.7792 400.552 39.7792 400.552 39.487C400.552 38.9026 400.261 38.3182 400.261 37.7338C400.261 37.1494 399.97 36.5649 399.97 35.9805C399.97 35.9805 399.97 35.9805 399.97 35.6883C399.97 35.1039 399.97 34.5195 399.97 33.9351C399.97 33.3507 399.97 32.7662 399.97 32.1818C399.97 32.1818 399.97 32.1818 399.97 31.8896C399.97 31.3052 399.97 31.013 400.261 30.4286C400.261 30.4286 400.261 30.4286 400.261 30.1364C400.261 29.552 400.552 29.2598 400.552 28.9676V28.6753C400.552 28.3831 400.843 27.7987 400.843 27.5065C401.134 27.2143 401.134 26.6299 401.425 26.3377C401.716 25.7533 402.007 25.4611 402.59 25.1689L402.881 24.8766C403.172 24.5844 403.754 24.2922 404.045 24L389.784 32.474C389.201 32.7663 388.91 33.0585 388.619 33.3507L388.328 33.6429C388.037 33.9351 387.455 34.5195 387.164 34.8117C386.873 35.1039 386.873 35.3961 386.582 35.9805C386.582 36.2727 386.291 36.5649 386.291 36.5649V36.8572V37.1493C386.291 37.1493 386.291 37.1494 386.291 37.4416C386.291 37.7338 386.291 38.026 386 38.3182V38.6104C386 38.6104 386 38.6104 386 38.9026V39.1948C386 39.487 386 39.7792 386 39.7792V40.0714C386 40.0714 386 40.0714 386 40.3636C386 40.6559 386 40.9481 386 40.9481C386 41.2403 386 41.5325 386 41.8247C386 42.1169 386 42.4091 386 42.4091C386 42.7013 386 42.9935 386 43.2857V43.5779V43.8701C386 44.1623 386 44.4546 386 44.7468C386 45.039 386 45.3312 386 45.6234C386 45.9156 386 46.2078 386 46.2078C386 46.5 386 46.7922 386.291 47.0844V47.3766C386.291 47.3766 386.291 47.3766 386.291 47.6688V47.9611C386.291 48.2533 386.291 48.5454 386.582 48.8376C386.582 49.1299 386.582 49.1299 386.873 49.4221C386.873 49.7143 387.164 50.0065 387.164 50.2987C387.164 50.5909 387.455 50.8831 387.455 51.1753C387.455 51.4675 387.455 51.4675 387.746 51.7597C387.746 52.0519 388.037 52.3441 388.037 52.6364C388.037 52.9286 388.328 52.9286 388.328 53.2208C388.328 53.513 388.619 53.8052 388.619 54.0974C388.619 54.3896 388.91 54.6818 388.91 54.974C388.91 54.974 388.91 54.974 388.91 55.2663C388.91 55.5585 389.201 55.5585 389.201 55.8507C389.201 56.1429 389.492 56.4351 389.492 56.7273C389.492 56.7273 389.493 57.0195 389.784 57.0195C389.784 57.0195 389.784 57.0195 389.784 57.3117C389.784 57.6039 390.075 57.6039 390.075 57.8961C390.366 58.1883 390.366 58.4805 390.657 58.7727C390.657 58.7727 390.657 58.7727 390.657 59.0649C390.948 59.3571 391.239 59.9416 391.53 60.2338C391.821 60.526 392.112 60.8182 392.112 61.1104C392.403 61.4026 392.403 61.6948 392.694 61.6948C392.985 61.987 392.985 62.2792 393.276 62.2792C393.567 62.5714 393.567 62.8636 393.858 62.8636C393.858 63.1558 394.149 63.1558 394.149 63.448C394.44 63.7402 394.44 63.7403 394.731 64.0325C394.731 64.0325 394.731 64.0325 395.022 64.3247C395.022 64.3247 395.022 64.3247 395.313 64.3247L395.604 64.6169C395.895 64.9091 396.187 64.9091 396.187 65.2013L396.478 65.4935C396.478 65.4935 396.478 65.4935 396.769 65.4935C396.769 65.4935 397.06 65.4935 397.06 65.7857C397.351 66.0779 397.642 66.0779 397.642 66.3701C397.933 66.3701 397.933 66.6623 398.224 66.6623C398.515 66.9545 398.515 66.9546 398.806 66.9546C399.097 66.9546 399.097 67.2467 399.388 67.2467C399.388 67.2467 399.388 67.2467 399.679 67.2467C399.97 67.2467 399.97 67.539 400.261 67.539C400.552 67.539 400.552 67.8311 400.843 67.8311C400.843 67.8311 401.134 67.8312 401.134 68.1234C401.425 68.1234 401.425 68.4156 401.716 68.4156C402.007 68.4156 402.007 68.7078 402.298 68.7078H402.59C402.881 68.7078 402.881 68.7078 403.172 69H403.463C403.463 69 403.463 69 403.754 69C404.045 69 404.336 69 404.336 69H404.627C404.918 69 405.209 69 405.209 69H405.5H405.791H406.082C406.373 69 406.664 69 406.955 69C406.955 69 406.955 69 407.246 69C407.537 69 407.828 69 408.119 68.7078C408.41 68.4156 408.993 68.4156 409.284 68.1234L425 60.526Z" fill="#769EFB"/>
<path d="M444 57.6026C444 57.0231 444 56.7333 444 56.1538C444 55.8641 444 55.5743 444 55.5743V55.2846C444 54.9949 444 54.9949 444 54.7051C444 54.1256 444 53.8359 443.711 53.2564C443.711 52.6769 443.711 52.3872 443.421 51.8077C443.421 51.2282 443.132 50.9385 443.132 50.359C443.132 49.7795 442.842 49.2 442.842 48.9103C442.842 48.6205 442.842 48.6205 442.842 48.3307V48.041C442.842 47.7513 442.842 47.4615 442.553 47.4615C442.553 46.882 442.263 46.3025 442.263 45.7231C442.263 45.4333 441.974 44.8538 441.974 44.5641C441.974 44.5641 441.974 44.5641 441.974 44.2743C441.974 44.2743 441.974 44.2743 441.974 43.9846C441.684 43.4051 441.684 42.8256 441.395 42.5359C441.105 41.9564 441.105 41.3769 440.816 41.0871V40.7974V40.5077C440.816 40.2179 440.526 39.9282 440.526 39.6384C440.237 39.0589 440.237 38.7692 439.947 38.1897C439.658 37.9 439.658 37.6102 439.368 37.0308C439.368 37.0308 439.368 37.0307 439.368 36.741C439.368 36.741 439.368 36.741 439.368 36.4513C439.079 35.8718 439.079 35.582 438.79 35.0026C438.5 34.4231 438.211 33.8436 437.921 33.5538V33.2641C437.921 33.2641 437.921 32.9744 437.632 32.9744C437.342 32.6846 437.342 32.1051 437.053 31.8154C436.763 31.2359 436.474 30.6564 436.184 30.3666C435.895 30.0769 435.895 29.7871 435.605 29.4974C435.605 29.4974 435.605 29.2077 435.316 29.2077C435.026 28.6282 434.737 28.3385 434.447 27.759C434.158 27.1795 433.579 26.3103 433.29 25.7308C433.29 25.7308 433.29 25.441 433 25.441C432.421 24.5718 431.842 23.7026 430.974 22.8333C430.395 22.2538 430.105 21.6743 429.526 21.0949C429.237 20.5154 428.658 20.2256 428.368 19.6461C428.079 19.0666 427.5 18.7769 427.211 18.1974C426.921 17.6179 426.342 17.3282 426.053 17.0385C426.053 17.0385 426.053 17.0384 425.763 16.7487C425.763 16.7487 425.763 16.4589 425.474 16.4589C425.184 16.1692 424.895 15.8795 424.605 15.5897C424.316 15.3 423.737 14.7205 423.447 14.4307L423.158 14.141L422.868 13.8513C422.579 13.5615 422.579 13.5615 422.289 13.2718C421.711 12.982 421.421 12.4025 420.842 12.1128C420.553 11.823 420.553 11.8231 420.263 11.5333L419.974 11.2436C419.684 11.2436 419.684 10.9538 419.395 10.9538C418.816 10.6641 418.526 10.3743 417.947 10.0846C417.658 9.79485 417.368 9.50511 417.079 9.50511C417.079 9.50511 417.079 9.50511 416.789 9.50511C416.789 9.50511 416.789 9.50511 416.5 9.50511C416.211 9.21537 415.632 8.92561 415.342 8.63587C415.053 8.34613 414.474 8.05638 414.184 7.76663C414.184 7.76663 413.895 7.76666 413.895 7.47691C413.605 7.18717 413.316 7.18718 413.026 6.89744C412.737 6.60769 412.158 6.31791 411.868 6.31791C411.579 6.31791 411.289 6.0282 411 6.0282C411 6.0282 411 6.0282 410.711 6.0282H410.421C410.132 5.73845 409.553 5.73846 409.263 5.44872C408.974 5.15897 408.395 5.15894 408.105 4.8692C408.105 4.8692 408.105 4.8692 407.816 4.8692C407.816 4.8692 407.816 4.8692 407.526 4.8692C407.237 4.8692 406.947 4.57948 406.658 4.57948C406.368 4.57948 405.789 4.28972 405.5 4.28972C405.211 4.28972 405.211 4.28972 404.921 4.28972H404.632H404.342C403.763 4.28972 403.474 4 402.895 4C402.605 4 402.316 4 402.026 4H401.737H401.447C400.868 4 400.579 4 400 4C399.711 4 399.711 4 399.421 4C399.132 4 399.132 4 398.842 4C398.553 4 398.553 4 398.263 4C397.684 4 397.105 3.99997 396.526 4.28972H396.237C395.658 4.28972 395.079 4.57945 394.5 4.8692C393.632 5.15894 393.053 5.44871 392.184 6.0282L378 14.4307C378.868 14.141 379.447 13.5615 380.316 13.2718C380.895 12.982 381.474 12.9821 382.053 12.6923H382.342C383.211 12.4026 383.789 12.4025 384.658 12.4025C384.947 12.4025 384.947 12.4025 385.237 12.4025C386.105 12.4025 386.684 12.4025 387.553 12.4025H387.842C388.711 12.4025 389.579 12.6923 390.447 12.6923H390.737C391.605 12.9821 392.474 13.2718 393.342 13.5615C393.342 13.5615 393.342 13.5615 393.632 13.5615C394.5 13.8512 395.658 14.141 396.526 14.7205C396.526 14.7205 396.526 14.7205 396.816 14.7205C397.684 15.3 398.842 15.5897 399.711 16.1692C400.868 16.7487 401.737 17.3282 402.605 18.1974C402.605 18.1974 402.605 18.1974 402.895 18.1974C403.763 18.7769 404.632 19.6461 405.5 20.2256L405.79 20.5154C406.658 21.0949 407.526 21.9641 408.395 22.8333L408.684 23.1231C409.553 23.9923 410.421 24.8615 411.289 25.7308C411.289 25.7308 411.29 26.0205 411.579 26.0205C412.447 26.8897 413.316 28.0487 414.184 28.9179C415.053 30.0769 415.921 30.9461 416.5 32.1051C417.368 32.9743 417.947 34.1333 418.526 35.0026C418.816 35.582 419.395 36.1615 419.684 37.0308C419.974 37.6102 420.263 38.1897 420.553 38.7692C420.842 39.059 420.842 39.3487 420.842 39.6384C421.421 40.5077 422 41.3769 422.289 42.5359C422.289 42.5359 422.289 42.8256 422.579 42.8256C423.158 43.9846 423.737 45.1436 424.316 46.3025C424.316 46.3025 424.316 46.3026 424.316 46.5923C424.895 47.7513 425.184 48.9102 425.763 50.0692V50.359C426.342 51.5179 426.632 52.6769 426.921 53.8359C426.921 53.8359 426.921 53.8359 426.921 54.1256C427.211 55.2846 427.5 56.4436 427.79 57.6026V57.8923C428.079 59.0513 428.368 60.2102 428.368 61.3692C428.658 62.5282 428.658 63.6872 428.658 64.8462V65.1359C428.658 66.2948 428.658 67.4538 428.658 68.6128C428.658 69.1923 428.658 69.7718 428.658 70.3513C428.658 70.9307 428.658 71.5103 428.368 72.0897V72.3795C428.368 72.9589 428.079 73.5385 428.079 74.1179C428.079 74.4077 427.79 74.6974 427.79 74.9872C427.79 75.2769 427.5 75.5666 427.5 75.8564C427.211 76.7256 426.921 77.3051 426.632 78.1743C426.632 78.4641 426.342 78.7538 426.342 79.0436C426.053 79.3333 426.053 79.9128 425.763 80.2025C425.763 80.4923 425.474 80.782 425.474 81.0718C425.184 81.3615 425.184 81.941 424.895 82.2308C424.895 82.5205 424.605 82.5205 424.605 82.8102C424.026 83.9692 423.447 85.1282 422.868 86.2872C422.868 86.5769 422.579 86.5769 422.579 86.8666C422 88.0256 421.132 89.1846 420.553 90.3436C420.553 90.6333 420.263 90.6333 420.263 90.9231C419.974 91.5026 419.684 92.082 419.105 92.6615C418.816 92.9513 418.816 93.241 418.526 93.5308C418.237 94.1102 417.658 94.6897 417.368 95.2692L417.079 95.5589C416.5 96.4282 415.921 97.0077 415.342 97.8769C415.053 98.1666 415.053 98.1666 414.763 98.4564C414.474 99.0359 413.895 99.6154 413.605 99.9051C413.316 100.195 413.316 100.485 413.026 100.485C412.737 101.064 412.158 101.354 411.868 101.933C411.579 102.223 411.579 102.223 411.289 102.513C410.711 103.092 410.132 103.962 409.842 104.541L409.553 104.831C408.974 105.41 408.684 105.99 408.105 106.279C407.816 106.569 407.816 106.569 407.526 106.859C407.237 107.149 406.947 107.728 406.368 108.018C406.079 108.308 406.079 108.308 405.79 108.597C405.5 109.177 404.921 109.467 404.632 110.046C404.632 110.046 404.632 110.046 404.342 110.336C403.763 110.915 403.474 111.205 402.895 111.785L402.605 112.074C402.316 112.364 402.026 112.654 401.737 112.944L401.447 113.233C401.158 113.523 400.868 113.813 400.579 114.103L400.29 114.392C400 114.682 399.711 114.972 399.421 115.262C399.421 115.262 399.421 115.262 399.132 115.551C398.842 115.841 398.842 115.841 398.553 116.131L398.263 116.42L397.974 116.71L397.684 117L411.868 108.597C411.868 108.597 411.868 108.597 412.158 108.308L412.447 108.018C412.447 108.018 412.447 108.018 412.737 107.728C413.026 107.438 413.026 107.438 413.316 107.149C413.316 107.149 413.316 107.149 413.605 106.859C413.895 106.569 414.184 106.279 414.474 105.99L414.763 105.7C415.053 105.41 415.342 105.12 415.632 104.831L415.921 104.541C416.211 104.251 416.5 103.962 416.789 103.672L417.079 103.382C417.368 102.803 417.947 102.513 418.526 101.933C418.526 101.933 418.526 101.933 418.816 101.644C419.105 101.064 419.684 100.774 419.974 100.195C420.263 99.9051 420.263 99.9051 420.553 99.6154C420.842 99.3256 421.132 98.7461 421.711 98.4564C422 98.1666 422 98.1666 422.289 97.8769C422.579 97.2974 423.158 97.0077 423.447 96.4282L423.737 96.1384C424.316 95.5589 424.895 94.9795 425.184 94.1102C425.474 93.8205 425.474 93.8205 425.763 93.5308C426.053 92.9513 426.632 92.6615 426.921 92.082C427.211 91.7923 427.211 91.5026 427.5 91.5026C427.79 90.9231 428.368 90.3436 428.658 90.0538C428.947 89.7641 428.947 89.7641 429.237 89.4744C429.816 88.8949 430.395 88.0256 430.974 87.1564L431.263 86.8666C431.553 86.2872 432.132 85.7077 432.421 85.1282C432.711 84.8385 432.711 84.5487 433 84.259C433.29 83.6795 433.579 83.1 434.158 82.5205C434.158 82.2307 434.447 82.2308 434.447 81.941C434.447 81.941 434.447 81.941 434.447 81.6512C435.316 80.4923 435.895 79.3333 436.474 78.1743C436.474 77.8846 436.763 77.8846 436.763 77.5949C437.342 76.4359 437.921 75.2769 438.5 74.1179V73.8282V73.5385C438.789 73.2487 438.79 72.6692 439.079 72.3795C439.079 72.0897 439.368 71.8 439.368 71.5102C439.658 71.2205 439.658 70.641 439.947 70.3513C439.947 70.0615 440.237 69.7718 440.237 69.482C440.237 69.482 440.237 69.482 440.237 69.1923C440.526 68.3231 440.816 67.7436 441.105 66.8744C441.105 66.5846 441.395 66.2949 441.395 66.0051C441.395 65.7154 441.684 65.4256 441.684 65.1359C441.684 64.5564 441.974 64.2666 441.974 63.6872V63.3974C441.974 63.1077 441.974 62.8179 441.974 62.5282C441.974 62.2385 441.974 61.9487 441.974 61.659C441.974 61.3692 441.974 61.0795 441.974 60.7897C441.974 60.5 441.974 60.2102 441.974 59.9205C444 58.4718 444 58.1821 444 57.6026Z" fill="#769EFB"/>
<path d="M400.143 15.1024C416.663 24.6978 430.285 47.9595 429.995 67.1504C429.995 86.3413 401.302 114.546 399.853 116C398.404 112.802 370 51.4488 370 32.2579C370 13.3577 383.622 5.50693 400.143 15.1024ZM400.143 67.1504C408.548 72.0935 415.214 68.0227 415.214 58.4273C415.214 48.8318 408.548 37.201 400.143 32.2579C391.737 27.3148 385.071 31.3856 385.071 40.981C385.071 50.8672 391.737 62.4981 400.143 67.1504Z" fill="#D7E9F6"/>
<mask id="mask4_399_1681" style="mask-type:luminance" maskUnits="userSpaceOnUse" x="394" y="78" width="10" height="18">
<path d="M394 90V78L404 84V96L394 90Z" fill="white"/>
</mask>
<g mask="url(#mask4_399_1681)">
<path d="M399 80.7233C396.222 79.0326 394 80.4415 394 83.5412C394 86.9227 396.222 90.586 399 92.2767C401.778 93.9675 404 92.5585 404 89.4588C404 86.0773 401.778 82.414 399 80.7233Z" fill="white"/>
</g>
<g opacity="0.3">
<mask id="mask5_399_1681" style="mask-type:luminance" maskUnits="userSpaceOnUse" x="35" y="411" width="219" height="126">
<path d="M179.552 537L35 455.028L109.738 411L254 492.972L179.552 537Z" fill="white"/>
</mask>
<g mask="url(#mask5_399_1681)">
<path d="M102.996 414.527L41.6795 450.88C37.9196 452.915 38.2088 456.405 41.9687 458.732L172.7 533.473C176.46 535.509 182.244 535.509 186.004 533.473L247.32 497.12C251.08 495.085 250.791 491.595 247.031 489.268L116.3 414.527C112.54 412.491 106.466 412.491 102.996 414.527Z" fill="#A3A5A5"/>
</g>
</g>
<mask id="mask6_399_1681" style="mask-type:luminance" maskUnits="userSpaceOnUse" x="124" y="406" width="6" height="9">
<path d="M130 413.548C127.9 413.548 125.5 413.839 124 415V407.452C125.8 406.581 127.9 406 130 406C130 408.613 130 410.935 130 413.548Z" fill="white"/>
</mask>
<g mask="url(#mask6_399_1681)">
<path d="M130 406V414C129.667 414 129.333 414 129 414V406C129.333 406 129.667 406 130 406Z" fill="#84849F"/>
<path d="M129 406V414C128.667 414 128.333 414 128 414V406C128.333 406 128.667 406 129 406Z" fill="#8888A4"/>
<path d="M128 406V413.704C127.75 413.704 127.25 413.704 127 414V406.296C127.25 406 127.5 406 128 406Z" fill="#8C8CA9"/>
<path d="M127 406V413.429C126.333 413.429 125.667 413.714 125 414V406.571C125.667 406.286 126.333 406 127 406Z" fill="#9090AE"/>
<path d="M125 407V414.429C124.75 414.714 124.25 414.714 124 415V407.571C124.25 407.571 124.5 407.286 125 407Z" fill="#9494B3"/>
</g>
<mask id="mask7_399_1681" style="mask-type:luminance" maskUnits="userSpaceOnUse" x="129" y="406" width="6" height="9">
<path d="M135 415C133.5 414.129 131.1 413.548 129 413.548C129 410.935 129 408.323 129 406C131.1 406 133.2 406.581 135 407.452C135 409.774 135 412.677 135 415Z" fill="white"/>
</mask>
<g mask="url(#mask7_399_1681)">
<path d="M135 407.571V415C134.6 414.714 134.4 414.429 134 414.429V407C134.2 407 134.6 407.286 135 407.571Z" fill="#6B6B81"/>
<path d="M134 406.296V414C133.667 414 133.333 413.704 133 413.704V406C133 406.296 133.333 406.296 134 406.296Z" fill="#6F6F86"/>
<path d="M133 406.296V414C132.667 414 132.333 413.704 132 413.704V406C132.333 406.296 132.667 406.296 133 406.296Z" fill="#73738B"/>
<path d="M132 406.224V414C131.667 414 131.333 414 131 414V406.224C131.333 405.925 131.667 405.925 132 406.224Z" fill="#777790"/>
<path d="M131 406V414C130.667 414 130.333 414 130 414V406C130.333 406 130.667 406 131 406Z" fill="#7C7C95"/>
<path d="M130 406V414C129.667 414 129.333 414 129 414V406C129.667 406 130 406 130 406Z" fill="#80809A"/>
</g>
<path d="M115 411.9V420L114 419.1V411L115 411.9Z" fill="#6D6D83"/>
<path d="M123 408V415.535L115 420V412.465L123 408Z" fill="#9F9FBF"/>
<path d="M117 413.2V421L115 420.1V412L117 413.2Z" fill="#878787"/>
<mask id="mask8_399_1681" style="mask-type:luminance" maskUnits="userSpaceOnUse" x="117" y="413" width="1" height="10">
<path d="M118 415.353V423C118 422.118 117.6 421.235 117 420.647V413C117.6 413.588 118 414.471 118 415.353Z" fill="white"/>
</mask>
<g mask="url(#mask8_399_1681)">
<path d="M118 415.353V423C118 422.118 117.6 421.235 117 420.647V413C117.6 413.588 118 414.471 118 415.353Z" fill="#858585"/>
</g>
<mask id="mask9_399_1681" style="mask-type:luminance" maskUnits="userSpaceOnUse" x="117" y="416" width="2" height="10">
<path d="M119 416V423.647C119 424.529 118.333 425.412 117 426V418.353C118.333 417.765 119 416.882 119 416Z" fill="white"/>
</mask>
<g mask="url(#mask9_399_1681)">
<path d="M118.334 417V424.704C118.334 424.704 118.334 425 118 425V417.296C118.334 417.296 118.334 417.296 118.334 417Z" fill="#8888A4"/>
<path d="M118.334 417V424.704L118 425V417.296C118 417.296 118 417.296 118.334 417Z" fill="#8C8CA9"/>
<path d="M118 418V425.429C117.667 425.714 117.333 425.714 117 426V418.571C117.667 418.286 118 418 118 418Z" fill="#9090AE"/>
<path d="M117 418L117.334 426H117V418Z" fill="#9494B3"/>
</g>
<path d="M114 411V418.794L78 439V431.206L114 411Z" fill="#9F9FBF"/>
<path d="M79.6666 432.9L80 441L78 440.1V432L79.6666 432.9Z" fill="#6D6D83"/>
<path d="M81 433.2V441L79.3334 440.1L79 432L81 433.2Z" fill="#6D6D83"/>
<path d="M117 418V425.383L89 441V433.333L117 418Z" fill="#9F9FBF"/>
<path d="M114.28 411L115.743 411.863L117.499 413.013C119.547 414.163 119.547 416.463 117.206 417.613L89.1181 433.138C86.7775 434.287 83.2665 434.287 81.2184 433.138L79.4629 431.988L78 431.125L114.28 411Z" fill="#F5F9FC"/>
<mask id="mask10_399_1681" style="mask-type:luminance" maskUnits="userSpaceOnUse" x="81" y="434" width="8" height="8">
<path d="M89 434V441.172C86.6296 442.276 83.0741 442.276 81 441.172V434C83.0741 435.103 86.9259 435.103 89 434Z" fill="white"/>
</mask>
<g mask="url(#mask10_399_1681)">
<path d="M89 434V440.741C88.6667 440.741 88.3333 441 88 441V434.259C88.3333 434.259 88.6667 434.259 89 434Z" fill="#9494B3"/>
<path d="M88 434V440.741C87.75 441 87.25 441 87 441V434.259C87.25 434.259 87.5 434.259 88 434Z" fill="#9090AE"/>
<path d="M87 435V442C86.6667 442 86.3333 442 86 442V435C86.6666 435 87 435 87 435Z" fill="#8C8CA9"/>
<path d="M87 435V442C86.5 442 86.5 442 86 442V435C86 435 86.5 435 87 435Z" fill="#8888A4"/>
<path d="M86 435V442C85.5 442 85.5 442 85 442V435C85 435 85.5 435 86 435Z" fill="#84849F"/>
<path d="M85 435V442C84.5 442 84.5 442 84 442V435C84 435 84.5 435 85 435Z" fill="#80809A"/>
<path d="M85 435V442C84.5 442 84.5 442 84 442V435C84.5 435 84.5 435 85 435Z" fill="#7C7C95"/>
<path d="M84 435V442C83.5 442 83.5 442 83 442V435C83.5 435 83.5 435 84 435Z" fill="#777790"/>
<path d="M84 435.118V442C83.5 442 83.5 442 83 442V435.118C83.5 434.853 83.5 435.118 84 435.118Z" fill="#73738B"/>
<path d="M83 434.259V441C82.5 441 82 441 82 440.741V434C82 434.259 82.5 434.259 83 434.259Z" fill="#6F6F86"/>
<path d="M82 434.571V442C81.6667 442 81.3333 441.714 81 441.429V434C81 434.286 81.3333 434.286 82 434.571Z" fill="#6B6B81"/>
</g>
<path d="M78.7241 432L79 439.535L71 444V436.465L78.7241 432Z" fill="#9F9FBF"/>
<mask id="mask11_399_1681" style="mask-type:luminance" maskUnits="userSpaceOnUse" x="68" y="437" width="3" height="11">
<path d="M68 448V440.474C68 439.316 69.0001 437.868 71 437V444.526C69.0001 445.395 68 446.842 68 448Z" fill="white"/>
</mask>
<g mask="url(#mask11_399_1681)">
<path d="M71 437V444.172C70.5 444.448 70.25 444.724 70 445V437.828C70.25 437.552 70.5 437.276 71 437Z" fill="#9090AE"/>
<path d="M70 438V445.429C69.5 445.714 69.5 445.714 69 446V438.571C69 438.286 69.5 438 70 438Z" fill="#8C8CA9"/>
<path d="M69.3331 439V446.429C69.3331 446.714 69 446.714 69 447V439.571C69 439.286 69 439 69.3331 439Z" fill="#8888A4"/>
<path d="M68.3331 439V446.429C68.3331 446.714 68 446.714 68 447V439.571C68 439.286 68 439.286 68.3331 439Z" fill="#84849F"/>
<path d="M68.148 440V447.429C68.148 447.714 68.148 447.714 68.148 448V440.571C67.8149 440.286 68.148 440.286 68.148 440Z" fill="#80809A"/>
</g>
<mask id="mask12_399_1681" style="mask-type:luminance" maskUnits="userSpaceOnUse" x="68" y="441" width="2" height="11">
<path d="M68 448.73V441C68 442.189 68.75 443.378 70 444.27V452C68.75 451.108 68 449.919 68 448.73Z" fill="white"/>
</mask>
<g mask="url(#mask12_399_1681)">
<path d="M70 444.27V452C68.75 451.108 68 449.919 68 448.73V441C68 442.189 68.75 443.378 70 444.27Z" fill="#858585"/>
</g>
<path d="M256 482.493V490L135 415.507V408L256 482.493Z" fill="#6D6D83"/>
<mask id="mask13_399_1681" style="mask-type:luminance" maskUnits="userSpaceOnUse" x="256" y="482" width="2" height="11">
<path d="M258 485.27V493C258 491.811 257.25 490.622 256 489.73V482C257.25 482.892 258 484.081 258 485.27Z" fill="white"/>
</mask>
<g mask="url(#mask13_399_1681)">
<path d="M258 485.27V493C258 491.811 257.25 490.622 256 489.73V482C257.25 482.892 258 484.081 258 485.27Z" fill="#6B6B81"/>
</g>
<mask id="mask14_399_1681" style="mask-type:luminance" maskUnits="userSpaceOnUse" x="256" y="486" width="3" height="11">
<path d="M259 486V493.526C259 494.684 258 496.132 256 497V489.474C258 488.605 259 487.447 259 486Z" fill="white"/>
</mask>
<g mask="url(#mask14_399_1681)">
<path d="M259.25 487V494.429C259.25 494.714 259.25 494.714 259.25 495V487.571C258.917 487.286 258.917 487.286 259.25 487Z" fill="#9E9E9E"/>
<path d="M258.333 487V494.429C258.333 494.714 258.333 494.714 258 495V487.571C258.333 487.286 258.333 487 258.333 487Z" fill="#A3A3A3"/>
<path d="M258.333 487V494.429C258.333 494.714 258 494.714 258 495V487.571C258.333 487.286 258.333 487.286 258.333 487Z" fill="#A8A8A8"/>
<path d="M258 488V495.429C257.5 495.714 257.5 495.714 257 496V488.571C257.5 488.286 258 488.286 258 488Z" fill="#ADADAD"/>
<path d="M257 489V496.172C256.75 496.448 256.25 496.724 256 497V489.828C256.5 489.552 256.75 489.276 257 489Z" fill="#B3B3B3"/>
</g>
<path d="M192 518.493V526L71 451.507V444L192 518.493Z" fill="#878787"/>
<path d="M256 489V496.744L204 526V518.256L256 489Z" fill="#C4C4C4"/>
<path d="M123.918 407.294C127.102 405.569 132.311 405.569 135.494 407.294L256.752 481.477C259.936 483.49 259.646 486.365 256.463 488.378L204.082 517.706C200.898 519.431 195.689 519.431 192.506 517.706L71.2478 443.523C68.0644 441.51 68.3538 438.635 71.5372 436.622L79.9297 432.022L81.6661 433.172C83.6919 434.322 87.1646 434.609 89.4798 433.172L117.262 417.645C119.577 416.495 119.577 414.482 117.552 413.045L115.815 411.894L123.918 407.294Z" fill="#769EFB"/>
<mask id="mask15_399_1681" style="mask-type:luminance" maskUnits="userSpaceOnUse" x="192" y="518" width="12" height="9">
<path d="M204 518V525.672C200.7 527.443 195.3 527.443 192 525.672V518C195.3 519.77 200.7 520.066 204 518Z" fill="white"/>
</mask>
<g mask="url(#mask15_399_1681)">
<path d="M204 518V525.429C203.75 525.714 203.25 525.714 203 526V518.571C203.5 518.571 203.75 518.286 204 518Z" fill="#B8B8B8"/>
<path d="M203 519V526.429C202.333 526.714 201.667 526.714 201 527V519.571C201.667 519.571 202.333 519.286 203 519Z" fill="#B3B3B3"/>
<path d="M201 519V526.704C200.75 526.704 200.5 526.704 200 527V519.296C200.5 519 200.75 519 201 519Z" fill="#ADADAD"/>
<path d="M200 519V527C199.667 527 199.333 527 199 527V519C199.333 519 199.667 519 200 519Z" fill="#A8A8A8"/>
<path d="M199 519V527C198.667 527 198.333 527 198 527V519C198.333 519 198.667 519 199 519Z" fill="#A3A3A3"/>
<path d="M198 519V527C197.667 527 197.333 527 197 527V519C197.333 519 197.667 519 198 519Z" fill="#9E9E9E"/>
<path d="M197 519V527C196.667 527 196.333 527 196 527V519C196.667 519 197 519 197 519Z" fill="#999999"/>
<path d="M197 519.224V527C196.667 527 196.333 527 196 527V519.224C196.333 518.925 196.667 518.925 197 519.224Z" fill="#949494"/>
<path d="M196 519.296V527C195.667 527 195.333 527 195 526.704V519C195.333 519.296 195.667 519.296 196 519.296Z" fill="#8F8F8F"/>
<path d="M195 519.296V527C194.667 527 194.333 526.704 194 526.704V519C194 519.296 194.667 519.296 195 519.296Z" fill="#8A8A8A"/>
<path d="M194 518.571V526C193.2 525.714 192.8 525.714 192 525.429V518C192.8 518.286 193.6 518.571 194 518.571Z" fill="#858585"/>
</g>
<path d="M119.754 405.243C125.258 402.066 133.66 402.355 138.875 405.532L260.263 480.038C265.478 483.215 265.188 488.124 259.684 491.301L207.246 520.757C201.742 523.934 193.34 523.645 188.125 520.468L66.7367 445.962C61.5219 442.785 61.8115 437.876 67.316 434.699L119.754 405.243ZM256.497 482.349L135.108 407.842C131.921 405.821 126.707 405.821 123.52 407.842L115.408 412.463L113.959 411.596L78.0354 431.811L79.4839 432.678L71.0823 437.298C67.8955 439.031 67.6058 442.208 70.7926 444.229L192.181 518.735C195.368 520.757 200.583 520.757 203.77 518.735L256.207 489.279C259.394 487.258 259.684 484.081 256.497 482.349Z" fill="#F5F9FC"/>
<path d="M264 485.29V485.581V485.871V486.161V486.452V486.742C264 487.032 264 487.032 263.71 487.323C263.71 487.323 263.71 487.613 263.42 487.613C263.42 487.903 263.13 487.903 263.13 488.194C263.13 488.194 263.13 488.484 262.84 488.484C262.55 488.774 262.55 489.064 262.26 489.064L261.97 489.355C261.68 489.645 261.68 489.645 261.39 489.936L261.1 490.226C260.81 490.516 260.52 490.516 260.229 490.806C260.229 490.806 259.939 490.806 259.939 491.097L207.442 520.71C206.861 521 205.991 521.29 205.411 521.581H205.121C204.541 521.871 203.961 521.871 203.091 522.161H202.801C201.931 522.452 201.351 522.452 200.481 522.452H200.19C199.32 522.452 198.74 522.452 197.87 522.452C197 522.452 196.13 522.452 195.26 522.161C194.39 522.161 193.81 521.871 192.939 521.871H192.649C191.779 521.581 191.199 521.581 190.619 521.29H190.329C189.749 521 188.879 520.71 188.299 520.419L66.7705 445.516C64.1601 444.064 63 442.032 63 440V447.548C63 449.581 64.1601 451.613 66.7705 453.065L188.299 527.968C188.879 528.258 189.459 528.548 190.329 528.839H190.619C190.619 528.839 190.619 528.839 190.909 528.839C191.489 529.129 192.069 529.129 192.649 529.419H192.939H193.229C193.519 529.419 193.81 529.71 194.1 529.71C194.68 529.71 194.97 530 195.55 530C196.13 530 196.42 530 197 530C197.29 530 197.87 530 198.16 530C198.74 530 199.03 530 199.61 530C199.9 530 200.19 530 200.481 530H200.771H201.061C201.641 530 202.221 529.71 202.801 529.71C202.801 529.71 202.801 529.71 203.091 529.71H203.381C203.961 529.419 204.831 529.419 205.411 529.129H205.701C205.701 529.129 205.701 529.129 205.991 529.129C206.571 528.839 207.152 528.548 208.022 528.258L260.52 498.645C260.52 498.645 260.52 498.645 260.81 498.645C261.1 498.355 261.39 498.355 261.68 498.065L261.97 497.774C262.26 497.484 262.26 497.484 262.55 497.194C262.55 497.194 262.55 497.194 262.55 496.903C262.84 496.613 262.84 496.613 263.13 496.323C263.13 496.323 263.13 496.323 263.13 496.032C263.13 495.742 263.42 495.742 263.42 495.452V495.161C263.42 494.871 263.42 494.871 263.71 494.581V494.29V494V493.71V493.419V493.129L264 485.29Z" fill="#A2C9F3"/>
<mask id="mask16_399_1681" style="mask-type:luminance" maskUnits="userSpaceOnUse" x="125" y="442" width="72" height="42">
<path d="M154.494 484L125 466.91L167.795 442L197 458.8L154.494 484Z" fill="white"/>
</mask>
<g mask="url(#mask16_399_1681)">
<path d="M146.328 454.246C137.444 459.553 134.291 466.924 136.871 474L141.456 473.705C139.163 467.808 141.743 461.027 149.481 456.31C157.219 451.592 168.396 449.823 178.427 451.298L179 448.349C167.536 447.17 155.213 448.939 146.328 454.246Z" fill="white"/>
<path d="M153.306 458.559C146.741 462.39 144.742 467.99 146.741 473L151.308 472.705C149.31 468.579 151.023 463.864 156.447 460.622C161.87 457.38 169.578 456.202 176.429 457.38L177 454.433C169.007 453.254 159.872 454.433 153.306 458.559Z" fill="white"/>
<path d="M160.499 462.733C156.193 465.423 155.045 469.011 156.767 472L161.647 471.701C160.212 469.31 160.786 466.619 163.944 464.825C167.101 463.032 171.694 462.434 175.426 463.331L176 460.341C170.546 459.444 164.518 460.341 160.499 462.733Z" fill="white"/>
<path d="M168.304 466.867C166.913 467.723 166.635 469.148 167.47 470.289C167.748 470.574 168.026 470.859 168.583 471.145C170.53 472.285 173.591 472.285 175.539 471.145C177.487 470.004 177.487 468.008 175.539 466.867C174.983 466.582 174.704 466.297 174.148 466.297C172.2 465.726 169.974 466.012 168.304 466.867Z" fill="white"/>
</g>
</svg>
