<svg width="19" height="19" viewBox="0 0 19 19" fill="none" xmlns="http://www.w3.org/2000/svg">
<g clip-path="url(#clip0_399_1678)">
<path d="M18.8269 17.9859L13.0769 12.1796C14.1486 10.8913 14.7945 9.23395 14.7945 7.42422C14.7945 3.32397 11.4826 0 7.39725 0C3.3119 0 0 3.32397 0 7.42422C0 11.5245 3.3119 14.8484 7.39725 14.8484C9.25337 14.8484 10.9488 14.1607 12.2478 13.0268L17.9898 18.826C18.2209 19.058 18.5958 19.058 18.8269 18.826C19.0577 18.5941 19.0577 18.2181 18.8269 17.9859H18.8269ZM7.39725 13.6704C3.96019 13.6704 1.1738 10.8738 1.1738 7.42422C1.1738 3.97463 3.96019 1.17807 7.39725 1.17807C10.8343 1.17807 13.6207 3.97463 13.6207 7.42422C13.6207 10.8738 10.8343 13.6704 7.39725 13.6704Z" fill="white"/>
</g>
<defs>
<clipPath id="clip0_399_1678">
<rect width="19" height="19" fill="white"/>
</clipPath>
</defs>
</svg>
