<svg width="105" height="105" viewBox="0 0 180 180" fill="none" xmlns="http://www.w3.org/2000/svg">
<g clip-path="url(#clip0_317_5439)">
<path d="M129.36 38.0187C123.429 38.1902 117.712 40.3423 113.06 44.1559C111.106 45.7586 109.238 47.8356 107.786 50.0332C105.462 53.544 103.986 57.6095 103.511 61.8118C103.326 63.468 103.299 65.4351 103.444 67.1557C103.967 73.3786 106.66 79.213 111.066 83.6752C116.134 88.8047 122.957 91.6536 130.172 91.6536C134.438 91.6536 138.515 90.678 142.331 88.7458C147.069 86.3472 151.065 82.488 153.651 77.814C156.315 72.9981 157.468 67.1825 156.816 61.8252C156.736 61.1739 156.559 60.0644 156.438 59.4534C155.144 52.949 151.29 46.978 145.869 43.0786C145.156 42.5667 144.271 41.9985 143.449 41.5268C139.238 39.1122 134.275 37.8767 129.36 38.0187Z" fill="white"/>
<path d="M75.8258 44.7187C74.4 44.7938 72.8617 45.0162 71.6182 45.3298C66.3225 46.6564 61.678 50.2342 59.0275 55.0233C57.5642 57.6685 56.787 60.2815 56.5244 63.4466C56.4574 64.2747 56.4869 65.9765 56.586 66.9306C57.1327 72.1619 59.6787 76.927 63.739 80.3172C66.8102 82.8819 70.5542 84.4497 74.5796 84.8571C75.9812 84.9991 77.6857 84.9804 79.1222 84.8062C80.8132 84.5998 82.5231 84.1576 84.1391 83.5091C87.993 81.9654 91.4019 79.1246 93.6129 75.6138C94.2534 74.5981 94.9208 73.2795 95.3549 72.1753C97.0406 67.8766 97.172 62.9534 95.7194 58.5154C94.3928 54.4632 91.7476 50.8881 88.2342 48.393C87.0014 47.5166 85.4657 46.6912 83.9998 46.1123C81.6226 45.177 79.0337 44.6866 76.5628 44.7053C76.2385 44.708 75.9062 44.7134 75.8258 44.7187Z" fill="white"/>
<path d="M35.6253 51.416C35.5744 51.4213 35.3814 51.4401 35.1965 51.4535C33.3848 51.6089 31.4257 52.228 29.7829 53.166C26.2667 55.1733 23.8762 58.5877 23.2062 62.5621C22.8256 64.816 22.9971 66.9868 23.7288 69.179C24.6453 71.9233 26.524 74.3729 28.9521 75.9943C30.7986 77.2297 32.747 77.9346 35.0089 78.1892C35.5127 78.2481 36.8152 78.2669 37.3807 78.2294C39.5408 78.0766 41.6044 77.4361 43.3705 76.3641C46.557 74.4318 48.8806 71.1327 49.6256 67.4799C49.9499 65.8799 49.9606 64.0736 49.6524 62.4013C49.3201 60.595 48.5617 58.7672 47.4977 57.2075C46.2247 55.3395 44.4854 53.8333 42.4191 52.8069C40.9907 52.0994 39.4523 51.6491 37.8202 51.4642C37.4584 51.424 35.8692 51.3892 35.6253 51.416Z" fill="white"/>
<path d="M123.678 103.676C122.552 103.764 121.665 103.933 120.81 104.223C119.885 104.539 119.223 104.863 118.385 105.415C117.792 105.804 117.339 106.176 116.817 106.702C116.01 107.506 115.458 108.278 114.994 109.242C114.33 110.628 114.043 111.898 114.043 113.463C114.043 116.119 115.069 118.628 116.873 120.383C118.103 121.578 119.58 122.436 121.241 122.916C122.954 123.412 124.803 123.484 126.583 123.127C128.175 122.806 129.654 122.141 130.865 121.195C132.886 119.622 134.132 117.526 134.542 115.01C134.633 114.452 134.66 113.973 134.644 113.246C134.628 112.531 134.566 111.995 134.424 111.333C133.824 108.559 131.873 106.096 129.239 104.786C128.07 104.204 127.006 103.888 125.661 103.724C125.328 103.684 123.991 103.652 123.678 103.676ZM124.884 107.305C126.317 107.463 127.62 108.077 128.665 109.082C129.533 109.918 130.088 110.888 130.407 112.137C130.782 113.608 130.495 115.288 129.63 116.712C129.118 117.553 128.346 118.33 127.523 118.837C126.902 119.217 125.966 119.55 125.152 119.676C124.752 119.737 123.97 119.737 123.57 119.676C121.491 119.351 119.666 118.046 118.762 116.229C118.417 115.53 118.221 114.817 118.141 113.935C117.961 111.955 118.977 109.776 120.681 108.495C121.402 107.951 122.281 107.573 123.276 107.374C123.739 107.281 124.409 107.254 124.884 107.305Z" fill="white"/>
<path d="M39.5395 105.882V107.68L39.8156 107.685C39.9657 107.688 41.7237 107.693 43.7203 107.693C48.3675 107.696 48.5685 107.707 49.1259 107.975C50.0451 108.42 50.6455 109.393 50.7553 110.62L50.7741 110.816H47.1266C44.7977 110.816 43.3827 110.826 43.2165 110.842C41.4423 111.033 39.77 112.073 38.7221 113.643C37.8538 114.943 37.5215 116.714 37.8431 118.32C38.1031 119.617 38.8079 120.86 39.7754 121.731C40.7643 122.618 41.7505 123.071 43.2245 123.312C43.5569 123.366 43.6855 123.369 45.8509 123.379C48.5738 123.39 49.1286 123.363 49.9594 123.181C51.4495 122.851 52.8377 121.879 53.7328 120.539C54.2152 119.815 54.5234 119.022 54.6708 118.132C54.711 117.88 54.7191 117.542 54.7271 114.996C54.7405 111.735 54.7057 109.502 54.644 109.167C54.368 107.731 53.6256 106.482 52.4705 105.515C51.7603 104.92 50.7366 104.41 49.8977 104.236C49.2921 104.11 49.3966 104.113 44.3314 104.097L39.5395 104.081V105.882ZM50.7017 115.741C50.7017 117.191 50.691 117.296 50.5356 117.797C50.2971 118.553 49.8066 119.129 49.1286 119.443C48.6381 119.67 48.2576 119.727 47.2981 119.713C46.4781 119.7 45.8107 119.702 44.9933 119.716C44.3448 119.727 44.0768 119.692 43.6158 119.536C42.9271 119.306 42.4875 118.947 42.174 118.36C41.8845 117.816 41.8095 117.558 41.8122 117.087C41.8149 116.229 42.2999 115.356 43.0557 114.854C43.4577 114.586 43.8007 114.468 44.2697 114.436C44.4332 114.423 45.9447 114.412 47.6331 114.412L50.7017 114.407V115.741Z" fill="white"/>
<path d="M57.838 113.461C57.8326 118.617 57.8326 122.841 57.838 122.849C57.8434 122.857 58.7706 122.865 59.8962 122.87L61.9438 122.878V118.898V114.921L62.1206 114.902C62.4074 114.87 63.7983 114.908 64.1253 114.953C65.1008 115.093 65.945 115.385 66.5668 115.798C67.277 116.272 67.6173 116.543 68.0059 116.947C68.9412 117.923 69.5871 119.292 69.8096 120.78C69.9007 121.401 69.9194 122.037 69.8605 122.696L69.8417 122.875L71.849 122.87L73.8564 122.862L73.8644 122.272C73.8912 120.426 73.5026 118.644 72.7227 117.033C72.243 116.041 71.6695 115.235 70.895 114.458C70.3804 113.94 70.1419 113.742 69.63 113.396C69.4397 113.268 69.287 113.158 69.2896 113.15C69.2896 113.142 69.3808 113.069 69.4933 112.989C70.233 112.461 71.0343 111.652 71.5837 110.88C72.3984 109.738 72.9907 108.382 73.2936 106.98C73.4544 106.225 73.5187 105.651 73.5401 104.796L73.5562 104.124L72.4628 104.107C71.8598 104.097 70.9378 104.089 70.4126 104.089H69.4558L69.4397 104.55C69.3781 106.262 68.8582 107.76 67.9202 108.939C67.695 109.221 67.1698 109.735 66.9018 109.934C66.0066 110.601 65.2428 110.939 64.2084 111.124C63.6777 111.217 63.3106 111.244 62.5816 111.244H61.9438V107.685V104.124L61.4024 104.107C61.1022 104.097 60.1803 104.089 59.3549 104.089H57.8487L57.838 113.461Z" fill="white"/>
<path d="M77.4781 104.938C77.454 106.013 77.454 106.873 77.4781 107.34L77.4942 107.704L81.3293 107.699C86.1827 107.693 86.3971 107.701 86.9707 107.943C87.7613 108.275 88.3911 109.103 88.6028 110.092C88.6537 110.333 88.7073 110.783 88.6859 110.794C88.6805 110.797 86.9626 110.807 84.8695 110.816C80.7102 110.834 81.0157 110.824 80.3269 110.992C79.4452 111.209 78.5206 111.695 77.7863 112.327C76.6259 113.329 75.8513 114.836 75.6879 116.414C75.6423 116.843 75.6718 117.708 75.7415 118.119C75.9773 119.491 76.5803 120.64 77.5558 121.592C78.5153 122.524 79.74 123.111 81.1577 123.323C81.3909 123.358 81.8224 123.369 83.6367 123.377C86.1077 123.39 86.9117 123.369 87.5227 123.264C89.187 122.983 90.7629 121.94 91.6955 120.504C92.2422 119.665 92.5209 118.826 92.6737 117.569C92.7085 117.29 92.7166 116.693 92.7273 114.058C92.7407 110.322 92.7273 109.958 92.5317 108.993C92.1672 107.179 90.8969 105.568 89.1575 104.719C88.5894 104.44 88.1365 104.292 87.5227 104.18C87.1422 104.11 85.8772 104.091 81.4901 104.091L77.4942 104.089L77.4781 104.938ZM88.6215 114.613C88.6108 114.728 88.6162 115.179 88.6323 115.613C88.6832 117.06 88.5974 117.69 88.2624 118.33C87.8738 119.081 87.1663 119.534 86.1399 119.692C85.9791 119.716 85.6789 119.721 85.0839 119.713C84.1084 119.7 83.2749 119.702 82.6585 119.716C82.3021 119.724 82.1735 119.716 81.9885 119.676C81.1738 119.499 80.5065 119.048 80.1179 118.413C80.008 118.236 79.8579 117.84 79.7909 117.561C79.732 117.315 79.7213 116.926 79.7668 116.669C79.8606 116.127 80.1527 115.597 80.5842 115.184C81.072 114.718 81.5892 114.479 82.2163 114.436C82.3798 114.423 83.8887 114.412 85.5744 114.412L88.6376 114.407L88.6215 114.613Z" fill="white"/>
<path d="M95.7637 113.482V122.875H99.7301C104.08 122.875 104.077 122.875 104.876 122.715C108.282 122.031 111.16 119.303 112.013 115.948C112.24 115.055 112.299 114.61 112.318 113.696C112.331 112.927 112.302 112.488 112.192 111.855C111.849 109.894 110.871 108.058 109.437 106.688C108.121 105.429 106.366 104.542 104.581 104.236C103.812 104.102 103.962 104.107 99.7381 104.097L95.7637 104.086V113.482ZM102.236 107.707C103.723 107.787 104.653 108.055 105.589 108.666C107.159 109.695 108.137 111.402 108.242 113.294C108.287 114.139 108.065 115.144 107.649 115.985C107.055 117.18 106.133 118.11 104.969 118.681C103.927 119.196 103.075 119.322 100.877 119.29L99.8641 119.276V113.493V107.709L100.113 107.699C100.695 107.68 101.788 107.683 102.236 107.707Z" fill="white"/>
<path d="M71.376 126.673C70.8453 126.697 70.513 126.738 70.3013 126.805C69.0792 127.188 68.1493 128.268 67.8893 129.613C67.8411 129.86 67.8357 130.037 67.8223 131.602C67.8062 133.443 67.8169 133.7 67.9322 134.282C68.1948 135.595 68.972 136.517 70.178 136.943C71.0035 137.235 71.6949 137.291 73.5441 137.227C74.265 137.2 74.9243 137.192 75.1494 137.203L75.53 137.222V136.19V135.158L75.4308 135.139C75.3745 135.131 74.6536 135.131 73.8282 135.142C71.5314 135.166 71.1321 135.118 70.7408 134.764C70.4728 134.52 70.2557 134.116 70.1351 133.631C70.1057 133.507 70.0869 133.4 70.0949 133.392C70.103 133.384 71.0919 133.376 72.2899 133.371C74.6643 133.363 74.5518 133.371 75.0369 133.207C75.7524 132.966 76.4519 132.39 76.8539 131.712C77.0147 131.441 77.1273 131.173 77.2103 130.862C77.3015 130.522 77.3283 129.798 77.2639 129.428C77.0415 128.155 76.0821 127.081 74.8921 126.77C74.6617 126.711 74.5518 126.7 73.9086 126.681C73.2332 126.66 71.7726 126.654 71.376 126.673ZM73.4155 128.664C74.0533 128.729 74.4955 128.941 74.7796 129.318C74.9136 129.495 74.9672 129.678 74.9672 129.964C74.9672 130.364 74.8332 130.699 74.5652 130.967C74.332 131.197 74.2516 131.227 73.7478 131.261C73.5093 131.277 72.6115 131.291 71.7324 131.291H70.1432L70.1271 131.221C70.1164 131.184 70.1164 130.945 70.1244 130.693C70.1405 130.2 70.1807 129.983 70.3201 129.653C70.5264 129.16 70.915 128.82 71.3653 128.742C71.5368 128.713 72.5364 128.646 72.9063 128.64C73.0349 128.64 73.2627 128.651 73.4155 128.664Z" fill="white"/>
<path d="M92.2253 126.684C90.9737 126.826 89.9982 127.474 89.4729 128.517C89.2639 128.93 89.1299 129.358 89.0656 129.83C89.0495 129.935 89.0361 130.8 89.0361 131.8C89.0307 133.732 89.0441 133.957 89.1808 134.523C89.3497 135.214 89.6177 135.683 90.1188 136.163C90.7567 136.771 91.5124 137.096 92.5737 137.211C93.0856 137.267 93.576 137.27 94.7177 137.227C95.4199 137.2 96.0416 137.192 96.2801 137.203L96.6741 137.222V136.184V135.15L96.4811 135.145C96.3739 135.145 95.6879 135.145 94.9589 135.147C93.4661 135.155 92.7211 135.123 92.4585 135.043C91.9948 134.895 91.633 134.533 91.4481 134.032C91.3704 133.818 91.2953 133.416 91.3275 133.386C91.3382 133.376 92.0779 133.37 92.9703 133.376C94.8222 133.384 95.7147 133.357 96.047 133.274C96.5642 133.151 97.0627 132.861 97.4808 132.446C97.8908 132.033 98.1776 131.561 98.3571 130.993C98.4724 130.626 98.5072 130.385 98.5045 129.977C98.4938 129.039 98.1347 128.206 97.4674 127.571C97.0225 127.15 96.5267 126.877 95.9398 126.732C95.7361 126.681 95.6128 126.678 94.0745 126.67C93.1687 126.665 92.3352 126.67 92.2253 126.684ZM94.4899 128.691C94.8731 128.718 95.243 128.761 95.3127 128.782C95.578 128.863 95.8272 129.069 95.9853 129.337C96.0765 129.492 96.1649 129.833 96.1649 130.034C96.1649 130.511 95.9157 130.956 95.5431 131.146C95.318 131.261 95.0527 131.275 93.1419 131.277H91.3918L91.3865 130.621C91.3811 129.905 91.3999 129.782 91.5473 129.527C91.6625 129.326 91.9787 129.037 92.2146 128.914C92.7345 128.643 93.2142 128.595 94.4899 128.691Z" fill="white"/>
<path d="M114.512 126.673C114.136 126.716 113.793 126.775 113.563 126.829C112.405 127.11 111.247 127.893 110.543 128.868C110.213 129.324 109.886 130.061 109.731 130.688C109.382 132.105 109.626 133.738 110.363 134.936C111.802 137.27 115.217 138.111 117.915 136.798C118.502 136.514 118.944 136.195 119.379 135.75C119.789 135.327 120.046 134.954 120.295 134.426C121.003 132.931 120.997 131.092 120.284 129.602C119.502 127.973 118.012 126.957 116.018 126.695C115.731 126.657 114.758 126.644 114.512 126.673ZM115.905 128.809C116.532 128.967 117.02 129.238 117.484 129.68C118.006 130.184 118.293 130.701 118.441 131.411C118.591 132.143 118.465 132.923 118.084 133.585C117.583 134.461 116.733 135.099 115.849 135.265C114.445 135.531 113.153 134.957 112.378 133.73C111.604 132.505 111.741 130.996 112.721 129.862C113.228 129.281 113.885 128.906 114.656 128.758C114.97 128.699 115.565 128.723 115.905 128.809Z" fill="white"/>
<path d="M62.2852 126.834L57.8418 126.842V127.871V128.9L58.2572 128.919C58.485 128.93 59.2354 128.935 59.9268 128.93L61.1784 128.919L61.1864 133.068L61.1918 137.214H62.3174H63.443V133.073V128.932H65.118H66.793V127.874C66.793 127.04 66.785 126.818 66.7608 126.82C66.7421 126.826 64.7267 126.831 62.2852 126.834Z" fill="white"/>
<path d="M83.4225 126.861C82.0503 126.936 80.839 127.474 79.8822 128.434C79.1265 129.192 78.6494 130.079 78.4806 131.036C78.3037 132.055 78.2823 132.548 78.3037 135.059L78.3251 137.206L79.1452 137.222C79.5955 137.232 80.1181 137.24 80.3057 137.24H80.646L80.6567 134.499C80.6701 131.545 80.6648 131.636 80.8122 131.184C80.8926 130.94 81.107 130.532 81.2624 130.326C81.5733 129.913 82.1441 129.458 82.6131 129.241C83.1384 129.002 83.6985 128.879 84.2479 128.879C84.4275 128.879 84.6205 128.887 84.6767 128.895L84.7759 128.914V133.062V137.214H85.9417H87.1075V132.028V126.842L85.3467 126.847C84.3766 126.85 83.5109 126.855 83.4225 126.861Z" fill="white"/>
<path d="M99.9507 132.033L99.9587 137.227L101.111 137.216C101.746 137.211 102.269 137.2 102.277 137.195C102.285 137.187 102.293 136.225 102.298 135.053L102.306 132.926H102.593C103.502 132.928 104.402 133.199 105.011 133.652C105.983 134.378 106.434 135.37 106.439 136.801L106.442 137.208L107.597 137.219C108.229 137.224 108.754 137.224 108.763 137.219C108.792 137.197 108.792 136.377 108.763 136.088C108.599 134.448 107.776 132.912 106.562 131.982L106.385 131.845L106.694 131.548C107.53 130.739 108.098 129.763 108.371 128.667C108.503 128.147 108.572 127.445 108.535 127.046L108.516 126.842H107.412H106.305L106.289 127.236C106.27 127.67 106.219 127.941 106.083 128.329C105.589 129.718 104.381 130.717 102.987 130.886C102.856 130.902 102.647 130.916 102.526 130.916H102.304V129.219C102.304 128.289 102.296 127.373 102.285 127.182L102.269 126.842H101.106H99.9453L99.9507 132.033Z" fill="white"/>
<path d="M122.375 126.866L122.094 126.882V127.665C122.094 128.096 122.096 130.422 122.102 132.832L122.107 137.214H123.273H124.439V134.18C124.439 132.317 124.449 131.157 124.463 131.17C124.492 131.2 125.717 133.328 126.181 134.148L126.484 134.686L127.234 134.705C127.647 134.716 127.992 134.713 128.006 134.702C128.017 134.692 128.373 134.078 128.799 133.341C129.748 131.701 130.048 131.186 130.067 131.186C130.075 131.184 130.075 132.54 130.072 134.193L130.061 137.206L131.225 137.222C131.862 137.23 132.388 137.235 132.388 137.232C132.39 137.23 132.398 134.89 132.404 132.033L132.417 126.842H131.262H130.107L129.962 127.091C129.885 127.225 129.509 127.879 129.134 128.544C128.759 129.206 128.309 129.986 128.137 130.272C127.789 130.854 127.261 131.685 127.226 131.706C127.213 131.714 127.135 131.596 127.049 131.446C126.827 131.044 125.948 129.514 125.345 128.477C125.058 127.984 124.731 127.413 124.616 127.209L124.407 126.842L123.53 126.847C123.051 126.85 122.531 126.858 122.375 126.866Z" fill="white"/>
</g>
<defs>
<clipPath id="clip0_317_5439">
<rect width="134" height="99.428" fill="white" transform="translate(23 38)"/>
</clipPath>
</defs>
</svg>
