<svg width="180" height="180" viewBox="0 0 180 180" fill="none" xmlns="http://www.w3.org/2000/svg">
<path fill-rule="evenodd" clip-rule="evenodd" d="M71.137 148.471C70.1953 148.448 69.8949 148.133 69.3737 147.745C68.137 146.825 68.7462 145.304 68.3365 143.492C68.1291 142.593 67.9217 141.695 67.7142 140.795H67.5068C66.6713 141.846 64.7784 141.967 63.0467 141.833V143.078C64.5595 143.755 65.4973 145.909 64.1877 147.641C63.4323 148.641 58.0595 148.793 56.2011 148.367C55.634 148.237 55.272 148.395 54.8527 148.16C54.1216 147.75 53.3013 146.318 53.7119 144.841C53.8887 144.204 54.3587 143.615 54.8527 143.285C54.9995 143.187 55.2898 143.225 55.3714 143.078V135.298C55.5236 135.047 55.3716 134.628 55.475 134.261C55.6751 133.551 56.1994 132.747 56.616 132.187C58.5963 129.523 63.7672 128.508 67.1956 130.631C68.0309 131.148 68.8799 132.057 69.3737 132.912C69.6925 133.465 69.4868 134.096 70.0998 134.365C70.5641 134.649 71.4563 134.298 72.0705 134.468C73.0498 134.74 73.317 135.825 74.2486 136.024C74.8586 135.078 76.7909 133.777 78.7087 134.261C79.3445 134.422 79.7586 134.856 80.3683 134.987C80.6852 134.638 81.2693 134.135 81.7167 133.95C83.3795 133.263 85.5069 134.412 86.5915 135.091C87.0613 135.385 87.3014 135.881 87.9399 136.024C88.8703 134.2 91.1127 133.25 93.4371 134.261C93.9367 134.478 94.7845 135.492 95.5116 135.298C95.8491 135.208 96.2059 134.712 96.5486 134.572C97.2089 134.303 98.5048 134.446 99.3492 134.468C100.235 134.492 100.609 135.433 101.527 135.091C101.787 134.994 102.174 134.586 102.461 134.468C103.2 134.165 104.626 134.161 105.365 134.468C105.797 134.648 106.464 135.132 106.713 135.506C106.955 135.866 106.855 136.313 107.232 136.543V136.439C107.759 135.905 107.981 135.03 108.684 134.676C109.728 134.149 112.764 134.351 113.559 134.883C114.112 135.253 114.32 136.382 114.907 136.543C116.33 134.074 118.811 134.468 122.583 134.468C124.237 134.468 125.912 134.375 126.628 135.298C126.961 135.728 127.428 136.731 127.25 137.58C126.658 140.411 128.011 146.791 126.109 148.056C125.339 148.569 122.983 148.705 121.96 148.264C121.453 148.045 121.396 147.702 120.612 147.641C119.359 149.194 115.564 147.937 112.937 148.367C112.726 148.402 111.858 148.415 111.485 148.264C111.28 148.181 111.047 147.815 110.758 147.849C110.348 147.897 109.608 148.446 109.099 148.575C107.895 148.879 106.963 148.243 106.299 148.056C105.739 147.899 105.404 148.373 105.054 148.471H102.046C101.426 148.296 101.232 147.887 100.386 147.849C99.8405 148.638 97.1068 148.735 96.1339 148.16C95.7185 147.914 95.3248 147.24 94.9929 147.226C94.3996 147.8 93.725 148.551 92.9184 148.886C90.4729 149.901 88.2511 147.638 87.525 146.189C87.3429 146.255 87.4241 146.209 87.3174 146.293C86.6191 146.983 86.0929 147.942 85.2431 148.471C80.8556 151.202 78.617 145.34 77.5677 142.455H77.4639V142.974C77.1343 143.527 77.2835 144.682 77.2565 145.463C77.2372 146.025 77.011 146.75 77.1527 147.434C77.4272 148.758 77.9961 151.335 77.2565 152.516C76.4985 153.727 73.1956 154.733 71.7594 153.346C70.6418 152.267 71.0634 150.292 71.137 148.471ZM56.0975 150.131C59.8077 150.036 61.549 150.963 60.5574 154.383C60.2924 155.298 60.5006 156.126 60.0389 156.769C58.6938 158.642 57.5339 157.073 55.9937 157.703V157.91C56.764 158.112 57.8449 158.888 58.2756 159.466C58.5106 159.781 58.5334 160.105 58.8979 160.296C59.2005 157.836 62.6 153.253 66.0546 154.695C66.8299 155.018 68.0538 155.812 68.544 156.458C68.9278 156.964 69.327 157.819 69.996 158.014V157.91H70.0998C70.0653 154.411 74.0468 154.92 76.4269 155.732C77.0132 154.99 80.1605 154.754 81.3017 155.317C81.8908 155.607 81.9076 156.17 82.7537 156.25C83.9917 154.641 87.619 155.11 90.4291 155.109C91.6762 155.109 93.0178 155.006 93.7482 155.524C94.1277 155.793 94.6358 156.502 94.7855 156.976C95.0182 157.713 94.5526 158.375 94.8891 158.947C95.2201 158.606 95.6469 158.412 95.8227 157.91C95.4134 157.276 96.0484 156.453 96.3412 156.147C96.9119 155.549 97.5825 154.909 98.9343 155.109C99.1381 155.14 99.5161 155.282 99.8677 155.213C100.274 155.134 100.95 155.039 101.424 155.213C102.117 155.468 102.318 156.293 102.979 156.562C103.627 155.551 105.654 154.57 107.751 155.109C108.402 155.277 108.703 155.74 109.41 155.835C109.867 155.242 112.224 154.735 113.559 155.109C113.823 155.184 114.192 155.573 114.389 155.628C114.789 155.741 115.083 155.295 115.322 155.213C115.903 155.014 117.398 154.927 118.123 155.109C118.83 155.287 119.217 155.796 119.886 155.939C120.397 155.206 122.32 154.73 123.827 155.109C124.399 155.253 125.14 156.012 125.798 155.835C126.144 155.743 126.56 155.321 126.939 155.213C127.838 155.178 128.737 155.144 129.636 155.109C132.07 155.109 135.484 154.677 136.481 156.147C136.904 156.77 137.155 158.604 136.896 159.777C136.218 162.856 137.963 167.593 135.444 168.905C134.9 169.188 132.978 169.349 132.125 169.112C131.456 168.926 131.19 168.455 130.362 168.386C129.726 169.042 127.643 169.475 126.109 169.112C125.704 169.016 125.23 168.674 124.657 168.801C123.949 168.957 122.557 169.393 121.442 169.112C120.704 168.926 120.348 168.383 119.575 168.282C119.084 168.977 117.199 169.51 115.737 169.112C115.358 169.009 114.861 168.516 114.389 168.594C114.061 168.647 113.583 169.022 113.248 169.112C112.519 169.308 111.04 169.191 110.447 169.008C110.089 168.898 109.701 168.493 109.41 168.386C108.661 168.11 107.803 168.97 107.232 169.112C106.18 169.374 104.592 168.699 104.12 168.801C103.392 168.959 101.46 169.476 100.283 169.112C99.991 169.022 99.5167 168.543 99.1416 168.594C98.9197 168.623 98.5278 169.031 98.3119 169.112C97.7716 169.315 96.6001 169.514 95.8227 169.32C95.2129 169.167 94.5707 168.579 94.0594 168.49C93.6125 168.412 92.9433 169.003 92.5036 169.112C91.6165 169.332 89.7742 169.196 89.1845 168.905C88.8549 168.742 88.7324 168.48 88.2511 168.386C87.5424 169.321 85.3174 169.22 83.9985 168.905C83.5678 168.801 83.3648 169.057 83.1686 169.112C81.6083 169.552 79.4267 168.889 78.8123 168.282C78.2614 168.485 77.8961 168.953 77.2565 169.112C75.5687 169.533 74.0923 168.762 73.1078 168.49C72.5807 169.174 70.0622 169.454 68.8552 169.008C68.471 168.866 67.9601 168.28 67.7142 168.386C66.8166 168.708 66.2674 169.561 65.2249 169.838C63.2206 170.37 62.3949 168.65 61.1797 168.386C60.463 169.448 58.0485 169.112 56.3049 169.112H45.7253C44.8798 168.844 44.6054 168.123 44.0657 167.556C43.9916 166.494 43.8795 165.388 44.3769 164.652C44.584 164.346 45.5625 163.907 45.6215 163.822V155.732C43.8598 154.954 43.7554 153.539 44.2733 151.479C44.7428 151.166 45.044 150.65 45.6215 150.442C46.8341 150.005 49.719 150.338 51.2224 150.338C52.0693 150.338 52.9094 150.284 53.5043 150.546C53.6973 150.63 53.8128 150.886 54.023 150.96C54.2171 151.029 54.1002 151.106 54.2304 150.96C54.7537 150.729 55.6162 150.489 56.0975 150.131Z" fill="white" fill-opacity="0.15" stroke="white" stroke-width="0.975596" stroke-linejoin="round"/>
<path fill-rule="evenodd" clip-rule="evenodd" d="M62.3196 145.36V146.189H55.7852C55.7175 145.995 55.6864 145.783 55.6814 145.463C55.7505 145.429 55.8197 145.394 55.8888 145.36C56.0216 145.272 57.0286 145.454 57.341 145.256C57.6816 144.709 57.4446 143.125 57.4446 142.352V134.78C58.1281 133.991 58.4019 133.063 59.3117 132.498C61.5973 131.078 65.6894 131.603 66.9869 133.535C68.5115 135.805 67.0307 139.087 64.9126 139.655C63.5387 140.023 62.8608 139.146 61.9047 139.032C61.6297 139.59 61.1053 140.277 60.6601 140.692V145.256C61.0601 145.393 61.761 145.367 62.3196 145.36ZM62.1121 132.498C62.0228 132.565 61.786 132.637 61.6973 132.705C60.1449 133.251 60.6306 137.248 60.6601 139.344H60.7637C61.0551 138.843 61.4632 138.044 62.2158 137.995C62.4929 138.256 62.7566 138.185 63.1493 138.099C64.2681 136.444 64.0053 135.03 63.4604 133.016C63.0495 132.778 62.724 132.575 62.1121 132.498ZM82.5452 136.024C84.2375 135.995 85.414 136.947 86.2792 137.788C86.2136 137.97 86.2591 137.889 86.1754 137.995C86.0154 138.514 85.1741 139.642 84.6197 139.758C84.0729 138.912 83.1478 138.05 81.9229 137.891V138.099C81.5851 138.523 81.5735 139.476 81.7155 140.07C82.1087 141.714 82.5292 143.073 83.6862 143.907C83.9322 144.085 84.1997 144.125 84.4121 144.322C84.5941 144.257 84.513 144.302 84.6197 144.218C85.0483 143.921 85.4167 143.353 85.6569 142.87H85.8643C86.1026 143.172 86.2848 143.11 86.3828 143.596C85.3252 144.734 84.9416 146.836 82.8563 146.915C82.4036 146.496 81.7743 146.273 81.4041 145.774C80.1323 144.059 78.9486 141.152 80.2633 138.618C80.829 137.527 81.7251 136.851 82.5452 136.024ZM91.0503 136.024C92.1461 135.994 94.3298 136.985 94.5768 137.684C94.66 137.806 94.6571 137.858 94.6806 138.099C94.1236 138.555 93.8671 139.632 93.021 139.758C92.7283 139.145 91.2672 137.588 90.428 137.995C90.0602 138.455 90.0488 139.6 90.2206 140.277C90.866 142.821 91.3197 142.858 92.9172 144.322C93.0993 144.257 93.0181 144.302 93.1248 144.218C93.5408 143.9 93.8918 143.329 94.162 142.87H94.3694C94.5085 143.054 94.6878 143.166 94.8879 143.285C94.8225 143.467 94.868 143.386 94.7843 143.492C94.4946 144.683 92.7649 146.865 91.3615 146.915C90.873 146.463 90.2046 146.209 89.8057 145.671C88.6804 144.152 87.4966 141.492 88.5611 139.032C89.1309 137.716 90.0905 136.942 91.0503 136.024ZM78.2926 139.551C77.5001 139.496 77.5034 139.151 76.5293 139.136C76.2393 139.518 75.7997 139.798 75.5958 140.277C74.8641 141.995 74.8697 144.331 74.8697 146.708V148.471C75.07 149.381 75.3596 150.515 75.1809 151.479C75.0686 151.573 75.1722 151.471 75.0773 151.583C74.4303 151.663 73.8013 151.796 73.2102 151.687C73.0472 151.208 73.0987 150.359 73.1066 149.716C73.2793 148.575 73.4521 147.434 73.6251 146.293C73.0672 146.103 72.0723 146.181 71.3433 146.189C71.1963 146.289 71.0037 146.29 70.721 146.293V146.189H70.6172C70.4272 144.196 70.3747 142.266 69.8913 140.484C69.5749 139.319 68.9796 138.123 68.854 136.854C68.9576 136.82 69.0613 136.785 69.1652 136.75C69.5289 136.523 70.7743 136.734 71.447 136.75C72.3083 138.354 72.3434 140.943 72.7954 142.87C72.9731 143.627 72.7213 144.762 73.1066 145.36C73.2673 145.468 73.5303 145.466 73.8327 145.463C74.1594 141.749 74.5476 136.181 78.6038 136.543C78.6712 136.673 78.7167 136.758 78.8111 136.854C78.6067 137.764 78.3011 138.295 78.2926 139.551ZM104.327 139.344C104.154 139.378 103.981 139.413 103.808 139.447C103.594 139.096 103.416 138.874 102.875 138.825C102.156 138.443 100.304 140.583 100.178 141.314C102.278 141.567 104.882 143.788 104.949 146.086C104.611 146.267 104.196 146.304 103.601 146.293C103.35 146.144 102.748 146.275 102.252 146.293C102.218 146.189 102.183 146.086 102.148 145.982C101.803 145.507 101.874 144.691 101.63 144.115C101.178 143.046 100.399 142.319 99.348 141.833V144.53C99.5824 144.876 99.5106 145.773 99.4518 146.086H99.2443C98.8818 146.322 97.8286 146.203 97.2736 146.189C96.6824 145.175 96.5309 141.166 96.8586 139.655C97.077 138.649 96.6608 137.517 97.1698 136.854C97.5579 136.508 98.7332 136.629 99.4518 136.647C99.4863 136.75 99.5208 136.854 99.5554 136.958C99.9469 137.719 98.8256 140.055 99.348 140.899V141.003C99.4172 140.969 99.4863 140.934 99.5554 140.899C100.362 139.125 101.86 136.518 104.327 136.439C104.554 136.62 104.699 136.564 104.845 136.854C104.902 137.347 104.345 138.276 104.327 139.344ZM109.928 136.647C110.758 136.636 111.746 136.616 112.417 136.75V136.958C112.939 137.803 112.823 139.074 113.143 140.07C113.474 141.101 113.673 142.298 114.076 143.389C114.388 144.231 114.933 145.019 115.01 146.086C114.371 146.302 113.232 146.197 112.417 146.189V146.086H112.313C112.223 145.186 111.898 144.178 111.587 143.389H111.483V143.492C111.207 144.046 110.93 144.599 110.654 145.152C110.318 145.617 109.707 145.887 109.305 146.293C108.658 146.343 107.97 146.37 107.335 146.293C107.063 145.934 106.628 145.471 106.297 145.152C106.228 144.633 106.159 144.115 106.09 143.596C106.381 142.216 107.131 141.249 107.853 140.277C108.556 139.333 109.784 138.987 109.824 137.373C109.724 137.226 109.723 137.033 109.72 136.75C109.902 136.685 109.821 136.73 109.928 136.647ZM119.366 136.647C120.431 136.624 124.767 136.447 125.071 136.958C125.319 137.357 125.133 138.669 125.071 139.344C124.963 140.517 124.689 142.483 124.967 143.804C125.11 144.48 125.196 145.438 125.071 146.086H124.863C124.501 146.322 123.448 146.203 122.893 146.189C122.661 145.822 122.572 145.632 122.582 144.945C122.369 144.608 122.381 142.243 122.374 141.729H122.167C121.838 141.984 121.393 142.017 121.026 142.248C120.022 142.878 119.655 144.095 119.677 145.774C119.574 145.844 119.47 145.913 119.366 145.982C119.053 146.239 117.319 146.385 116.877 146.086C116.459 145.948 116.453 145.812 116.462 145.256C117.126 144.383 117.206 143.24 118.122 142.559C118.623 142.186 119.284 141.74 119.885 141.522C120.229 141.397 120.561 141.485 120.818 141.314C118.796 140.641 116.552 140.239 117.188 137.269L117.914 136.75C118.382 136.597 119.02 136.865 119.366 136.647ZM122.582 137.476C121.826 137.453 120.627 137.344 120.196 137.684C120.112 137.79 120.159 137.712 120.092 137.891C119.093 139.372 121.304 140.799 122.374 140.899C122.59 140.261 122.486 139.122 122.478 138.306C122.596 138.131 122.588 137.798 122.582 137.476ZM110.135 138.929C109.251 140.247 108.018 141.265 108.579 143.492C108.977 143.682 109.18 143.798 109.824 143.804C110.29 143.431 110.654 143.163 111.068 142.767C111.15 141.449 110.633 140.184 110.342 138.929H110.135ZM58.1706 166H59.3117C59.3856 166.213 59.4146 166.485 59.4153 166.83C58.1804 167.242 55.4269 166.942 53.9181 166.934C53.8373 166.702 53.8122 166.371 53.8145 166H54.5404C54.7035 165.522 54.6521 164.673 54.6442 164.03C54.3768 163.582 54.5317 162.745 54.333 162.266C53.7742 160.922 52.5996 159.883 50.9101 159.673V166H52.0512C52.1251 166.213 52.1541 166.485 52.155 166.83C50.8078 167.279 47.7762 166.942 46.1391 166.934C46.0583 166.702 46.0332 166.371 46.0353 166H47.6948V153.554H47.4875C47.3704 153.477 46.4326 153.637 46.1391 153.45H46.0353V152.62H52.2585V153.45C52.0047 153.538 51.6171 153.558 51.2213 153.554C51.0588 153.425 51.1686 153.487 51.0139 153.554C50.6289 154.164 50.8987 157.819 50.9101 158.843C51.0891 158.906 51.2371 158.936 51.5324 158.947C52.501 157.156 53.6553 153.766 55.2665 152.724C55.9847 152.259 57.6671 152.152 58.3782 152.724C58.4561 152.835 58.4405 152.822 58.4818 153.035C57.9834 153.608 58.2939 154.741 57.8595 155.421C57.7372 155.504 57.6851 155.501 57.4446 155.524C56.7963 154.981 55.8278 155 54.9553 155.213C54.1825 156.35 52.8319 157.56 52.5697 159.155H52.6735V159.258C56.1667 159.48 58.0644 162.308 58.1706 166ZM64.0828 156.665C65.0743 156.688 65.4789 157.097 66.0535 157.495C69.0257 159.556 68.333 163.292 66.4684 165.897C65.8446 166.768 65.5121 167.574 63.9792 167.556C62.8099 166.639 61.9578 166.202 61.1786 164.86C59.7208 162.347 61.4752 159.229 62.6308 157.703C62.9905 157.227 63.6487 157.068 64.0828 156.665ZM72.4843 157.392C73.0576 157.375 74.1825 157.248 74.5586 157.495C74.9544 157.625 74.9646 157.706 74.9735 158.221C75.1915 158.58 75.058 159.087 75.1809 159.57C75.5267 161.022 75.8724 162.474 76.2181 163.926C76.3306 163.832 76.2271 163.934 76.3219 163.822C76.4949 163.2 76.6677 162.578 76.8404 161.955C77.3947 160.473 77.908 159.753 77.6703 157.599C78.2359 157.301 79.3836 157.379 80.2633 157.392C80.4281 157.697 80.4786 157.985 80.4707 158.532C80.6436 159.639 80.8165 160.745 80.9894 161.852C81.198 162.59 81.4002 163.487 81.7155 164.237C82.0655 165.071 82.6085 165.654 82.649 166.83H82.4414C82.0487 167.095 80.8885 166.923 80.4707 166.83C79.8044 165.709 79.245 164.538 78.8111 163.096C78.6108 162.43 78.72 161.244 78.1888 160.918V161.126C77.1373 162.486 77.2386 164.828 76.8404 166.83C76.3885 166.985 75.5883 166.942 74.9735 166.934C74.8936 166.863 74.7421 166.798 74.6624 166.727C73.9049 165.92 73.5666 163.296 73.2102 162.059C73.0402 161.468 73.155 160.383 72.6917 160.088C72.0982 161.087 70.5972 163.2 71.0321 165.067C71.1745 165.678 71.4865 166.148 71.5506 166.83C71.046 167.002 70.1481 166.942 69.4763 166.934C69.2584 166.525 69.2561 165.861 69.2688 165.171C69.6976 164.537 69.7516 163.557 70.0986 162.889C70.7554 161.783 71.4123 160.676 72.0694 159.57C72.3274 158.945 72.1947 157.945 72.4843 157.392ZM89.9095 158.118H86.9015V158.325C86.0673 159.619 86.8698 164.909 86.9015 166.623C86.6508 166.758 86.6076 166.81 86.1754 166.83C85.6766 167.196 84.5879 166.894 84.4121 166.519C84.0839 166.091 84.3467 165.43 84.2047 164.756C83.7682 162.681 84.036 159.415 84.4121 157.599C84.5159 157.564 84.6196 157.53 84.7232 157.495C85.1405 157.234 86.2861 157.392 86.9015 157.392H92.3987C92.5149 157.608 92.5475 157.581 92.6061 157.91C92.2183 158.528 92.0452 163.076 92.2949 164.237C92.4427 164.924 92.719 166.277 92.3987 166.727C92.2517 166.826 92.0591 166.828 91.7764 166.83C91.3108 167.149 90.3917 166.833 90.0131 166.727C89.831 164.159 89.9001 160.842 89.9095 158.118ZM98.207 157.392H100.696C100.731 157.495 100.765 157.599 100.8 157.703C101.308 158.541 101.301 160.211 101.63 161.229C101.988 162.338 102.238 163.616 102.667 164.756C102.92 165.427 103.33 165.962 103.393 166.83H103.186C102.769 167.1 101.525 166.948 100.904 166.934C100.471 166.146 100.189 165.013 99.9704 164.03C99.8578 164.124 99.9616 164.022 99.8666 164.134C98.8189 165.534 99.132 166.489 97.0662 167.038C96.6776 167.141 96.1441 167.17 95.8216 166.934C94.8543 166.629 94.1357 165.056 94.5768 163.719C95.1175 162.079 96.4229 160.938 97.3773 159.673C97.6538 159.431 97.9304 159.189 98.207 158.947V158.118C98.052 157.892 98.1238 157.623 98.207 157.392ZM107.542 157.392C107.639 158.212 107.456 158.744 107.438 159.673C108.399 160.216 109.47 161.136 110.654 161.333C110.634 159.907 110.72 158.513 110.965 157.495C111.55 157.297 112.593 157.383 113.35 157.392C113.418 157.586 113.449 157.797 113.454 158.118C112.419 159.667 113.68 164.922 113.35 166.727C113.171 166.789 113.023 166.819 112.728 166.83C112.337 167.093 111.391 166.893 110.965 166.83V166.623C110.353 165.939 110.637 163.591 110.654 162.37C109.673 161.814 108.516 160.84 107.335 160.607C107.321 162.805 107.629 164.549 107.646 166.623C107.395 166.758 107.352 166.81 106.92 166.83C106.567 167.071 105.633 166.914 105.26 166.83C104.671 165.556 104.559 160.796 104.949 159.051C105.105 158.355 104.787 157.762 105.364 157.495C105.762 157.236 106.943 157.378 107.542 157.392ZM116.047 157.392H118.122C118.257 157.642 118.308 157.685 118.329 158.118C117.909 158.774 118.009 160.377 118.018 161.333H118.122C119.23 160.269 121.486 160.268 121.441 158.118C121.549 157.968 121.602 157.711 121.648 157.495H121.855C122.254 157.236 123.435 157.378 124.034 157.392C124.129 157.668 124.143 158.11 124.137 158.532C123.301 159.83 124.112 164.916 124.137 166.623C123.986 166.711 123.84 166.811 123.723 166.934C123.075 166.944 122.352 166.931 121.855 166.83C120.912 165.324 121.324 162.521 121.337 160.296H121.129C119.729 161.571 117.948 161.037 118.018 163.822C118.257 164.195 118.292 166.371 118.225 166.727C117.707 166.937 116.429 167.115 115.943 166.727C115.485 166.226 115.807 165.501 115.632 164.652C115.362 163.339 115.457 161.6 115.529 160.296C115.572 159.494 115.392 158.437 115.736 157.91C115.827 157.628 115.913 157.605 116.047 157.392ZM132.124 162.474C130.877 162.634 129.889 163.517 129.531 164.548C129.309 165.189 129.572 166.141 129.22 166.623C128.667 167.129 127.26 166.907 126.419 166.83C126.27 166.553 126.212 166.393 126.212 165.897C126.523 165.489 126.557 164.889 126.834 164.445C127.585 163.242 128.926 162.384 130.568 162.059V161.955C129.172 161.832 127.423 161.12 127.041 159.985C126.643 159.481 126.654 158.088 127.145 157.703C127.633 157.321 128.567 157.392 129.427 157.392C131.147 157.392 133.288 157.172 134.821 157.495V157.703C134.957 157.935 134.932 159.161 134.821 159.673C134.349 161.837 135.153 164.854 134.821 166.727H134.717V166.83C134.257 166.895 133.171 167.11 132.746 166.83C132.35 166.7 132.34 166.62 132.331 166.104C132.097 165.734 132.123 163.057 132.124 162.474ZM132.331 158.118C131.383 158.102 130.55 158.173 129.842 158.325V158.532C129.574 158.849 129.579 159.634 129.842 159.985C130.077 160.917 130.953 161.539 132.124 161.54V161.437H132.228C131.98 160.669 132.294 159.066 132.331 158.118ZM66.1572 164.963C66.5709 162.267 65.7454 159.14 62.7344 159.051C61.1585 161.68 63.2703 165.01 66.1572 164.963ZM98.5182 159.57C98.0314 160.297 95.954 162.535 96.8586 163.822C96.9859 164.242 97.1652 164.405 97.6885 164.445C98.4455 164.867 99.1039 163.79 99.4518 163.407C99.4855 162.493 98.9707 159.826 98.5182 159.57Z" fill="white"/>
<path fill-rule="evenodd" clip-rule="evenodd" d="M87.526 9.06663C89.9081 9.02456 91.9083 9.18507 93.5419 9.89643C94.4977 10.3127 95.2496 11.2593 96.3422 11.4523C96.8423 11.0521 97.4856 11.0254 98.2092 10.8299C101.339 9.9845 102.871 12.6691 103.395 14.8752C103.783 16.5081 103.495 18.7939 103.084 20.1651C102.884 20.8338 102.133 21.712 102.358 22.6544C102.577 23.5712 102.942 24.6888 103.188 25.6624C103.492 26.8671 103.449 28.1346 103.707 29.2927C103.81 31.2287 103.914 33.1649 104.018 35.1013C104.516 37.3084 104.782 39.2175 105.573 41.0136C106.862 43.9393 109.029 46.4196 110.345 49.4151C112.117 53.4495 113.054 57.7787 115.219 61.3433C118.514 66.7668 121.664 71.7409 123.725 78.4578C124.321 80.403 124.579 82.716 125.073 84.8886C125.177 86.0986 125.28 87.3087 125.384 88.5189C125.791 90.359 126.313 93.2947 125.799 95.4684C125.012 98.7956 123.431 101.233 122.584 104.285C122.418 104.882 122.478 105.67 122.584 106.152V107.604C122.912 109.117 123.121 111.434 122.687 112.998C121.307 117.979 117.415 118.697 112.315 119.947C111.134 120.237 108.399 120.711 106.818 120.362C104.412 119.832 102.433 119.344 101.321 117.562C100.946 116.961 100.69 116.096 100.491 115.383L100.284 114.139C100.13 113.924 99.9179 113.96 99.5576 113.931C99.169 114.522 98.5207 114.937 98.1056 115.487C96.8014 117.214 95.3926 118.767 93.2305 119.636C92.2746 120.02 91.3682 119.901 90.2228 120.155C89.2874 120.362 87.5486 120.386 86.5925 120.155C85.5908 119.913 84.4956 119.813 83.5846 119.429C82.8828 119.132 82.1112 118.632 81.5101 118.184C81.1645 117.804 80.8187 117.423 80.4728 117.043C79.7123 116.939 78.9517 116.836 78.191 116.732C77.6749 116.591 76.7564 116.056 76.1167 116.213C75.0604 116.473 73.5965 117.361 72.4864 117.769C67.2089 119.71 57.6144 121.631 55.3724 115.695C54.4921 113.364 55.3479 110.081 56.2021 108.434C56.5905 107.685 57.6383 106.813 57.3431 105.53C56.8279 103.29 56.5419 100.742 55.9947 98.4764C55.656 97.0736 55.7786 95.5751 55.476 94.2238V91.4232C55.0023 88.977 55.9839 84.6702 56.617 82.7105C57.3153 80.5487 57.5843 78.5603 58.2766 76.4871C59.7817 71.9792 61.4817 67.5303 63.2552 63.2105C63.769 61.9588 63.9244 60.7507 64.3961 59.4764C66.3298 54.2518 67.595 48.6116 68.9598 42.7769C69.2443 41.5603 69.1007 39.8437 68.8562 38.7315V33.4417C69.3409 31.2026 69.0305 28.6493 69.1673 26.1811C69.2132 25.3522 69.51 23.9347 69.2709 22.9656C68.5378 19.9933 66.7018 16.4515 68.8562 13.423C69.9084 11.944 72.2448 10.0032 75.0795 10.7262C75.6785 10.879 77.2843 11.7527 77.7762 11.6597C78.4583 11.5309 79.2913 10.893 79.9543 10.6225L83.7919 9.58526L87.526 9.06663Z" fill="white" fill-opacity="0.15" stroke="white" stroke-width="0.975596" stroke-linejoin="round"/>
<path fill-rule="evenodd" clip-rule="evenodd" d="M81.1981 113.931C79.4069 113.887 78.1216 113.206 76.5306 113.101V112.79C77.7223 112.02 79.0848 109.725 78.1901 107.604C77.6116 106.233 76.734 105.095 76.3232 103.455C75.7827 101.297 76.634 98.3071 76.1159 95.987C75.3738 92.665 74.99 88.0038 75.9083 84.5774C76.7732 81.35 77.4902 78.3342 78.3977 75.1386C78.7998 73.7225 79.3735 72.098 79.4347 70.4709C79.256 70.4088 79.1078 70.3785 78.8124 70.3673C77.9207 72.0993 77.7023 74.3187 77.0493 76.2794C76.2551 78.6634 75.5936 81.3133 74.871 83.8513C74.8018 84.4389 74.7327 85.0267 74.6637 85.6146C74.3166 87.0603 73.9403 89.5446 74.3525 91.3193C74.3871 91.9416 74.4217 92.564 74.4563 93.1865C74.8773 95.0025 75.0786 96.9375 75.0786 99.0986C75.0784 100.611 74.8108 102.537 75.1822 103.87C75.6937 105.705 77.9965 108.238 77.0493 110.508C75.3771 114.516 69.6809 114.949 65.1213 116.109C63.1344 116.615 60.0522 116.648 59.0018 115.383C56.5626 112.446 60.8953 108.956 60.9725 106.774C60.4021 105.873 60.4551 102.793 60.1427 101.484C59.8278 100.164 59.8595 98.6695 59.5204 97.2317C58.6996 93.7523 58.1647 89.0697 59.2092 85.4072C62.3494 74.3979 66.3296 64.3954 69.8926 53.6678C71.0722 50.1154 71.4986 46.4886 72.3818 42.5692C72.82 40.6243 72.2367 37.8046 71.8633 36.2422V31.8856C72.0979 30.8191 71.9166 29.5785 72.1745 28.4628C72.3777 27.5831 72.8283 25.3953 72.5892 24.3139C72.4856 23.6916 72.3819 23.0693 72.278 22.4469C71.652 20.5057 70.2656 18.0741 71.4484 15.8086C71.8903 14.9617 72.6569 14.6635 73.3153 14.0453C74.6724 14.0238 75.7053 14.1534 76.5306 14.6676C77.058 14.9962 77.2907 15.6508 77.9828 15.8086C78.3386 14.802 79.5964 14.4562 80.5758 14.0453C83.9273 12.6391 89.9099 11.5547 93.2297 13.7341C93.8123 14.1165 94.6248 14.3942 94.7856 15.1862C93.8179 16.4116 94.5907 19.159 94.8892 20.3724C95.0713 20.4378 94.9901 20.3924 95.0968 20.4762C95.2786 20.4108 95.1975 20.4562 95.3042 20.3724C95.3822 20.2611 95.3666 20.2743 95.4079 20.0612C94.7566 19.1943 95.1931 15.9423 95.7191 15.2899C96.1961 14.9147 98.3524 13.9685 99.1418 13.9415C99.2827 14.0723 99.3253 14.0832 99.5567 14.149C100.469 15.9297 100.638 18.3175 99.7643 20.3724C99.4627 21.0817 98.5674 21.3639 98.4159 21.9283C99.4104 23.0492 99.4453 25.5734 99.8679 27.3219C100.385 29.4589 100.183 32.0779 100.698 34.3751C100.732 35.1703 100.767 35.9655 100.801 36.7607C101.228 38.5685 101.577 40.2627 102.254 41.8431C103.758 45.3597 106.249 48.1544 107.751 51.5933C109.044 54.5547 109.383 58.0146 110.966 60.6171C114.182 65.9038 117.439 70.9389 119.886 77.0055C120.828 79.3419 121.13 82.0146 121.753 84.5774C122.044 85.775 121.914 87.083 122.168 88.2076V89.7636C122.445 91.047 122.308 92.6623 122.583 93.9126C122.823 95.0027 122.224 96.2127 121.961 96.9205C121.571 97.9692 121.361 98.8206 120.923 99.8247C120.476 100.852 119.656 101.889 119.264 102.936C118.591 104.732 119.472 108.541 119.471 110.819C119.471 111.471 119.539 112.169 119.368 112.687C118.963 113.909 117.476 114.876 116.36 115.383C114.61 116.178 109.717 117.641 107.128 117.043C105.986 116.779 104.7 116.993 104.328 116.006C103.804 115.278 104.034 113.91 103.706 112.998C102.879 110.699 101.068 110.024 98.5195 110.716V110.508C98.9224 110.183 99.0465 109.696 99.3493 109.264C100.047 108.268 100.788 107.251 101.527 106.256C102.423 105.05 103.849 104.227 104.743 103.04C107.178 99.8049 109 95.7539 108.788 90.4897C108.598 90.3564 108.61 90.2854 108.373 90.1785C108.251 90.0951 108.199 90.0982 107.958 90.0747C107.746 90.411 107.648 90.493 107.647 91.112C107.968 91.6004 107.797 93.361 107.647 93.9126C107.052 96.0998 106.544 98.3673 105.469 100.136C104.889 101.09 104.269 102.056 103.602 102.936C103.393 103.212 103.032 103.328 102.772 103.559C101.834 104.393 100.809 105.55 100.075 106.567C97.7932 109.731 95.854 113.936 92.5038 116.006C90.4357 117.283 86.1282 117.003 84.206 115.798C81.8314 114.31 81.8831 110.791 83.065 108.019C83.5588 106.861 84.3625 105.697 84.9321 104.596C85.7406 103.033 86.2363 101.137 86.799 99.4099C87.582 97.0069 87.6513 94.286 88.2512 91.7343C88.2857 91.0429 88.3202 90.3513 88.3548 89.6598C88.5532 88.7527 88.332 87.615 88.5624 86.548C88.7637 85.615 88.9136 83.5959 88.666 82.5029C88.4933 81.362 88.3204 80.2211 88.1474 79.08C87.6042 77.1637 87.0035 75.2652 86.4879 73.2714C86.2459 71.128 86.0038 68.9844 85.7618 66.8406C85.4982 66.6982 85.3983 66.6418 84.9321 66.6332C84.8435 66.7846 84.7441 66.9305 84.621 67.048C84.5743 70.2172 84.9417 73.2586 85.7618 75.7609C86.7552 78.7912 88.18 83.3579 87.214 87.5853C87.1449 88.8299 87.0757 90.0746 87.0064 91.3193C86.1302 95.059 85.9561 98.8669 84.621 102.107C83.6533 104.454 82.2872 106.469 81.4055 108.849C81.0906 109.699 81.0848 110.718 80.8869 111.649C80.9907 112.41 81.0944 113.17 81.1981 113.931ZM84.7246 20.6836C84.3044 21.0808 83.9914 21.1702 83.8949 21.9283C84.6052 22.4128 86.6382 23.2516 87.1102 21.9283C87.2555 21.696 87.1669 21.5885 87.1102 21.3059C86.3023 21.0493 85.9513 20.6888 84.7246 20.6836ZM75.7009 20.7874C75.2922 21.0941 74.7654 21.0947 74.5599 21.6171C74.469 21.7515 74.4671 21.873 74.4563 22.1358C74.8162 22.4856 74.8914 22.7115 75.5971 22.7581C76.1999 22.3289 76.9013 22.5449 76.9455 21.5134C76.6979 21.2482 76.7213 21.0368 76.3232 20.8911C76.1763 20.7914 75.9836 20.7898 75.7009 20.7873V20.7874ZM79.02 27.1145C78.1677 27.6572 76.6987 27.2415 75.7009 27.4259C75.5739 27.6623 75.5309 27.6592 75.4933 28.0482C76.2626 29.0472 76.5659 30.4064 78.1901 30.5374C78.8691 29.7878 79.5381 28.9598 80.2646 28.2555C80.265 27.5782 80.0938 27.4894 79.8497 27.1146H79.02V27.1145ZM80.5758 33.8566C80.2233 34.108 79.0329 34.5667 78.5013 34.4789C78.0137 34.3982 77.2891 34.1916 76.9455 34.2713C76.9802 34.3751 77.0148 34.4789 77.0493 34.5827C79.0161 35.95 79.2268 35.8311 80.7831 34.1678C80.696 33.9199 80.7416 33.9971 80.5758 33.8566V33.8566Z" fill="white"/>
</svg>
