<svg width="105" height="105" viewBox="0 0 180 180" fill="none" xmlns="http://www.w3.org/2000/svg">
<path d="M127.045 148.187L133.569 155.599H129.328L124.285 149.887V155.599H120.77V141.778H124.285V146.792L129.242 141.778H133.397L127.045 148.187ZM21.9485 145.512C24.5084 145.512 25.6832 144.29 25.6832 142.446C25.6832 140.603 24.5084 139.38 21.9485 139.38H16.8766V145.512H21.9485ZM22.0632 136.094C26.4665 136.094 29.3702 138.349 29.3702 142.446C29.3702 146.544 26.4665 148.798 22.0632 148.798H16.8766V155.599H13.1992V136.085H22.0632M37.6706 152.705C39.7337 152.705 41.6536 151.224 41.6536 148.693C41.6536 146.152 39.7337 144.681 37.6706 144.681C35.6074 144.681 33.6875 146.162 33.6875 148.693C33.6875 151.224 35.6074 152.705 37.6706 152.705ZM37.6706 141.386C41.4626 141.386 45.2259 143.841 45.2259 148.693C45.2259 153.545 41.4626 156 37.6706 156C33.8786 156 30.1152 153.545 30.1152 148.693C30.1152 143.841 33.8786 141.386 37.6706 141.386ZM54.195 152.705C52.0745 152.705 50.5176 151.176 50.5176 148.693C50.5176 146.238 52.1318 144.681 54.195 144.681C55.4462 144.681 56.5351 145.264 57.4043 146.573L60.4131 144.844C59.4102 142.695 57.2324 141.386 54.2236 141.386C50.2979 141.386 46.9452 144.29 46.9452 148.693C46.9452 153.096 50.1259 156 54.2236 156C57.1751 156 59.1523 154.663 60.5468 152.294L57.6431 150.708C56.8121 151.864 55.9238 152.705 54.195 152.705ZM91.5897 149.61C91.4178 151.73 91.0071 152.198 90.2811 152.198C89.7844 152.198 89.5552 152.141 89.2113 152.055L89.2305 155.637C89.2305 155.637 89.6698 155.771 90.4722 155.771C93.4523 155.771 94.5698 153.851 94.8468 149.753L95.1811 144.93H99.1355V155.58H102.651V141.778H92.1724L91.5897 149.61ZM85.1137 146.85C84.7794 145.121 83.4708 144.06 81.5223 144.06C79.6788 144.06 78.2842 145.283 77.7876 146.85H85.1137ZM81.6273 141.386C85.5817 141.386 88.3708 144.261 88.3708 148.301V149.524H77.7207C77.9404 151.644 79.4495 152.982 81.5127 152.982C83.3848 152.982 84.1585 152.17 85.0277 151.09L87.8168 152.485C86.4223 154.854 84.5024 156 81.465 156C77.6156 156 74.3585 153.077 74.3585 148.693C74.349 144.318 77.6156 141.386 81.6273 141.386ZM115.373 146.85C115.039 145.121 113.73 144.06 111.782 144.06C109.938 144.06 108.544 145.283 108.047 146.85H115.373ZM111.897 141.386C115.851 141.386 118.64 144.261 118.64 148.301V149.524H107.99C108.21 151.644 109.719 152.982 111.782 152.982C113.654 152.982 114.428 152.17 115.297 151.09L118.086 152.485C116.691 154.854 114.772 156 111.734 156C107.885 156 104.628 153.077 104.628 148.693C104.618 144.318 107.875 141.386 111.897 141.386ZM61.6357 144.844H65.762V155.599H69.277V144.844H73.4033V141.778H61.6357V144.844ZM140.542 152.705C142.605 152.705 144.525 151.224 144.525 148.693C144.525 146.152 142.605 144.681 140.542 144.681C138.479 144.681 136.559 146.162 136.559 148.693C136.559 151.224 138.479 152.705 140.542 152.705ZM140.542 141.386C144.334 141.386 148.097 143.841 148.097 148.693C148.097 153.545 144.334 156 140.542 156C136.75 156 132.987 153.545 132.987 148.693C132.987 143.841 136.75 141.386 140.542 141.386ZM162.071 141.778L158.26 151.463L154.449 141.778H149.855V155.58H153.188V146.84L156.885 155.58H159.607L163.304 146.84V155.58H166.647V141.778H162.071Z" fill="white"/>
<path d="M112.334 116.571H72.513C69.6379 116.571 67.9473 114.002 67.9473 111.757C67.9473 110.429 68.4822 109.226 69.3609 108.357L86.7354 90.9821L112.334 116.571Z" fill="white"/>
<path opacity="0.45" d="M72.5146 116.57C69.5058 116.57 65.752 114.163 65.752 109.387V55.8694C65.752 48.6388 65.3795 43.5478 70.5469 38.3803L89.9273 19L124.294 53.4242L69.353 108.356C68.4838 109.225 67.9393 110.429 67.9393 111.756C67.9489 114.001 69.6395 116.57 72.5146 116.57Z" fill="white"/>
</svg>
