<svg width="105" height="105" viewBox="0 0 180 180" fill="none" xmlns="http://www.w3.org/2000/svg">
<path fill-rule="evenodd" clip-rule="evenodd" d="M90.4405 150.654C124.198 151.101 152.032 124.162 152.59 90.2926C152.032 56.5349 124.31 29.484 90.4405 29.9311C56.6828 29.484 28.8495 56.4231 28.4023 90.2926C28.9612 124.162 56.6828 151.101 90.4405 150.654Z" fill="url(#paint0_radial_317_5457)"/>
<path opacity="0.45" fill-rule="evenodd" clip-rule="evenodd" d="M117.157 135.341C96.0309 147.189 73.2277 149.313 58.5845 142.159C78.0343 153.337 101.844 153.561 121.405 142.606C140.743 131.987 152.704 111.531 152.48 89.5107C151.586 105.272 138.284 123.492 117.157 135.341ZM124.759 42.2276C123.529 40.2155 121.74 38.427 119.728 37.0856C127.441 40.998 134.26 46.587 139.625 53.4056C140.52 54.5234 141.414 55.753 142.308 56.9826C144.544 60.7831 145.55 65.1425 145.326 69.6138C144.767 85.7102 130.124 105.16 106.985 118.126C83.8469 131.093 59.2552 133.664 44.6119 126.063C40.5878 124.051 37.2344 120.921 34.887 117.12L34.7752 117.009C34.2163 115.779 33.6574 114.661 33.0985 113.432C29.6333 105.495 28.0684 96.8882 28.4038 88.2811C28.5155 90.7403 29.1862 93.0877 30.4158 95.2115C37.9051 107.731 65.0678 106.166 91.0008 91.5227C117.157 76.7677 132.248 54.747 124.759 42.2276ZM98.3783 34.4029C98.1548 34.0676 97.9312 33.7322 97.5959 33.5087C94.0189 30.6024 89.4359 29.4846 84.9647 30.267C84.0704 30.3788 83.1762 30.3788 82.2819 30.6024C74.2338 31.6084 66.5209 34.1794 59.3669 38.2035C52.3248 42.1158 46.1769 47.3695 41.1467 53.6292C40.5878 54.2998 40.1407 55.0823 39.5818 55.753C36.6755 59.1064 35.3341 63.5776 36.2284 68.0488C36.3402 68.3842 36.452 68.8313 36.6755 69.1666C40.9232 76.3206 58.2491 74.4203 75.2398 64.919C92.3422 55.1941 102.626 41.6687 98.3783 34.4029Z" fill="url(#paint1_radial_317_5457)"/>
<defs>
<radialGradient id="paint0_radial_317_5457" cx="0" cy="0" r="1" gradientUnits="userSpaceOnUse" gradientTransform="translate(90.4879 90.3447) scale(62.0917 60.3159)">
<stop stop-color="white"/>
<stop offset="1" stop-color="white"/>
</radialGradient>
<radialGradient id="paint1_radial_317_5457" cx="0" cy="0" r="1" gradientUnits="userSpaceOnUse" gradientTransform="translate(90.4841 90.3434) scale(62.099 60.3354)">
<stop stop-color="#8DA9ED"/>
<stop offset="0.48" stop-color="#7F9DE7"/>
<stop offset="1" stop-color="#668AE1"/>
</radialGradient>
</defs>
</svg>
