<svg width="105" height="105" viewBox="0 0 180 180" fill="none" xmlns="http://www.w3.org/2000/svg">
<path d="M155.332 77.8702C161.292 75.8837 171.509 70.7754 168.813 63.2548C164.272 53.8896 155.9 61.9778 151.927 68.3631C154.339 63.3967 156.893 54.4572 152.636 52.4707C146.109 49.4908 144.548 59.2817 144.264 65.809C144.406 59.1398 143.839 46.511 137.879 48.6394C129.649 51.6193 134.048 60.8426 136.744 68.0793C136.744 68.0793 131.777 55.3086 127.237 59.7074C125.676 61.8359 127.662 65.5252 130.5 67.9374C126.527 65.6671 120.709 62.6872 117.588 65.6671C111.912 71.0592 116.311 74.8904 122.412 77.4446C118.155 78.4378 112.621 81.2758 113.189 85.6746C114.324 94.756 129.933 92.2019 134.899 87.6612C130.784 91.9181 120.851 99.8643 129.507 103.979C135.892 107.101 143.129 97.1683 143.697 91.0667C143.839 97.1683 141.143 110.648 152.211 109.088C164.13 107.385 155.19 89.7896 152.636 84.3975C154.907 87.3774 166.542 101.567 170.515 92.7695C173.637 85.2489 160.866 78.8635 155.332 77.8702Z" fill="white"/>
<path d="M8.03906 107.811C8.03906 101.851 11.4446 98.1615 16.2691 98.1615C19.107 98.1615 21.5193 99.7224 22.7964 101.567V98.5872H24.7829V124.129H22.7964V114.054C21.2355 116.182 18.9651 117.46 16.2691 117.46C11.4446 117.601 8.03906 113.628 8.03906 107.811ZM22.7964 112.351V103.128C21.6612 101.425 19.2489 99.8643 16.6948 99.8643C12.5798 99.8643 10.1675 103.27 10.1675 107.811C10.1675 112.351 12.5798 115.757 16.6948 115.757C19.2489 115.757 21.8031 114.054 22.7964 112.351Z" fill="white"/>
<path d="M46.92 117.034L41.6698 101.141L36.5615 117.034H34.5749L28.6152 98.5873H30.7437L35.7101 114.338L40.8184 98.5873H42.5212L47.7714 114.338L52.7378 98.5873H54.8662L48.9065 117.034H46.92Z" fill="white"/>
<path d="M57.5625 107.811C57.5625 102.418 61.3937 98.1615 66.502 98.1615C72.1779 98.1615 75.2996 102.702 75.2996 107.952V108.52H59.8329C59.9748 112.493 62.6708 115.899 67.0696 115.899C69.4819 115.899 71.6103 115.047 73.1712 113.344L74.1645 114.622C72.3198 116.608 70.0495 117.601 66.9277 117.601C61.5356 117.601 57.5625 113.486 57.5625 107.811ZM66.502 99.7224C62.1032 99.7224 59.9748 103.554 59.8329 106.817H73.3131C73.1712 103.695 71.1846 99.7224 66.502 99.7224Z" fill="white"/>
<path d="M80.4062 117.034V98.5872H82.3928V101.709C83.9537 99.5805 86.0821 98.1615 88.6363 98.1615V100.29C88.3525 100.148 88.0687 100.148 87.643 100.148C85.7983 100.148 83.2442 101.851 82.3928 103.412V117.034H80.4062Z" fill="white"/>
<path d="M93.0358 113.486V100.29H89.9141V98.5872H93.0358V93.4789H95.0224V98.5872H98.8536V100.29H95.0224V113.203C95.0224 114.763 95.5899 115.757 97.0089 115.757C97.8603 115.757 98.7117 115.331 99.1374 114.905L99.8469 116.466C99.1374 117.176 98.286 117.601 96.7251 117.601C94.171 117.601 93.0358 116.041 93.0358 113.486Z" fill="white"/>
<path d="M102.256 122.426C102.682 122.568 103.391 122.71 103.817 122.71C105.094 122.71 105.945 122.142 106.655 120.439L108.074 117.176L100.27 98.5873H102.54L109.351 114.764L116.02 98.5873H118.29L108.641 121.149C107.648 123.561 106.087 124.554 103.817 124.554C103.249 124.554 102.398 124.413 101.83 124.271L102.256 122.426Z" fill="white"/>
</svg>
