<svg width="180" height="180" viewBox="0 0 180 180" fill="none" xmlns="http://www.w3.org/2000/svg">
<path d="M68.7439 87.0907C66.6639 85.0107 62.9605 83.8439 61.9966 83.5395C61.9966 83.5395 61.3878 83.3365 54.8434 81.2058C53.7781 80.8507 48.5527 79.5317 48.5527 74.9151C48.5527 70.2985 52.9663 68.8273 55.3 68.8273C55.7059 68.8273 58.4454 68.6244 61.5907 70.9073C64.7361 73.2409 67.4756 80.597 67.4756 80.597H69.7585V67.1024H67.4756L65.5985 68.9795C63.1127 67.5083 59.46 66.0878 54.8942 66.0878C47.1322 66.0878 39.5732 70.0956 39.5732 78.2634C39.5732 86.4312 47.1322 89.6273 49.6688 90.4897C52.2054 91.3014 54.2854 91.9609 57.4307 93.0263C60.3224 93.9902 62.9098 95.5122 62.9098 99.317C62.9098 103.122 59.9673 104.593 58.0903 104.999C57.0249 105.202 56.822 105.202 57.4815 105.202H66.7146C66.7146 105.202 67.9829 104.593 69.2512 103.122C70.5195 101.651 72.1937 98.9112 72.1937 95.5629C72.1429 91.9102 70.8746 89.12 68.7439 87.0907ZM53.3722 105.05C52.1039 104.796 51.14 104.644 50.0746 104.086C48.6034 103.376 47.0307 102.158 45.8639 100.89C44.7478 99.6722 43.8854 98.3531 43.0737 96.8312C42.3634 95.5629 42.0083 94.3453 41.501 93.1785H38.5078V105.151H53.3722C53.4229 105.151 53.4229 105.1 53.3722 105.05ZM103.241 115.095C103.241 112.203 104.662 109.666 106.793 108.043H38.5078V119.813H104.611C103.749 118.494 103.241 116.87 103.241 115.095ZM126.933 119.762C126.578 119.762 126.223 119.66 125.919 119.508C124.802 118.95 124.397 117.631 124.955 116.515L133.275 100.179L124.955 83.8439C124.397 82.7785 124.853 81.4087 125.919 80.8507C126.984 80.2926 128.354 80.7492 128.912 81.8146L137.739 99.1648C138.043 99.7736 138.043 100.535 137.739 101.194L128.912 118.544C128.557 119.305 127.745 119.762 126.933 119.762Z" fill="white"/>
<path d="M47.2847 109.717H45.8135V111.188H44.7988V112.507H45.8135V115.957C45.8135 116.972 46.3715 117.53 47.4876 117.53C47.792 117.53 48.1471 117.479 48.5022 117.428L48.7052 117.378V115.957L48.4515 116.008C48.1979 116.058 48.0457 116.109 47.792 116.109C47.3861 116.109 47.2847 116.008 47.2847 115.703V112.507H48.7052V111.138H47.2847V109.717ZM53.6769 110.985C51.6476 110.985 50.3286 112.254 50.3286 114.232C50.3286 116.211 51.6476 117.479 53.6769 117.479C55.3003 117.479 56.4671 116.718 56.9237 115.399L57.0252 115.095H55.351L55.3003 115.247C55.0974 115.805 54.5393 116.058 53.6769 116.058C52.6622 116.058 51.952 115.5 51.8505 114.638H57.0252V114.283C57.0252 112.254 55.7569 110.985 53.6769 110.985ZM53.6769 112.406C54.59 112.406 55.1988 112.812 55.4018 113.522H51.9013C52.1549 112.812 52.7637 112.406 53.6769 112.406ZM58.6993 109.21H60.1705V117.428H58.6993V109.21ZM65.2437 110.985C63.2144 110.985 61.8954 112.254 61.8954 114.232C61.8954 116.211 63.2144 117.479 65.2437 117.479C66.8671 117.479 68.0339 116.718 68.4905 115.399L68.592 115.095H66.9179L66.8671 115.247C66.6642 115.805 66.1061 116.058 65.2437 116.058C64.2291 116.058 63.5188 115.5 63.4174 114.638H68.592V114.283C68.592 112.254 67.273 110.985 65.2437 110.985ZM65.2437 112.406C66.1569 112.406 66.7657 112.812 66.9686 113.522H63.4681C63.7218 112.812 64.3305 112.406 65.2437 112.406ZM75.1871 114.942C75.0857 115.653 74.4769 116.109 73.6144 116.109C72.4983 116.109 71.7881 115.399 71.7881 114.283C71.7881 113.116 72.4983 112.406 73.6652 112.406C74.4261 112.406 74.9335 112.761 75.1364 113.37L75.1871 113.522H76.7091L76.6583 113.268C76.4047 111.848 75.2379 110.985 73.5637 110.985C71.5852 110.985 70.2154 112.355 70.2154 114.232C70.2154 116.16 71.5344 117.479 73.5637 117.479C75.2379 117.479 76.4554 116.566 76.7091 114.993L76.7598 114.739H75.1871V114.942ZM81.833 110.985C79.753 110.985 78.3832 112.254 78.3832 114.232C78.3832 116.211 79.753 117.479 81.833 117.479C83.913 117.479 85.232 116.211 85.232 114.232C85.2827 112.304 83.9637 110.985 81.833 110.985ZM81.833 116.109C80.6154 116.109 79.9559 115.399 79.9559 114.232C79.9559 113.065 80.6661 112.355 81.833 112.355C83.0505 112.355 83.71 113.065 83.71 114.232C83.7608 115.45 83.0505 116.109 81.833 116.109ZM95.1754 110.985C94.2622 110.985 93.5013 111.34 92.791 112.051C92.4359 111.34 91.6749 110.985 90.711 110.985C89.8993 110.985 89.1383 111.29 88.5803 111.797V111.138H87.1091V117.327H88.5803V114.181C88.5803 113.065 89.3413 112.254 90.4574 112.254C91.3198 112.254 91.6242 112.659 91.6242 113.725V117.276H93.0447V114.131C93.0447 113.015 93.8057 112.203 94.9218 112.203C95.7842 112.203 96.0886 112.609 96.0886 113.674V117.225H97.5598V113.725C97.5598 112.507 97.3061 110.985 95.1754 110.985Z" fill="white"/>
<path d="M127.388 96.5269C127.388 96.5269 121.909 85.7717 121.047 84.1483C119.169 80.3434 121.96 80.5971 124.192 80.5971V78.2634H92.4846V80.5971C96.8982 80.5971 98.4709 81.5103 94.5646 85.4166L86.3968 93.5844V63.1454L72.6992 63.7542V66.0878C72.6992 66.0878 74.7285 66.1386 76.0475 67.1532C77.1129 67.9649 77.1129 70.2986 77.1129 70.2986V105.151H86.346V97.7951L89.6943 94.4468L97.5578 105.151H109.125L96.4924 87.9532C96.4924 87.9532 96.746 87.4966 99.6378 84.6049C105.928 78.3142 108.617 80.242 111.205 85.2137C112.98 88.6127 119.829 102.057 122.163 106.825C122.213 106.978 120.59 110.174 118.764 112.254C117.191 113.979 116.227 114.131 116.075 113.928C115.923 113.674 115.72 113.421 115.568 113.218C115.314 112.862 115.06 112.507 114.756 112.203C112.879 110.326 109.987 110.123 108.313 111.848C106.639 113.522 106.791 116.414 108.668 118.291C109.683 119.305 111.002 119.863 112.27 119.813H112.321C115.314 119.762 118.967 119.762 126.373 105.101L130.28 97.44L128.606 94.1425L127.388 96.5269Z" fill="url(#paint0_linear_317_5465)"/>
<path d="M130.332 78.2634V80.5971C133.274 80.5971 135.557 80.5464 133.68 84.1483L132.716 86.0254L134.391 89.3229L136.217 85.8225C138.145 82.119 139.007 80.5971 141.493 80.5971V78.2634H130.332Z" fill="url(#paint1_linear_317_5465)"/>
<path d="M99.2337 72.9873H97.5595V66.6966C97.7117 66.3415 97.9654 66.1385 98.2191 65.8849C98.4727 65.6312 98.7771 65.3776 99.0815 65.1746C99.6903 64.8195 100.451 64.5658 101.161 64.4644C101.872 64.3629 102.582 64.4137 103.242 64.6673C103.749 64.8702 104.155 65.1746 104.408 65.6819C104.763 66.3415 104.916 67.1532 104.916 67.9141V73.038H103.292V74.1034H109.989V73.038H108.162V67.5083C108.162 66.5951 108.061 65.6819 107.604 64.921C107.199 64.16 106.438 63.6527 105.626 63.3483C104.713 63.0439 103.749 62.9932 102.836 62.9932C101.922 62.9932 101.009 63.0946 100.147 63.399C99.6395 63.5512 99.183 63.8049 98.7771 64.1093C98.3713 64.4137 97.9654 64.718 97.6103 65.1239V63.0946H92.5371V64.16H94.4142V72.9873H92.5371V74.0527H99.2337V72.9873Z" fill="url(#paint2_linear_317_5465)"/>
<path d="M125.209 72.6829C124.397 73.4946 123.23 73.9005 122.114 74.1541C120.846 74.4078 119.527 74.4078 118.259 74.2556C115.874 73.9512 113.287 72.8858 112.475 70.4C112.12 69.2332 112.12 67.9141 112.526 66.798C112.83 65.7834 113.49 64.9717 114.352 64.3629C115.215 63.7541 116.229 63.399 117.244 63.2468C118.462 62.9932 119.781 62.9424 121.049 63.1454C122.266 63.2976 123.585 63.6527 124.549 64.5151C124.955 64.8702 125.31 65.3776 125.513 65.9356C125.716 66.5444 125.767 67.2039 125.665 67.8127C125.615 68.1171 125.564 68.4722 125.513 68.7766H115.621C115.621 69.5376 115.823 70.2478 116.229 70.8566C116.635 71.4654 117.244 71.8712 117.903 72.2263C118.563 72.5307 119.273 72.6829 120.034 72.7844C120.795 72.8858 121.556 72.8858 122.266 72.7336C123.027 72.5815 123.89 72.3785 124.549 71.9219L125.209 72.6829ZM119.476 64.0078C118.462 64.0078 117.396 64.16 116.584 64.921C115.874 65.6312 115.621 66.6966 115.57 67.6605H122.571C122.723 66.6966 122.622 65.6312 121.962 64.921C121.302 64.2107 120.389 64.0078 119.476 64.0078Z" fill="url(#paint3_linear_317_5465)"/>
<path d="M130.332 61.0145V63.0945H127.795V64.3628H130.332V71.2116C130.332 71.8204 130.433 72.5306 130.788 73.0379C131.092 73.4945 131.6 73.7989 132.107 74.0018C132.767 74.2555 133.477 74.3062 134.187 74.3062C134.999 74.3062 135.811 74.2048 136.622 74.0526C137.434 73.8496 138.246 73.5453 138.905 73.0887L138.093 72.1755C137.941 72.277 137.84 72.3277 137.688 72.4292C137.332 72.5814 136.927 72.7336 136.572 72.835C136.216 72.9365 135.811 72.9872 135.405 72.9872C134.847 72.9365 134.238 72.835 133.933 72.3277C133.578 71.8204 133.528 71.1609 133.528 70.6028V64.4136H138.144V63.1453H133.528V61.0653L130.332 61.0145Z" fill="url(#paint4_linear_317_5465)"/>
<defs>
<linearGradient id="paint0_linear_317_5465" x1="101.489" y1="119.494" x2="101.489" y2="61.0273" gradientUnits="userSpaceOnUse">
<stop stop-color="white"/>
<stop offset="1" stop-color="white"/>
</linearGradient>
<linearGradient id="paint1_linear_317_5465" x1="135.913" y1="119.494" x2="135.913" y2="61.0273" gradientUnits="userSpaceOnUse">
<stop stop-color="white"/>
<stop offset="1" stop-color="white"/>
</linearGradient>
<linearGradient id="paint2_linear_317_5465" x1="101.263" y1="119.494" x2="101.263" y2="61.0273" gradientUnits="userSpaceOnUse">
<stop stop-color="white"/>
<stop offset="1" stop-color="white"/>
</linearGradient>
<linearGradient id="paint3_linear_317_5465" x1="118.965" y1="119.494" x2="118.965" y2="61.0273" gradientUnits="userSpaceOnUse">
<stop stop-color="white"/>
<stop offset="1" stop-color="white"/>
</linearGradient>
<linearGradient id="paint4_linear_317_5465" x1="133.35" y1="119.494" x2="133.35" y2="61.0272" gradientUnits="userSpaceOnUse">
<stop stop-color="white"/>
<stop offset="1" stop-color="white"/>
</linearGradient>
</defs>
</svg>
