<svg width="180" height="180" viewBox="0 0 180 180" fill="none" xmlns="http://www.w3.org/2000/svg">
<path fill-rule="evenodd" clip-rule="evenodd" d="M125.829 118.365C122.244 118.365 119.332 115.454 119.332 111.868C119.332 108.283 122.244 105.372 125.829 105.372C129.415 105.372 132.326 108.283 132.326 111.868C132.326 115.454 129.415 118.365 125.829 118.365ZM110.598 118.365C107.012 118.365 104.101 115.454 104.101 111.868C104.101 108.283 107.012 105.372 110.598 105.372C114.183 105.372 117.094 108.283 117.094 111.868C117.094 115.454 114.183 118.365 110.598 118.365ZM95.3419 118.365C91.7566 118.365 88.845 115.454 88.845 111.868C88.845 108.283 91.7566 105.372 95.3419 105.372C98.9272 105.372 101.839 108.283 101.839 111.868C101.839 115.454 98.9272 118.365 95.3419 118.365ZM96.4007 38.3813V89.9956V91.9928V92.0168C96.3766 94.3509 94.4757 96.2037 92.1656 96.2037H90.1685H85.765C85.4522 96.2037 85.1875 96.4684 85.1875 96.7812V141.73C86.7756 141.875 88.3638 141.947 90 141.947C118.731 141.947 141.999 118.654 141.999 89.9475C141.999 63.4546 122.1 41.5576 96.4007 38.3813Z" fill="white"/>
<path fill-rule="evenodd" clip-rule="evenodd" d="M80.0133 80.8759C76.4279 80.8759 73.5164 77.9643 73.5164 74.379C73.5164 70.7936 76.4279 67.8821 80.0133 67.8821C83.5986 67.8821 86.5102 70.7936 86.5102 74.379C86.5102 77.9643 83.5986 80.8759 80.0133 80.8759ZM89.9992 37.9963C61.2685 37.9963 38 61.2889 38 89.9956C38 114.924 55.5416 135.739 78.9545 140.816V94.1584C79.0026 91.9206 80.8073 90.0918 83.0451 90.0196H85.2108H89.6142C89.927 90.0196 90.1677 89.779 90.1917 89.4662V38.0204H90.9136C90.5767 37.9963 90.288 37.9963 89.9992 37.9963Z" fill="white"/>
</svg>
