<svg width="180" height="180" viewBox="0 0 180 180" fill="none" xmlns="http://www.w3.org/2000/svg">
<path fill-rule="evenodd" clip-rule="evenodd" d="M34.3715 99.8282L62.8179 99.6537C62.8179 99.6537 66.8227 99.6093 67.7044 96.1639C68.5964 92.6772 66.8319 90.7532 66.8319 90.7532L39.4327 44.1576C39.4327 44.1576 37.4759 41.7016 34.8953 41.7144C32.4137 41.7267 30.5324 43.9831 30.5324 43.9831L3.13329 90.7532C3.13329 90.7532 0.979948 93.9261 2.60974 96.6874C4.34255 99.6223 7.49622 99.6537 7.49622 99.6537L34.3715 99.8282ZM63.5159 63.1799L84.1087 98.6068C84.1087 98.6068 85.2773 100.054 86.7268 100.352C88.1763 100.649 101.414 103.116 113.079 92.1499C117.951 87.5695 128.659 73.2395 119.012 54.8029C116.763 50.5031 108.839 38.4378 92.1368 38.0494C86.5302 37.9193 74.7108 39.2403 65.4353 52.1852C60.3447 59.2906 63.5159 63.1799 63.5159 63.1799ZM128.785 99.6537H171.367C171.367 99.6537 174.453 99.8366 176.428 97.2108C178.114 94.9692 177.824 93.0223 177.824 93.0223L177.999 45.7282C177.999 45.7282 178.169 43.2306 176.254 41.3654C173.887 39.0613 172.24 39.2711 172.24 39.2711L127.913 39.0966C127.913 39.0966 125.879 39.5223 125.47 41.0163C125.06 42.5103 125.117 44.0374 127.04 46.4263C128.963 48.8153 134.229 58.5762 133.846 70.335C133.627 84.5948 126.279 93.408 125.819 94.5927C123.928 99.4524 128.785 99.6537 128.785 99.6537Z" fill="white"/>
<path fill-rule="evenodd" clip-rule="evenodd" d="M8.82775 140.164H2V127.571H5.79316L13.0761 108.909H23.8487L31.1316 127.571H34.7731V140.164H27.9453V134.399H8.82798V140.164H8.82775ZM18.0831 115.433H19.1452L23.697 127.571H13.683L18.0831 115.433ZM50.401 108.15C53.0717 108.15 55.6824 108.942 57.903 110.426C60.1236 111.91 61.8543 114.019 62.8763 116.486C63.8983 118.954 64.1657 121.669 63.6447 124.288C63.1236 126.907 61.8376 129.313 59.9491 131.202C58.0606 133.09 55.6546 134.376 53.0352 134.898C50.4158 135.419 47.7008 135.151 45.2334 134.129C42.7659 133.107 40.657 131.377 39.1732 129.156C37.6894 126.935 36.8973 124.325 36.8973 121.654C36.8973 118.073 38.32 114.638 40.8524 112.105C43.3849 109.573 46.8196 108.15 50.401 108.15ZM50.4769 115.281C53.8706 115.281 56.6218 118.168 56.6218 121.73C56.6218 125.291 53.8706 128.178 50.4769 128.178C47.0831 128.178 44.3319 125.291 44.3319 121.73C44.3319 118.169 47.0831 115.281 50.4769 115.281ZM68.6083 109.06V134.399H75.5879V120.44H76.65L82.5674 129.088H85.9056L91.9745 120.44H92.8845V134.399H99.864V109.06H91.6705L84.6917 119.074H83.9325L77.1052 109.06H68.6083ZM109.651 125.751C112.205 125.751 114.276 127.857 114.276 130.453C114.276 133.05 112.205 135.156 109.651 135.156C107.096 135.156 105.024 133.051 105.024 130.453C105.024 127.856 107.095 125.751 109.651 125.751ZM119.437 109.06H126.113V111.64H126.416C126.416 111.64 127.853 108.423 133.851 108.453C139.849 108.483 145.628 112.22 145.534 121.502C145.498 125.06 145.175 134.205 134.154 135.005C129.405 135.351 126.72 131.971 126.72 131.971H126.416V142.137H119.437V109.06ZM132.334 114.826C135.77 114.826 138.555 117.883 138.555 121.654C138.555 125.425 135.77 128.481 132.334 128.481C128.897 128.481 126.113 125.425 126.113 121.654C126.113 117.883 128.898 114.826 132.334 114.826ZM147.962 109.06H156.003L162.679 126.054H163.589L170.266 109.06H178.004L166.624 135.612C166.624 135.612 164.725 138.817 162.982 140.013C161.781 140.837 159.19 142.144 157.217 142.137C155.749 142.131 150.692 142.137 150.692 142.137V135.157H158.734C158.734 135.157 159.309 134.545 159.19 134.399C159.001 134.167 157.435 131.458 156.914 130.15C156.392 128.843 147.962 109.06 147.962 109.06Z" fill="white"/>
</svg>
