<svg width="180" height="180" viewBox="0 0 180 180" fill="none" xmlns="http://www.w3.org/2000/svg">
<circle opacity="0.45" cx="51.419" cy="64.6957" r="9.66316" fill="white"/>
<circle opacity="0.45" cx="130.581" cy="64.6957" r="9.66316" fill="white"/>
<path d="M56.852 48.3173C53.2991 49.2803 50.8263 51.7531 49.8242 55.358C49.4728 56.6074 49.4989 58.7548 49.8763 60.0953C50.3578 61.8392 51.0866 63.0756 52.4271 64.416C53.3902 65.3921 53.8066 65.7045 54.7957 66.186C56.4355 67.0189 57.5548 67.2401 59.559 67.1751C61.7454 67.097 63.216 66.5764 65.1291 65.2229C65.3113 65.0928 65.6627 65.288 67.2114 66.3161C77.2975 73.0445 87.2405 75.4392 97.5218 73.6302C101.257 72.9795 104.654 71.8342 108.519 69.9341C111.226 68.6067 113.152 67.4874 115.182 66.0819C115.846 65.6264 116.458 65.2099 116.562 65.1709C116.666 65.1318 117.043 65.301 117.395 65.5483C118.293 66.186 118.943 66.4983 120.258 66.8888C121.195 67.1751 121.663 67.2271 122.835 67.2271C124.592 67.2271 125.841 66.9148 127.364 66.1339C128.769 65.4051 130.565 63.6482 131.255 62.3207C132.596 59.7439 132.817 57.0369 131.906 54.4731C131.385 53.0155 130.8 52.0784 129.667 50.9201C128.561 49.8009 127.351 49.0331 125.828 48.4995C124.865 48.1611 124.631 48.1351 122.835 48.1351C121.039 48.1351 120.805 48.1611 119.841 48.4995C116.9 49.5276 114.727 51.701 113.699 54.6423C113.36 55.6053 113.334 55.8396 113.334 57.6356C113.334 59.4966 113.347 59.6398 113.738 60.6939C113.959 61.3056 114.18 61.8912 114.232 61.9954C114.401 62.3858 109 65.5092 105.591 67.0059C100.229 69.3485 94.2162 70.4677 89.0235 70.0903C82.1259 69.5827 75.6968 67.2792 68.8642 62.8673L67.745 62.1385L68.1094 61.1885C68.63 59.861 68.7992 58.6897 68.7341 57.0629C68.5519 53.1586 65.9881 49.8139 62.1879 48.5125C60.7823 48.031 58.2445 47.9399 56.852 48.3173Z" fill="white"/>
<path d="M47.4177 106.83C45.4005 107.389 43.4874 108.925 42.6284 110.708C41.2359 113.558 41.7825 116.877 44.034 119.128C46.3375 121.432 49.7082 121.939 52.5974 120.43L53.5344 119.948V120.508V121.08H55.0311H56.5277V117.007C56.5277 112.491 56.4497 111.866 55.7078 110.5C54.8749 108.925 53.3262 107.624 51.5563 107.012C50.4891 106.635 48.4588 106.556 47.4177 106.83ZM51.0487 109.836C52.9618 110.695 54.068 112.803 53.6646 114.795C53.3652 116.265 52.4542 117.436 51.0877 118.1C50.5802 118.36 50.2678 118.413 49.2397 118.413C48.1725 118.413 47.8992 118.36 47.2875 118.074C46.3765 117.645 45.5176 116.786 45.0881 115.875C44.8018 115.263 44.7497 114.99 44.7497 113.923C44.7497 112.894 44.8018 112.582 45.0621 112.075C45.6998 110.773 46.9622 109.771 48.3157 109.485C49.0835 109.315 50.2678 109.472 51.0487 109.836Z" fill="white"/>
<path d="M94.4394 106.882C91.8886 107.611 89.9234 109.589 89.2597 112.101C89.0124 113.038 89.0124 114.847 89.2597 115.797C90.483 120.469 95.9881 122.772 100.036 120.287C100.387 120.078 100.686 119.909 100.725 119.909C100.751 119.909 100.777 120.169 100.777 120.495V121.08H102.209H103.641V116.747C103.641 112.53 103.628 112.4 103.328 111.541C102.508 109.237 100.53 107.454 98.1094 106.83C97.0943 106.569 95.4545 106.595 94.4394 106.882ZM97.9142 109.693C100.4 110.552 101.61 113.545 100.439 115.914C99.9705 116.903 98.9293 117.853 97.9402 118.217C96.9902 118.582 95.4415 118.543 94.5045 118.113C93.5935 117.71 92.6694 116.786 92.253 115.862C91.5762 114.326 91.6803 112.816 92.5913 111.463C93.7626 109.706 95.897 108.99 97.9142 109.693Z" fill="white"/>
<path d="M120.935 106.934C118.502 107.767 116.719 109.732 116.12 112.231C115.873 113.285 115.938 115.12 116.25 116.135C117.2 119.193 119.868 121.224 122.965 121.25C125.048 121.276 126.701 120.638 128.197 119.206L129.069 118.374L127.937 117.645L126.805 116.903L126.206 117.424C124.592 118.842 122.002 118.894 120.232 117.541C119.53 117.007 118.879 116.07 118.775 115.445L118.697 114.964H124.397H130.097L130.019 113.688C129.941 112.309 129.577 110.942 129.043 110.018C128.21 108.548 126.518 107.246 124.918 106.843C123.759 106.53 121.989 106.583 120.935 106.934ZM124.332 109.511C125.425 109.784 126.531 110.838 126.909 111.957C127 112.205 127.065 112.426 127.065 112.439C127.065 112.465 125.217 112.491 122.965 112.491C119.777 112.491 118.866 112.452 118.866 112.322C118.879 111.957 119.399 111.046 119.868 110.578C120.987 109.459 122.614 109.068 124.332 109.511Z" fill="white"/>
<path d="M57.9837 111.541C58.0488 116.603 58.0878 116.929 58.7385 118.217C59.6235 119.948 62.1613 121.08 65.1286 121.08H66.2869V119.727V118.386L64.8162 118.321C63.5278 118.269 63.2415 118.217 62.5908 117.905C61.7058 117.475 61.2893 116.968 61.003 115.94C60.8208 115.289 60.7818 114.482 60.7688 110.994L60.7558 106.83L59.3502 106.791L57.9316 106.752L57.9837 111.541Z" fill="white"/>
<path d="M68.1094 113.91V121.08H69.541H70.9725V115.341V109.589L71.9226 109.654C73.5884 109.758 75.1762 110.76 75.8399 112.14L76.1783 112.816L76.1913 116.942L76.2043 121.08H77.6489H79.1065V116.812C79.1065 112.621 79.1065 112.543 79.4058 111.944C80.0435 110.643 81.5272 109.784 83.3101 109.654L84.2472 109.589V115.341V121.08H85.6788H87.1103V113.923V106.765H85.1972C81.6053 106.765 80.0696 107.285 78.2996 109.068L77.6229 109.758L76.9721 109.068C76.2043 108.248 74.994 107.506 73.8357 107.129C73.1459 106.908 72.5603 106.843 70.5561 106.791L68.1094 106.739V113.91Z" fill="white"/>
<path d="M105.889 111.476C105.941 116.564 106.006 117.111 106.696 118.295C107.711 120.026 110.08 121.08 113.008 121.08H114.179V119.727V118.386L112.722 118.321C111.043 118.256 110.353 118.022 109.611 117.28C108.974 116.655 108.831 116.07 108.752 113.948L108.674 112.1H111.368H114.049V110.669V109.237H111.381H108.713V108.001V106.765H107.269H105.824L105.889 111.476Z" fill="white"/>
<path d="M131.881 111.124C131.881 115.888 131.985 116.877 132.61 118.113C133.547 119.961 135.967 121.08 139.052 121.08H140.21V119.714V118.347H139C136.969 118.347 135.629 117.736 135.121 116.577C134.757 115.757 134.601 113.597 134.64 109.94L134.679 106.83L133.286 106.791L131.881 106.752V111.124Z" fill="white"/>
<path d="M85.0914 126.494C84.9743 126.676 84.3886 127.054 83.7769 127.353C82.1241 128.16 81.6426 128.863 81.6426 130.386C81.6556 131.986 82.8399 133.08 84.3365 132.871C85.5859 132.702 86.2627 131.934 86.2627 130.685C86.2627 129.891 86.0414 129.462 85.3907 128.98C84.8571 128.59 83.855 128.538 83.2043 128.876C82.918 129.019 82.6837 129.084 82.6837 129.019C82.6837 128.811 83.4906 128.29 84.4407 127.861C85.69 127.301 86.1325 126.69 85.5599 126.325C85.3517 126.195 85.2736 126.221 85.0914 126.494ZM84.9222 129.592C85.0523 129.67 85.2476 129.93 85.3647 130.177C85.8332 131.166 85.0263 132.221 83.868 132.103C82.2673 131.934 81.994 129.865 83.5166 129.423C83.9591 129.292 84.5578 129.357 84.9222 129.592Z" fill="white"/>
<path d="M99.3438 127.132C99.3438 127.458 99.3438 127.458 100.58 127.458C101.816 127.458 101.816 127.458 101.816 127.132C101.816 126.807 101.816 126.807 100.58 126.807C99.3438 126.807 99.3438 126.807 99.3438 127.132Z" fill="white"/>
<path d="M49.7998 128.108C49.2922 128.225 48.7196 128.577 48.7066 128.798C48.6936 128.876 48.6545 128.772 48.6025 128.564C48.5374 128.264 48.4463 128.16 48.16 128.134L47.8086 128.095V131.349V134.615H48.199H48.5895V133.366V132.117L48.9799 132.455C50.3724 133.613 52.6109 132.442 52.6239 130.555C52.6239 129.8 52.4547 129.319 51.9992 128.85C51.3875 128.199 50.5937 127.926 49.7998 128.108ZM51.1663 129.123C52.1554 129.761 52.0122 131.388 50.919 131.96C49.8909 132.481 48.5895 131.7 48.5895 130.542C48.5895 129.149 50.008 128.368 51.1663 129.123Z" fill="white"/>
<path d="M65.7947 128.134C65.4954 128.186 65.0659 128.342 64.8707 128.499C63.8946 129.188 63.6473 130.971 64.3892 131.947C65.2481 133.067 67.0311 133.249 68.0072 132.312C68.4496 131.882 68.4496 131.83 68.0592 131.648C67.8119 131.544 67.7078 131.557 67.4736 131.791C67.2523 132.026 67.0441 132.078 66.4064 132.078C65.6646 132.078 65.5995 132.052 65.17 131.596C64.9227 131.323 64.7275 131.049 64.7275 130.971C64.7275 130.893 65.4433 130.841 66.6797 130.841H68.6318V130.36C68.6318 130.099 68.5147 129.631 68.3585 129.319C67.89 128.355 66.966 127.926 65.7947 128.134ZM67.3434 129.24C67.5386 129.436 67.7338 129.735 67.7859 129.891C67.864 130.19 67.864 130.19 66.3673 130.19C65.5474 130.19 64.8447 130.138 64.8056 130.086C64.7666 130.021 64.8577 129.787 65.0008 129.553C65.5084 128.707 66.6797 128.551 67.3434 129.24Z" fill="white"/>
<path d="M77.8961 128.134C77.2193 128.277 76.3734 129.058 76.2433 129.657C76.1652 130.008 76.1001 130.06 75.7097 130.06H75.2672V129.084V128.108H74.8768H74.4863V130.451V132.793H74.8768H75.2672V131.817V130.841H75.7097C76.0871 130.841 76.1522 130.893 76.2172 131.219C76.3214 131.739 76.92 132.403 77.5447 132.676C79.3797 133.509 81.3709 131.83 80.8503 129.878C80.499 128.538 79.3016 127.835 77.8961 128.134ZM79.64 129.332C80.0304 129.722 80.0825 129.852 80.0825 130.438C80.0825 131.01 80.0174 131.167 79.653 131.57C78.8722 132.429 77.5837 132.247 77.0502 131.193C76.7118 130.542 76.8419 129.891 77.4146 129.319C77.792 128.941 77.9221 128.889 78.5208 128.889C79.1194 128.889 79.2496 128.941 79.64 129.332Z" fill="white"/>
<path d="M111.707 128.108C111.46 128.147 111.122 128.264 110.966 128.343C110.614 128.538 110.081 129.227 109.95 129.644C109.794 130.152 109.859 131.193 110.055 131.583C110.64 132.702 112.072 133.21 113.243 132.728C113.712 132.52 114.31 132.052 114.31 131.882C114.31 131.713 113.608 131.466 113.555 131.609C113.399 132.091 112.111 132.286 111.447 131.947C111.122 131.778 110.666 131.167 110.666 130.906C110.666 130.867 111.551 130.841 112.618 130.841C114.558 130.841 114.571 130.841 114.571 130.542C114.571 128.98 113.217 127.822 111.707 128.108ZM112.801 128.941C113.269 129.136 113.66 129.592 113.66 129.956C113.66 130.165 113.516 130.191 112.163 130.191C110.523 130.191 110.432 130.138 110.953 129.475C111.213 129.136 111.851 128.772 112.202 128.759C112.293 128.759 112.566 128.837 112.801 128.941Z" fill="white"/>
<path d="M121.936 128.121C120.83 128.381 120.166 129.253 120.166 130.425C120.166 131.57 120.569 132.234 121.533 132.676C122.444 133.093 123.576 132.923 124.292 132.247C124.669 131.895 124.669 131.83 124.305 131.661C124.083 131.557 123.927 131.596 123.576 131.843C122.756 132.39 121.559 132.156 121.142 131.362C121.038 131.153 120.947 130.958 120.947 130.906C120.947 130.867 121.832 130.841 122.899 130.841H124.851V130.464C124.851 129.514 124.018 128.329 123.237 128.173C123.016 128.121 122.743 128.069 122.639 128.043C122.535 128.03 122.209 128.056 121.936 128.121ZM123.081 128.941C123.55 129.136 123.94 129.592 123.94 129.956C123.94 130.164 123.797 130.19 122.444 130.19C120.804 130.19 120.713 130.138 121.233 129.475C121.493 129.136 122.131 128.772 122.483 128.759C122.574 128.759 122.847 128.837 123.081 128.941Z" fill="white"/>
<path d="M131.686 128.108C130.515 128.381 129.799 129.253 129.799 130.438C129.799 131.284 130.033 131.856 130.554 132.299C131.113 132.767 131.79 132.976 132.506 132.871C134.614 132.585 135.343 129.969 133.703 128.577C133.17 128.134 132.363 127.939 131.686 128.108ZM133.261 129.319C134.432 130.386 133.534 132.286 131.946 132.091C131.204 131.999 130.58 131.31 130.58 130.581C130.58 129.514 131.165 128.889 132.167 128.889C132.688 128.889 132.87 128.954 133.261 129.319Z" fill="white"/>
<path d="M42.8354 129.696C42.7704 131.479 42.6142 132.012 42.1196 132.012C41.8333 132.012 41.8203 132.052 41.8203 132.976C41.8203 133.887 41.8333 133.939 42.1457 133.991C42.5621 134.082 42.6012 134.03 42.6012 133.353V132.793H44.3581H46.115V133.418C46.115 134.03 46.1281 134.056 46.4795 134.03C46.8308 134.017 46.8308 134.004 46.8699 133.015C46.9089 132.012 46.9089 132.012 46.5706 132.012H46.2452V130.06V128.108H44.5663H42.8875L42.8354 129.696ZM45.4643 130.451V132.012H44.4102C43.369 132.012 43.356 132.012 43.4471 131.713C43.4992 131.557 43.5642 130.854 43.6033 130.151L43.6684 128.889H44.5663H45.4643V130.451Z" fill="white"/>
<path d="M52.9219 128.264C52.9609 128.355 53.4034 129.384 53.911 130.555C54.4185 131.726 54.835 132.754 54.835 132.858C54.835 133.145 54.1973 133.808 53.885 133.861C53.6767 133.887 53.5856 134.004 53.5596 134.251C53.5206 134.563 53.5596 134.615 53.8719 134.615C54.3014 134.615 55.0042 134.199 55.2775 133.769C55.5118 133.418 57.4379 128.473 57.4379 128.238C57.4379 128.004 56.6961 128.095 56.5919 128.329C56.5399 128.46 56.2666 129.201 55.9933 129.995C55.707 130.776 55.4207 131.479 55.3686 131.531C55.3035 131.596 54.9782 131.01 54.6528 130.23C53.7028 128.056 53.7808 128.173 53.2863 128.134C52.9609 128.095 52.8698 128.134 52.9219 128.264Z" fill="white"/>
<path d="M57.8279 128.199C57.8279 128.238 58.1663 128.694 58.5828 129.201C58.9992 129.709 59.3896 130.203 59.4417 130.295C59.4938 130.386 59.2335 130.828 58.7259 131.466C58.2834 132.012 57.854 132.546 57.7889 132.624C57.6978 132.754 57.7759 132.793 58.1273 132.793C58.5567 132.793 58.6608 132.715 59.4157 131.739L60.2356 130.685L60.2746 131.739L60.3137 132.793H60.6911H61.0685L61.1075 131.713L61.1466 130.646L61.9795 131.713C62.7343 132.689 62.8645 132.793 63.2549 132.793C63.4892 132.793 63.6844 132.754 63.6844 132.715C63.6844 132.663 63.2679 132.143 62.7604 131.531L61.8363 130.438L62.1747 130.021C62.3439 129.787 62.7734 129.266 63.0987 128.85L63.7104 128.108H63.2549C62.8385 128.108 62.7213 128.199 62.0316 129.071C61.6151 129.605 61.2377 130.047 61.1856 130.047C61.1206 130.06 61.0815 129.618 61.0815 129.084V128.108H60.6911H60.3137L60.2746 129.097L60.2356 130.099L59.4157 129.097C58.7389 128.264 58.5437 128.108 58.2184 128.108C57.9971 128.108 57.8279 128.147 57.8279 128.199Z" fill="white"/>
<path d="M69.7997 129.774C69.7997 131.544 69.6695 132.012 69.1359 132.012C68.9537 132.012 68.8887 132.103 68.8887 132.403C68.8887 132.754 68.9277 132.793 69.2791 132.793C69.5264 132.793 69.8257 132.65 70.086 132.416L70.5155 132.038L70.5805 130.49L70.6456 128.954L71.5306 128.915L72.4025 128.876V130.841V132.793H72.793H73.1704L73.2094 130.737C73.2615 127.796 73.4697 128.108 71.4785 128.108H69.7997V129.774Z" fill="white"/>
<path d="M87.2005 128.199C87.1484 128.238 87.1094 129.292 87.1094 130.542V132.793H87.4998H87.8772L87.9163 131.843L87.9553 130.906L89.1656 130.867L90.363 130.828V131.817V132.793H90.7534H91.1438V130.451V128.108H90.7534H90.363V129.084V130.06H89.1266H87.8902V129.084C87.8902 128.147 87.8772 128.108 87.5909 128.108C87.4217 128.108 87.2395 128.147 87.2005 128.199Z" fill="white"/>
<path d="M92.4326 128.16C92.3936 128.199 92.3805 129.24 92.3936 130.477L92.4326 132.728L93.5388 132.767C94.9053 132.806 95.478 132.611 95.7773 131.973C96.0636 131.375 95.9335 130.737 95.4389 130.255C95.1266 129.956 94.9314 129.891 94.1505 129.826L93.2395 129.761L93.2004 128.967C93.1614 128.225 93.1354 128.173 92.836 128.134C92.6538 128.108 92.4716 128.121 92.4326 128.16ZM94.9183 130.841C95.2307 131.153 95.2437 131.336 94.9704 131.726C94.8012 131.973 94.6581 132.012 93.9943 132.012H93.2265V131.297V130.581H93.9423C94.4889 130.581 94.7231 130.646 94.9183 130.841Z" fill="white"/>
<path d="M96.5318 128.277C96.4927 128.382 96.4797 129.423 96.5057 130.594L96.5448 132.728L96.9742 132.767L97.3907 132.806L97.3647 130.49L97.3256 128.173L96.9612 128.134C96.74 128.108 96.5838 128.16 96.5318 128.277Z" fill="white"/>
<path d="M98.5625 130.451V132.793L98.9269 132.78C99.2132 132.78 99.4605 132.546 100.385 131.349C100.983 130.568 101.556 129.852 101.647 129.774C101.79 129.67 101.816 129.943 101.816 131.218V132.793H102.207H102.597V130.451V128.108H102.285C102.024 128.108 101.712 128.433 100.749 129.67C100.085 130.516 99.4995 131.218 99.4475 131.231C99.3824 131.231 99.3434 130.529 99.3434 129.67V128.108H98.9529H98.5625V130.451Z" fill="white"/>
<path d="M105.592 128.498V128.889H106.373H107.154V130.841V132.793H107.544H107.921L107.96 130.867L107.999 128.954L108.754 128.889C109.158 128.85 109.496 128.785 109.496 128.72C109.496 128.668 109.496 128.511 109.496 128.368C109.496 128.121 109.405 128.108 107.544 128.108H105.592V128.498Z" fill="white"/>
<path d="M115.743 129.696C115.743 131.427 115.613 131.921 115.118 131.986C114.897 132.025 114.832 132.117 114.832 132.416C114.832 132.741 114.884 132.793 115.209 132.793C115.717 132.793 116.225 132.351 116.394 131.778C116.459 131.518 116.524 130.75 116.524 130.086V128.889H117.435H118.346V130.841V132.793H118.736H119.127V130.451V128.108H117.435H115.743V129.696Z" fill="white"/>
<path d="M125.764 130.451V132.793H126.154H126.545V131.752C126.545 131.179 126.571 130.711 126.597 130.711C126.623 130.711 127.104 131.179 127.664 131.752C128.601 132.715 128.705 132.793 129.199 132.793H129.733L128.562 131.622L127.403 130.451L128.106 129.709C128.497 129.305 128.978 128.837 129.186 128.655C129.655 128.238 129.629 128.108 129.069 128.108C128.653 128.108 128.497 128.212 127.677 129.084C127.182 129.618 126.714 130.06 126.662 130.06C126.597 130.06 126.545 129.618 126.545 129.084V128.108H126.154H125.764V130.451Z" fill="white"/>
<path d="M135.615 128.199C135.562 128.238 135.523 129.292 135.523 130.542V132.793H135.914H136.304V131.153C136.304 130.255 136.356 129.553 136.408 129.592C136.473 129.631 136.812 130.125 137.15 130.711C137.502 131.284 137.827 131.752 137.879 131.752C137.931 131.752 138.282 131.245 138.673 130.62L139.363 129.488L139.402 131.14L139.441 132.793H139.818H140.209V130.451V128.108H139.792C139.389 128.108 139.311 128.186 138.647 129.279C138.256 129.917 137.905 130.451 137.866 130.451C137.827 130.451 137.489 129.917 137.098 129.279C136.5 128.264 136.356 128.108 136.057 128.108C135.862 128.108 135.654 128.147 135.615 128.199Z" fill="white"/>
</svg>
