<svg width="105" height="105" viewBox="0 0 180 180" fill="none" xmlns="http://www.w3.org/2000/svg">
<g clip-path="url(#clip0_399_2588)">
<mask id="mask0_399_2588" style="mask-type:luminance" maskUnits="userSpaceOnUse" x="31" y="31" width="118" height="118">
<path d="M149 31H31V149H149V31Z" fill="white"/>
</mask>
<g mask="url(#mask0_399_2588)">
<path opacity="0.45" d="M149 31H31V149H149V31Z" fill="white"/>
<path d="M109.607 40.0747V45.5053H121.482V67.3H128.12V45.5053H139.97V40.0747H109.607Z" fill="white"/>
<path d="M66.9192 40.0747L58.2301 58.0802L49.5655 40.0747H40.0801V67.3H46.7416V47.8223L55.2132 64.2829H61.2713L69.7429 47.8223V67.3H76.3804V40.0747H66.9192Z" fill="white"/>
<path d="M133.338 130.85C133.169 131.936 132.735 132.829 132.035 133.505C131.383 134.132 130.49 134.591 129.38 134.856C128.294 135.098 126.677 135.242 124.987 135.242C123.225 135.242 121.68 135.025 120.353 134.567C119.074 134.132 118.06 133.36 117.36 132.298C116.636 131.236 116.274 129.691 116.274 127.688V124.912C116.274 122.933 116.636 121.388 117.36 120.302C118.084 119.24 119.074 118.468 120.353 118.034C121.656 117.575 123.225 117.358 124.987 117.358C126.677 117.358 128.294 117.503 129.38 117.744C130.49 118.01 131.383 118.444 132.035 119.095C132.735 119.771 133.169 120.664 133.338 121.75H139.975C139.782 119.506 139.034 117.599 137.707 116.055C136.5 114.655 134.81 113.641 132.711 113.013C130.683 112.41 128.004 112.096 124.987 112.096C121.801 112.096 119.05 112.555 116.781 113.448C114.488 114.365 112.702 115.886 111.471 117.985C110.288 119.989 109.685 122.692 109.637 125.974V126.288L109.999 126.312L109.637 126.336V126.361V126.65C109.685 129.933 110.288 132.636 111.471 134.639C112.702 136.739 114.488 138.259 116.781 139.177C119.05 140.07 121.801 140.528 124.987 140.528C128.004 140.528 130.683 140.215 132.711 139.611C134.81 138.984 136.476 137.97 137.707 136.57C139.034 135.049 139.806 133.118 139.975 130.874H133.338V130.85Z" fill="white"/>
</g>
</g>
<defs>
<clipPath id="clip0_399_2588">
<rect width="118" height="118" fill="white" transform="translate(31 31)"/>
</clipPath>
</defs>
</svg>
