<svg width="40" height="41" viewBox="0 0 40 41" fill="none" xmlns="http://www.w3.org/2000/svg">
<circle cx="19.9375" cy="20.5005" r="19.9375" fill="url(#paint0_linear_550_3664)"/>
<g clip-path="url(#clip0_550_3664)">
<path d="M16.4243 13.4099C16.8844 12.977 17.4307 12.6336 18.032 12.3994C18.6332 12.1651 19.2776 12.0445 19.9284 12.0445C20.5792 12.0445 21.2236 12.1651 21.8248 12.3994C22.4261 12.6336 22.9724 12.977 23.4325 13.4099C23.4978 13.4735 23.5759 13.5242 23.6623 13.5591C23.7487 13.594 23.8416 13.6123 23.9356 13.6131C24.0296 13.6139 24.1228 13.597 24.2098 13.5636C24.2968 13.5301 24.3758 13.4806 24.4423 13.4181C24.5087 13.3556 24.5613 13.2813 24.5969 13.1994C24.6325 13.1176 24.6504 13.0299 24.6496 12.9415C24.6488 12.8531 24.6292 12.7657 24.5921 12.6845C24.555 12.6032 24.5011 12.5298 24.4335 12.4684C23.8419 11.9119 23.1395 11.4705 22.3665 11.1693C21.5936 10.8681 20.7651 10.7131 19.9284 10.7131C19.0917 10.7131 18.2633 10.8681 17.4903 11.1693C16.7173 11.4705 16.0149 11.9119 15.4233 12.4684C15.2944 12.5939 15.223 12.7621 15.2246 12.9367C15.2262 13.1113 15.3007 13.2783 15.4319 13.4017C15.5632 13.5252 15.7408 13.5952 15.9264 13.5967C16.112 13.5983 16.2908 13.5311 16.4243 13.4099Z" fill="white"/>
<path d="M18.5246 15.5871C18.898 15.2021 19.4041 14.9859 19.9318 14.9859C20.4595 14.9859 20.9656 15.2021 21.3389 15.5871C21.4636 15.7158 21.6326 15.788 21.8089 15.788C21.9851 15.788 22.1541 15.7158 22.2788 15.5871C22.4034 15.4584 22.4734 15.2839 22.4734 15.102C22.4734 14.92 22.4034 14.7455 22.2788 14.6168C21.9706 14.2986 21.6047 14.0461 21.202 13.8739C20.7993 13.7017 20.3677 13.613 19.9318 13.613C19.4959 13.613 19.0642 13.7017 18.6615 13.8739C18.2588 14.0461 17.8929 14.2986 17.5848 14.6168C17.4639 14.7461 17.397 14.9191 17.3985 15.0988C17.4 15.2785 17.4698 15.4503 17.5928 15.5774C17.7159 15.7044 17.8824 15.7765 18.0564 15.778C18.2305 15.7796 18.3981 15.7105 18.5233 15.5857L18.5246 15.5871Z" fill="white"/>
<path d="M12.8768 12.6616C12.8503 12.5722 12.8058 12.489 12.746 12.4169C12.6861 12.3448 12.6122 12.2854 12.5285 12.2422C12.4448 12.1989 12.3531 12.1728 12.2589 12.1653C12.1648 12.1578 12.07 12.1692 11.9804 12.1986C11.8908 12.2281 11.8081 12.275 11.7373 12.3367C11.6665 12.3984 11.6091 12.4736 11.5685 12.5576C11.5278 12.6417 11.5048 12.733 11.5008 12.8261C11.4968 12.9191 11.5119 13.012 11.5451 13.0992L14.0455 20.4967H10.8063C10.2474 20.4967 9.7115 20.7156 9.31635 21.1051C8.92121 21.4947 8.69922 22.023 8.69922 22.5739V25.3435C8.69922 25.8944 8.92121 26.4228 9.31635 26.8123C9.7115 27.2018 10.2474 27.4207 10.8063 27.4207H11.5086C11.5086 27.6043 11.5826 27.7804 11.7143 27.9103C11.846 28.0401 12.0247 28.1131 12.2109 28.1131H15.0203C15.2066 28.1131 15.3852 28.0401 15.5169 27.9103C15.6487 27.7804 15.7227 27.6043 15.7227 27.4207H24.1508C24.1508 27.6043 24.2248 27.7804 24.3565 27.9103C24.4882 28.0401 24.6669 28.1131 24.8531 28.1131H27.6625C27.8488 28.1131 28.0274 28.0401 28.1591 27.9103C28.2908 27.7804 28.3648 27.6043 28.3648 27.4207H29.0672C29.626 27.4207 30.1619 27.2018 30.5571 26.8123C30.9522 26.4228 31.1742 25.8944 31.1742 25.3435V22.5739C31.1742 22.023 30.9522 21.4947 30.5571 21.1051C30.1619 20.7156 29.626 20.4967 29.0672 20.4967H25.828L28.3283 13.0992C28.3616 13.012 28.3766 12.9191 28.3726 12.8261C28.3686 12.733 28.3456 12.6417 28.305 12.5576C28.2643 12.4736 28.2069 12.3984 28.1361 12.3367C28.0653 12.275 27.9827 12.2281 27.893 12.1986C27.8034 12.1692 27.7087 12.1578 27.6145 12.1653C27.5203 12.1728 27.4287 12.1989 27.345 12.2422C27.2613 12.2854 27.1873 12.3448 27.1275 12.4169C27.0676 12.489 27.0231 12.5722 26.9967 12.6616L24.3474 20.4967H15.526L12.8768 12.6616ZM12.2109 24.6511C12.0247 24.6511 11.846 24.5782 11.7143 24.4483C11.5826 24.3185 11.5086 24.1424 11.5086 23.9587C11.5086 23.7751 11.5826 23.599 11.7143 23.4691C11.846 23.3393 12.0247 23.2663 12.2109 23.2663C12.3972 23.2663 12.5759 23.3393 12.7076 23.4691C12.8393 23.599 12.9133 23.7751 12.9133 23.9587C12.9133 24.1424 12.8393 24.3185 12.7076 24.4483C12.5759 24.5782 12.3972 24.6511 12.2109 24.6511ZM18.532 23.9587C18.532 23.7751 18.606 23.599 18.7377 23.4691C18.8695 23.3393 19.0481 23.2663 19.2344 23.2663C19.4206 23.2663 19.5993 23.3393 19.731 23.4691C19.8627 23.599 19.9367 23.7751 19.9367 23.9587C19.9367 24.1424 19.8627 24.3185 19.731 24.4483C19.5993 24.5782 19.4206 24.6511 19.2344 24.6511C19.0481 24.6511 18.8695 24.5782 18.7377 24.4483C18.606 24.3185 18.532 24.1424 18.532 23.9587ZM22.0437 24.6511C21.8575 24.6511 21.6788 24.5782 21.5471 24.4483C21.4154 24.3185 21.3414 24.1424 21.3414 23.9587C21.3414 23.7751 21.4154 23.599 21.5471 23.4691C21.6788 23.3393 21.8575 23.2663 22.0437 23.2663C22.23 23.2663 22.4087 23.3393 22.5404 23.4691C22.6721 23.599 22.7461 23.7751 22.7461 23.9587C22.7461 24.1424 22.6721 24.3185 22.5404 24.4483C22.4087 24.5782 22.23 24.6511 22.0437 24.6511ZM24.1508 23.9587C24.1508 23.7751 24.2248 23.599 24.3565 23.4691C24.4882 23.3393 24.6669 23.2663 24.8531 23.2663C25.0394 23.2663 25.218 23.3393 25.3498 23.4691C25.4815 23.599 25.5555 23.7751 25.5555 23.9587C25.5555 24.1424 25.4815 24.3185 25.3498 24.4483C25.218 24.5782 25.0394 24.6511 24.8531 24.6511C24.6669 24.6511 24.4882 24.5782 24.3565 24.4483C24.2248 24.3185 24.1508 24.1424 24.1508 23.9587ZM26.9602 23.9587C26.9602 23.7751 27.0342 23.599 27.1659 23.4691C27.2976 23.3393 27.4762 23.2663 27.6625 23.2663C27.8488 23.2663 28.0274 23.3393 28.1591 23.4691C28.2908 23.599 28.3648 23.7751 28.3648 23.9587C28.3648 24.1424 28.2908 24.3185 28.1591 24.4483C28.0274 24.5782 27.8488 24.6511 27.6625 24.6511C27.4762 24.6511 27.2976 24.5782 27.1659 24.4483C27.0342 24.3185 26.9602 24.1424 26.9602 23.9587Z" fill="white"/>
<path d="M21.0242 17.2382C21.0242 17.4305 20.9478 17.6149 20.8119 17.7508C20.6759 17.8868 20.4915 17.9632 20.2992 17.9632C20.1069 17.9632 19.9225 17.8868 19.7866 17.7508C19.6506 17.6149 19.5742 17.4305 19.5742 17.2382C19.5742 17.0459 19.6506 16.8615 19.7866 16.7255C19.9225 16.5896 20.1069 16.5132 20.2992 16.5132C20.4915 16.5132 20.6759 16.5896 20.8119 16.7255C20.9478 16.8615 21.0242 17.0459 21.0242 17.2382Z" fill="white"/>
</g>
<defs>
<linearGradient id="paint0_linear_550_3664" x1="-15.95" y1="25.5755" x2="49.8115" y2="19.8123" gradientUnits="userSpaceOnUse">
<stop stop-color="#2C55E8"/>
<stop offset="1" stop-color="#7EAEFE"/>
</linearGradient>
<clipPath id="clip0_550_3664">
<rect width="22.475" height="22.475" fill="white" transform="translate(8.69922 9.26294)"/>
</clipPath>
</defs>
</svg>
