<svg width="40" height="41" viewBox="0 0 40 41" fill="none" xmlns="http://www.w3.org/2000/svg">
<circle cx="19.9375" cy="20.438" r="19.9375" fill="url(#paint0_linear_550_3656)"/>
<g clip-path="url(#clip0_550_3656)">
<path d="M22.053 15.6722L19.4176 12.315L21.3055 11.9441L23.9313 15.3013L22.053 15.6722ZM28.6366 14.3788L27.8891 10.6506L24.1229 11.3925L26.7487 14.7592L28.6366 14.3788ZM19.2355 16.2334L16.6097 12.8571L14.7219 13.247L17.3572 16.6043L19.2355 16.2334ZM9.83444 18.0879V27.5985C9.83444 28.103 10.0364 28.5868 10.3958 28.9435C10.7552 29.3002 11.2428 29.5006 11.7511 29.5006H27.0841C28.1479 29.5006 29.0008 28.6542 29.0008 27.5985V18.0879H9.83444ZM11.9044 13.8082L10.9653 13.9889C10.4685 14.0899 10.032 14.3812 9.75035 14.7996C9.46868 15.218 9.36461 15.7298 9.4607 16.2238L9.83444 18.0879L14.5302 17.1654L11.9044 13.8082Z" fill="white"/>
</g>
<defs>
<linearGradient id="paint0_linear_550_3656" x1="-15.95" y1="25.513" x2="49.8115" y2="19.7498" gradientUnits="userSpaceOnUse">
<stop stop-color="#2C55E8"/>
<stop offset="1" stop-color="#7EAEFE"/>
</linearGradient>
<clipPath id="clip0_550_3656">
<rect width="21.75" height="19.575" fill="white" transform="translate(8.69922 10.6506)"/>
</clipPath>
</defs>
</svg>
