<svg width="40" height="41" viewBox="0 0 40 41" fill="none" xmlns="http://www.w3.org/2000/svg">
<circle cx="19.9375" cy="20.5005" r="19.9375" fill="url(#paint0_linear_550_3641)"/>
<path d="M25.3568 22.458C25.4496 21.6924 25.5192 20.9268 25.5192 20.138C25.5192 19.3492 25.4496 18.5836 25.3568 17.818H29.2776C29.4632 18.5604 29.5792 19.3376 29.5792 20.138C29.5792 20.9384 29.4632 21.7156 29.2776 22.458M23.3036 28.9076C23.9996 27.62 24.5332 26.228 24.9044 24.778H28.3264C27.2026 26.7132 25.4196 28.1791 23.3036 28.9076ZM23.0136 22.458H17.5848C17.4688 21.6924 17.3992 20.9268 17.3992 20.138C17.3992 19.3492 17.4688 18.572 17.5848 17.818H23.0136C23.118 18.572 23.1992 19.3492 23.1992 20.138C23.1992 20.9268 23.118 21.6924 23.0136 22.458ZM20.2992 29.3716C19.3364 27.9796 18.5592 26.4368 18.0836 24.778H22.5148C22.0392 26.4368 21.262 27.9796 20.2992 29.3716ZM15.6592 15.498H12.272C13.384 13.5573 15.1658 12.089 17.2832 11.3684C16.5872 12.656 16.0652 14.048 15.6592 15.498ZM12.272 24.778H15.6592C16.0652 26.228 16.5872 27.62 17.2832 28.9076C15.17 28.1794 13.3906 26.7131 12.272 24.778ZM11.3208 22.458C11.1352 21.7156 11.0192 20.9384 11.0192 20.138C11.0192 19.3376 11.1352 18.5604 11.3208 17.818H15.2416C15.1488 18.5836 15.0792 19.3492 15.0792 20.138C15.0792 20.9268 15.1488 21.6924 15.2416 22.458M20.2992 10.8928C21.262 12.2848 22.0392 13.8392 22.5148 15.498H18.0836C18.5592 13.8392 19.3364 12.2848 20.2992 10.8928ZM28.3264 15.498H24.9044C24.5408 14.0614 24.0032 12.6746 23.3036 11.3684C25.438 12.0992 27.2128 13.5724 28.3264 15.498ZM20.2992 8.53796C13.8844 8.53796 8.69922 13.758 8.69922 20.138C8.69922 23.2145 9.92136 26.165 12.0968 28.3404C13.1739 29.4176 14.4527 30.272 15.8601 30.855C17.2675 31.4379 18.7759 31.738 20.2992 31.738C23.3757 31.738 26.3262 30.5158 28.5017 28.3404C30.6771 26.165 31.8992 23.2145 31.8992 20.138C31.8992 18.6146 31.5992 17.1062 31.0162 15.6988C30.4333 14.2915 29.5788 13.0127 28.5017 11.9355C27.4245 10.8584 26.1457 10.0039 24.7383 9.42096C23.331 8.83801 21.8226 8.53796 20.2992 8.53796Z" fill="white"/>
<defs>
<linearGradient id="paint0_linear_550_3641" x1="-15.95" y1="25.5755" x2="49.8115" y2="19.8123" gradientUnits="userSpaceOnUse">
<stop stop-color="#2C55E8"/>
<stop offset="1" stop-color="#7EAEFE"/>
</linearGradient>
</defs>
</svg>
