<svg width="40" height="41" viewBox="0 0 40 41" fill="none" xmlns="http://www.w3.org/2000/svg">
<circle cx="19.9375" cy="20.5005" r="19.9375" fill="url(#paint0_linear_550_3676)"/>
<path d="M10.875 14.483C10.875 13.8677 11.1176 13.2776 11.5495 12.8425C11.9814 12.4074 12.5672 12.163 13.1779 12.163H26.9956C27.6064 12.163 28.1921 12.4074 28.624 12.8425C29.0559 13.2776 29.2985 13.8677 29.2985 14.483V15.9538C28.9484 15.7502 28.5513 15.643 28.1471 15.643H25.8441C25.2333 15.643 24.6476 15.8874 24.2157 16.3225C23.7838 16.7576 23.5412 17.3477 23.5412 17.963V19.4338C23.1911 19.6375 22.9004 19.9303 22.6983 20.283C22.4961 20.6357 22.3897 21.0357 22.3897 21.443V23.9706C22.3896 24.2989 22.4587 24.6235 22.5924 24.923H13.1779C12.5672 24.923 11.9814 24.6785 11.5495 24.2435C11.1176 23.8084 10.875 23.2183 10.875 22.603V14.483ZM28.1471 16.803C28.4524 16.803 28.7453 16.9252 28.9613 17.1427C29.1772 17.3603 29.2985 17.6553 29.2985 17.963V20.283C29.6039 20.283 29.8968 20.4052 30.1127 20.6227C30.3287 20.8403 30.45 21.1353 30.45 21.443V24.0019C30.45 24.247 30.3731 24.4858 30.2301 24.684L28.7228 26.772V28.403C28.7228 28.7106 28.6015 29.0057 28.3855 29.2232C28.1696 29.4408 27.8767 29.563 27.5713 29.563H26.4199C26.1145 29.563 25.8216 29.4408 25.6056 29.2232C25.3897 29.0057 25.2684 28.7106 25.2684 28.403V26.772L23.7565 24.6457C23.6168 24.4492 23.5415 24.2135 23.5412 23.9718V21.443C23.5412 21.1353 23.6625 20.8403 23.8784 20.6227C24.0944 20.4052 24.3873 20.283 24.6926 20.283V17.963C24.6926 17.6553 24.814 17.3603 25.0299 17.1427C25.2458 16.9252 25.5387 16.803 25.8441 16.803H28.1471ZM28.1471 20.283V17.963H25.8441V20.283H28.1471ZM24.1169 27.1444L23.3627 26.083H14.9051C14.7525 26.083 14.606 26.1441 14.498 26.2528C14.3901 26.3616 14.3294 26.5091 14.3294 26.663C14.3294 26.8168 14.3901 26.9643 14.498 27.0731C14.606 27.1819 14.7525 27.243 14.9051 27.243H24.1169V27.1444Z" fill="white"/>
<defs>
<linearGradient id="paint0_linear_550_3676" x1="-15.95" y1="25.5755" x2="49.8115" y2="19.8123" gradientUnits="userSpaceOnUse">
<stop stop-color="#2C55E8"/>
<stop offset="1" stop-color="#7EAEFE"/>
</linearGradient>
</defs>
</svg>
