<svg width="40" height="41" viewBox="0 0 40 41" fill="none" xmlns="http://www.w3.org/2000/svg">
<circle cx="19.9375" cy="20.438" r="19.9375" fill="url(#paint0_linear_550_3647)"/>
<path fill-rule="evenodd" clip-rule="evenodd" d="M29.7254 22.3412V18.5349C29.7254 15.8439 29.7254 14.4975 28.9143 13.662C28.1531 12.876 26.9554 12.8284 24.6504 12.8256V28.0506C26.9554 28.0477 28.1531 28.0001 28.9143 27.2141C29.7254 26.3787 29.7254 25.0313 29.7254 22.3412ZM26.9572 17.5843C27.2019 17.5843 27.4366 17.6846 27.6097 17.863C27.7827 18.0415 27.8799 18.2835 27.8799 18.5359C27.8799 18.7883 27.7827 19.0303 27.6097 19.2087C27.4366 19.3872 27.2019 19.4875 26.9572 19.4875C26.7125 19.4875 26.4778 19.3872 26.3047 19.2087C26.1317 19.0303 26.0345 18.7883 26.0345 18.5359C26.0345 18.2835 26.1317 18.0415 26.3047 17.863C26.4778 17.6846 26.7125 17.5843 26.9572 17.5843ZM26.9572 21.3906C27.2019 21.3906 27.4366 21.4908 27.6097 21.6693C27.7827 21.8477 27.8799 22.0898 27.8799 22.3421C27.8799 22.5945 27.7827 22.8365 27.6097 23.015C27.4366 23.1934 27.2019 23.2937 26.9572 23.2937C26.7125 23.2937 26.4778 23.1934 26.3047 23.015C26.1317 22.8365 26.0345 22.5945 26.0345 22.3421C26.0345 22.0898 26.1317 21.8477 26.3047 21.6693C26.4778 21.4908 26.7125 21.3906 26.9572 21.3906Z" fill="white"/>
<path d="M23.7538 10.3825L21.7086 12.78H23.2129V28.0506H16.5694C13.8854 28.0506 12.5425 28.0506 11.7092 27.2116C10.875 26.3737 10.875 25.0232 10.875 22.325V18.5074C10.875 15.8064 10.875 14.4569 11.7092 13.6189C12.5425 12.78 13.8854 12.78 16.5694 12.78H19.0218L16.9775 10.3825C16.8618 10.2376 16.8067 10.0531 16.8238 9.8681C16.841 9.68308 16.9289 9.51201 17.0692 9.39104C17.2094 9.27008 17.391 9.2087 17.5754 9.21988C17.7599 9.23106 17.9327 9.31393 18.0575 9.45097L20.3657 12.1577L22.6719 9.45097C22.7947 9.30668 22.9695 9.21738 23.1578 9.2027C23.3461 9.18803 23.5325 9.24918 23.676 9.3727C23.8195 9.49623 23.9083 9.67201 23.9229 9.86138C23.9375 10.0507 23.8767 10.2382 23.7538 10.3825Z" fill="white"/>
<defs>
<linearGradient id="paint0_linear_550_3647" x1="-15.95" y1="25.513" x2="49.8115" y2="19.7498" gradientUnits="userSpaceOnUse">
<stop stop-color="#2C55E8"/>
<stop offset="1" stop-color="#7EAEFE"/>
</linearGradient>
</defs>
</svg>
