<svg width="24" height="24" viewBox="0 0 24 24" fill="none" xmlns="http://www.w3.org/2000/svg">
<path d="M17.3568 14.458C17.4496 13.6924 17.5192 12.9268 17.5192 12.138C17.5192 11.3492 17.4496 10.5836 17.3568 9.81796H21.2776C21.4632 10.5604 21.5792 11.3376 21.5792 12.138C21.5792 12.9384 21.4632 13.7156 21.2776 14.458M15.3036 20.9076C15.9996 19.62 16.5332 18.228 16.9044 16.778H20.3264C19.2026 18.7132 17.4196 20.1791 15.3036 20.9076ZM15.0136 14.458H9.58482C9.46882 13.6924 9.39922 12.9268 9.39922 12.138C9.39922 11.3492 9.46882 10.572 9.58482 9.81796H15.0136C15.118 10.572 15.1992 11.3492 15.1992 12.138C15.1992 12.9268 15.118 13.6924 15.0136 14.458ZM12.2992 21.3716C11.3364 19.9796 10.5592 18.4368 10.0836 16.778H14.5148C14.0392 18.4368 13.262 19.9796 12.2992 21.3716ZM7.65922 7.49796H4.27202C5.38404 5.55732 7.16582 4.089 9.28322 3.36836C8.58722 4.65596 8.06522 6.04796 7.65922 7.49796ZM4.27202 16.778H7.65922C8.06522 18.228 8.58722 19.62 9.28322 20.9076C7.17001 20.1794 5.39059 18.7131 4.27202 16.778ZM3.32082 14.458C3.13522 13.7156 3.01922 12.9384 3.01922 12.138C3.01922 11.3376 3.13522 10.5604 3.32082 9.81796H7.24162C7.14882 10.5836 7.07922 11.3492 7.07922 12.138C7.07922 12.9268 7.14882 13.6924 7.24162 14.458M12.2992 2.89276C13.262 4.28476 14.0392 5.83916 14.5148 7.49796H10.0836C10.5592 5.83916 11.3364 4.28476 12.2992 2.89276ZM20.3264 7.49796H16.9044C16.5408 6.06143 16.0032 4.67465 15.3036 3.36836C17.438 4.09916 19.2128 5.57236 20.3264 7.49796ZM12.2992 0.537964C5.88442 0.537964 0.699219 5.75796 0.699219 12.138C0.699219 15.2145 1.92136 18.165 4.09678 20.3404C5.17394 21.4176 6.45271 22.272 7.86009 22.855C9.26747 23.4379 10.7759 23.738 12.2992 23.738C15.3757 23.738 18.3262 22.5158 20.5017 20.3404C22.6771 18.165 23.8992 15.2145 23.8992 12.138C23.8992 10.6146 23.5992 9.10621 23.0162 7.69884C22.4333 6.29146 21.5788 5.01268 20.5017 3.93553C19.4245 2.85837 18.1457 2.00392 16.7383 1.42096C15.331 0.838007 13.8226 0.537964 12.2992 0.537964Z" fill="white"/>
</svg>
