<svg width="24" height="24" viewBox="0 0 24 24" fill="none" xmlns="http://www.w3.org/2000/svg">
<path fill-rule="evenodd" clip-rule="evenodd" d="M21.7254 15.3412V11.5349C21.7254 8.84392 21.7254 7.49746 20.9143 6.66199C20.1531 5.87599 18.9554 5.82842 16.6504 5.82556V21.0506C18.9554 21.0477 20.1531 21.0001 20.9143 20.2141C21.7254 19.3787 21.7254 18.0313 21.7254 15.3412ZM18.9572 10.5843C19.2019 10.5843 19.4366 10.6846 19.6097 10.863C19.7827 11.0415 19.8799 11.2835 19.8799 11.5359C19.8799 11.7883 19.7827 12.0303 19.6097 12.2087C19.4366 12.3872 19.2019 12.4875 18.9572 12.4875C18.7125 12.4875 18.4778 12.3872 18.3047 12.2087C18.1317 12.0303 18.0345 11.7883 18.0345 11.5359C18.0345 11.2835 18.1317 11.0415 18.3047 10.863C18.4778 10.6846 18.7125 10.5843 18.9572 10.5843ZM18.9572 14.3906C19.2019 14.3906 19.4366 14.4908 19.6097 14.6693C19.7827 14.8477 19.8799 15.0898 19.8799 15.3421C19.8799 15.5945 19.7827 15.8365 19.6097 16.015C19.4366 16.1934 19.2019 16.2937 18.9572 16.2937C18.7125 16.2937 18.4778 16.1934 18.3047 16.015C18.1317 15.8365 18.0345 15.5945 18.0345 15.3421C18.0345 15.0898 18.1317 14.8477 18.3047 14.6693C18.4778 14.4908 18.7125 14.3906 18.9572 14.3906Z" fill="white"/>
<path d="M15.7538 3.38247L13.7086 5.77996H15.2129V21.0506H8.5694C5.88544 21.0506 4.54251 21.0506 3.70923 20.2116C2.875 19.3737 2.875 18.0232 2.875 15.325V11.5074C2.875 8.8064 2.875 7.45686 3.70923 6.61889C4.54251 5.77996 5.88544 5.77996 8.5694 5.77996H11.0218L8.97749 3.38247C8.86183 3.23757 8.80673 3.05311 8.82384 2.8681C8.84096 2.68308 8.92894 2.51201 9.06919 2.39104C9.20945 2.27008 9.39098 2.2087 9.57542 2.21988C9.75986 2.23106 9.93274 2.31393 10.0575 2.45097L12.3657 5.15768L14.6719 2.45097C14.7947 2.30668 14.9695 2.21738 15.1578 2.2027C15.3461 2.18803 15.5325 2.24918 15.676 2.3727C15.8195 2.49623 15.9083 2.67201 15.9229 2.86138C15.9375 3.05075 15.8767 3.23819 15.7538 3.38247Z" fill="white"/>
</svg>
