<svg width="24" height="25" viewBox="0 0 24 25" fill="none" xmlns="http://www.w3.org/2000/svg">
<path d="M2.875 7.48296C2.875 6.86766 3.11763 6.27756 3.54952 5.84248C3.9814 5.40739 4.56716 5.16296 5.17794 5.16296H18.9956C19.6064 5.16296 20.1921 5.40739 20.624 5.84248C21.0559 6.27756 21.2985 6.86766 21.2985 7.48296V8.95384C20.9484 8.7502 20.5513 8.64298 20.1471 8.64296H17.8441C17.2333 8.64296 16.6476 8.88739 16.2157 9.32248C15.7838 9.75756 15.5412 10.3477 15.5412 10.963V12.4338C15.1911 12.6375 14.9004 12.9303 14.6983 13.283C14.4961 13.6357 14.3897 14.0357 14.3897 14.443V16.9706C14.3896 17.2989 14.4587 17.6235 14.5924 17.923H5.17794C4.56716 17.923 3.9814 17.6785 3.54952 17.2435C3.11763 16.8084 2.875 16.2183 2.875 15.603V7.48296ZM20.1471 9.80296C20.4524 9.80296 20.7453 9.92518 20.9613 10.1427C21.1772 10.3603 21.2985 10.6553 21.2985 10.963V13.283C21.6039 13.283 21.8968 13.4052 22.1127 13.6227C22.3287 13.8403 22.45 14.1353 22.45 14.443V17.0019C22.45 17.247 22.3731 17.4858 22.2301 17.684L20.7228 19.772V21.403C20.7228 21.7106 20.6015 22.0057 20.3855 22.2232C20.1696 22.4408 19.8767 22.563 19.5713 22.563H18.4199C18.1145 22.563 17.8216 22.4408 17.6056 22.2232C17.3897 22.0057 17.2684 21.7106 17.2684 21.403V19.772L15.7565 17.6457C15.6168 17.4492 15.5415 17.2135 15.5412 16.9718V14.443C15.5412 14.1353 15.6625 13.8403 15.8784 13.6227C16.0944 13.4052 16.3873 13.283 16.6926 13.283V10.963C16.6926 10.6553 16.814 10.3603 17.0299 10.1427C17.2458 9.92518 17.5387 9.80296 17.8441 9.80296H20.1471ZM20.1471 13.283V10.963H17.8441V13.283H20.1471ZM16.1169 20.1444L15.3627 19.083H6.90515C6.75245 19.083 6.60601 19.1441 6.49804 19.2528C6.39007 19.3616 6.32941 19.5091 6.32941 19.663C6.32941 19.8168 6.39007 19.9643 6.49804 20.0731C6.60601 20.1819 6.75245 20.243 6.90515 20.243H16.1169V20.1444Z" fill="white"/>
</svg>
