<svg width="140" height="140" viewBox="0 0 140 140" fill="none" xmlns="http://www.w3.org/2000/svg">
<path d="M73.4549 80.851C79.8637 72.9015 94.4583 53.6128 94.4583 42.7888C94.4583 29.6455 83.737 19 70.5 19C57.263 19 46.5417 29.6455 46.5417 42.7888C46.5417 53.6128 61.1363 72.9015 67.5451 80.851C69.0825 82.7541 71.9375 82.7541 73.4549 80.851ZM96.0556 118.715L124.985 107.217C126.802 106.503 128 104.739 128 102.796V49.1325C128 45.7624 124.586 43.4629 121.431 44.7118L98.2717 53.9101C98.1719 54.148 98.0721 54.4057 97.9722 54.6436C97.3932 55.9916 96.7543 57.3595 96.0556 58.7274V118.715ZM16.0148 56.1304C14.1979 56.8639 13 58.6084 13 60.5512V114.235C13 117.605 16.4141 119.904 19.5686 118.655L44.9444 108.565V58.7274C44.2457 57.3595 43.6068 55.9916 43.0278 54.6436C41.9097 52.0268 40.9514 49.2118 40.4722 46.4166L15.9948 56.1304H16.0148ZM89.6667 69.5513C85.5738 75.7562 81.2214 81.3664 78.4462 84.8158C74.3533 89.8907 66.6467 89.8907 62.5538 84.8158C59.7786 81.3664 55.4262 75.7562 51.3333 69.5513V108.089L89.6667 118.973V69.5513Z" fill="url(#paint0_linear_399_1542)"/>
<defs>
<linearGradient id="paint0_linear_399_1542" x1="-16.0863" y1="118.492" x2="146.858" y2="96.2848" gradientUnits="userSpaceOnUse">
<stop stop-color="#284FDC"/>
<stop offset="1" stop-color="#578FEC"/>
</linearGradient>
</defs>
</svg>
