<svg width="140" height="140" viewBox="0 0 140 140" fill="none" xmlns="http://www.w3.org/2000/svg">
<path fill-rule="evenodd" clip-rule="evenodd" d="M49.2308 41.6C49.2308 36.1365 51.4189 30.8968 55.3139 27.0336C59.2089 23.1703 64.4917 21 70 21C75.5083 21 80.7911 23.1703 84.6861 27.0336C88.5811 30.8968 90.7692 36.1365 90.7692 41.6C90.7692 47.0634 88.5811 52.3031 84.6861 56.1664C80.7911 60.0296 75.5083 62.2 70 62.2C64.4917 62.2 59.2089 60.0296 55.3139 56.1664C51.4189 52.3031 49.2308 47.0634 49.2308 41.6ZM90.7692 58.08C90.7692 53.7092 92.5198 49.5175 95.6358 46.4269C98.7518 43.3363 102.978 41.6 107.385 41.6C111.791 41.6 116.017 43.3363 119.133 46.4269C122.249 49.5175 124 53.7092 124 58.08C124 62.4507 122.249 66.6425 119.133 69.7331C116.017 72.8237 111.791 74.56 107.385 74.56C102.978 74.56 98.7518 72.8237 95.6358 69.7331C92.5198 66.6425 90.7692 62.4507 90.7692 58.08ZM16 58.08C16 53.7092 17.7505 49.5175 20.8665 46.4269C23.9825 43.3363 28.2087 41.6 32.6154 41.6C37.0221 41.6 41.2482 43.3363 44.3642 46.4269C47.4802 49.5175 49.2308 53.7092 49.2308 58.08C49.2308 62.4507 47.4802 66.6425 44.3642 69.7331C41.2482 72.8237 37.0221 74.56 32.6154 74.56C28.2087 74.56 23.9825 72.8237 20.8665 69.7331C17.7505 66.6425 16 62.4507 16 58.08ZM38.4862 87.5682C41.8637 82.3156 46.522 77.9926 52.0302 74.9988C57.5385 72.005 63.7189 70.437 70 70.44C75.2605 70.4352 80.4628 71.5325 85.2662 73.6599C90.0696 75.7874 94.3658 78.8971 97.8736 82.7855C101.381 86.6739 104.022 91.2532 105.622 96.2237C107.221 101.194 107.745 106.444 107.158 111.629C107.086 112.273 106.862 112.891 106.504 113.434C106.146 113.976 105.664 114.426 105.097 114.749C94.4166 120.828 82.3139 124.018 70 124C57.6859 124.019 45.5828 120.829 34.9028 114.749C34.3361 114.426 33.8542 113.976 33.4962 113.434C33.1382 112.891 32.9143 112.273 32.8425 111.629C31.9123 103.206 33.9029 94.7193 38.4862 87.5682Z" fill="url(#paint0_linear_399_1522)"/>
<path d="M31.7866 83C26.3388 91.3012 23.8006 101.138 24.5615 111C21.2445 110.504 17.9822 109.7 14.8176 108.601L14.1823 108.383C13.6156 108.184 13.1193 107.828 12.7536 107.356C12.3879 106.885 12.1685 106.319 12.122 105.727L12.0667 105.067C11.8436 102.33 12.1814 99.5761 13.0599 96.9703C13.9385 94.3644 15.3398 91.96 17.1802 89.9005C19.0207 87.841 21.2625 86.1685 23.772 84.9829C26.2815 83.7974 29.0073 83.123 31.7866 83ZM115.438 111C116.199 101.138 113.661 91.3012 108.213 83C110.993 83.123 113.718 83.7974 116.228 84.9829C118.737 86.1685 120.979 87.841 122.82 89.9005C124.66 91.96 126.062 94.3644 126.94 96.9703C127.819 99.5761 128.156 102.33 127.933 105.067L127.878 105.727C127.83 106.318 127.611 106.883 127.245 107.353C126.879 107.823 126.384 108.179 125.818 108.377L125.182 108.595C122.05 109.686 118.797 110.498 115.438 111Z" fill="url(#paint1_linear_399_1522)"/>
<defs>
<linearGradient id="paint0_linear_399_1522" x1="-11.3158" y1="123.477" x2="142.182" y2="104.403" gradientUnits="userSpaceOnUse">
<stop stop-color="#284FDC"/>
<stop offset="1" stop-color="#578FEC"/>
</linearGradient>
<linearGradient id="paint1_linear_399_1522" x1="-17.3392" y1="110.858" x2="117.557" y2="44.6267" gradientUnits="userSpaceOnUse">
<stop stop-color="#284FDC"/>
<stop offset="1" stop-color="#578FEC"/>
</linearGradient>
</defs>
</svg>
