<svg width="140" height="140" viewBox="0 0 140 140" fill="none" xmlns="http://www.w3.org/2000/svg">
<path d="M126 38.7854C126 34.5798 124.329 30.5465 121.356 27.5727C118.382 24.5989 114.348 22.9282 110.143 22.9282H106.179V19.0754C106.179 16.9421 104.538 15.1111 102.405 15.0046C101.869 14.9788 101.333 15.062 100.831 15.2494C100.328 15.4367 99.868 15.7241 99.4795 16.0943C99.091 16.4645 98.7817 16.9097 98.5704 17.403C98.359 17.8963 98.25 18.4273 98.25 18.9639V22.9282H42.75V19.0754C42.75 16.9421 41.1098 15.1111 38.9765 15.0046C38.4405 14.9788 37.9048 15.062 37.4019 15.2494C36.8991 15.4367 36.4394 15.7241 36.051 16.0943C35.6625 16.4645 35.3532 16.9097 35.1418 17.403C34.9305 17.8963 34.8215 18.4273 34.8214 18.9639V22.9282H30.8571C26.6516 22.9282 22.6182 24.5989 19.6444 27.5727C16.6707 30.5465 15 34.5798 15 38.7854V41.7587C15 42.0215 15.1044 42.2736 15.2903 42.4595C15.4761 42.6453 15.7282 42.7497 15.9911 42.7497H125.009C125.272 42.7497 125.524 42.6453 125.71 42.4595C125.896 42.2736 126 42.0215 126 41.7587V38.7854ZM15 110.143C15 114.348 16.6707 118.382 19.6444 121.356C22.6182 124.329 26.6516 126 30.8571 126H110.143C114.348 126 118.382 124.329 121.356 121.356C124.329 118.382 126 114.348 126 110.143V51.4216C126 51.2245 125.922 51.0354 125.782 50.896C125.643 50.7566 125.454 50.6783 125.257 50.6783H15.7433C15.5462 50.6783 15.3571 50.7566 15.2177 50.896C15.0783 51.0354 15 51.2245 15 51.4216V110.143ZM100.232 58.6069C101.408 58.6069 102.558 58.9557 103.536 59.6091C104.514 60.2625 105.276 61.1912 105.726 62.2778C106.176 63.3643 106.294 64.56 106.064 65.7135C105.835 66.867 105.269 67.9265 104.437 68.7581C103.605 69.5898 102.546 70.1561 101.392 70.3856C100.239 70.615 99.0431 70.4972 97.9565 70.0472C96.87 69.5971 95.9413 68.8349 95.2879 67.857C94.6345 66.8792 94.2857 65.7295 94.2857 64.5534C94.2857 62.9763 94.9122 61.4638 96.0274 60.3486C97.1426 59.2334 98.6551 58.6069 100.232 58.6069ZM100.232 78.4284C101.408 78.4284 102.558 78.7772 103.536 79.4306C104.514 80.084 105.276 81.0127 105.726 82.0993C106.176 83.1858 106.294 84.3815 106.064 85.535C105.835 86.6885 105.269 87.748 104.437 88.5796C103.605 89.4113 102.546 89.9776 101.392 90.2071C100.239 90.4365 99.0431 90.3187 97.9565 89.8687C96.87 89.4186 95.9413 88.6564 95.2879 87.6785C94.6345 86.7006 94.2857 85.551 94.2857 84.3749C94.2857 82.7978 94.9122 81.2853 96.0274 80.1701C97.1426 79.0549 98.6551 78.4284 100.232 78.4284ZM80.4107 58.6069C81.5868 58.6069 82.7365 58.9557 83.7144 59.6091C84.6923 60.2625 85.4544 61.1912 85.9045 62.2778C86.3546 63.3643 86.4723 64.56 86.2429 65.7135C86.0134 66.867 85.4471 67.9265 84.6155 68.7581C83.7838 69.5898 82.7243 70.1561 81.5708 70.3856C80.4173 70.615 79.2217 70.4972 78.1351 70.0472C77.0485 69.5971 76.1198 68.8349 75.4664 67.857C74.813 66.8792 74.4643 65.7295 74.4643 64.5534C74.4643 62.9763 75.0908 61.4638 76.206 60.3486C77.3211 59.2334 78.8336 58.6069 80.4107 58.6069ZM80.4107 78.4284C81.5868 78.4284 82.7365 78.7772 83.7144 79.4306C84.6923 80.084 85.4544 81.0127 85.9045 82.0993C86.3546 83.1858 86.4723 84.3815 86.2429 85.535C86.0134 86.6885 85.4471 87.748 84.6155 88.5796C83.7838 89.4113 82.7243 89.9776 81.5708 90.2071C80.4173 90.4365 79.2217 90.3187 78.1351 89.8687C77.0485 89.4186 76.1198 88.6564 75.4664 87.6785C74.813 86.7006 74.4643 85.551 74.4643 84.3749C74.4643 82.7978 75.0908 81.2853 76.206 80.1701C77.3211 79.0549 78.8336 78.4284 80.4107 78.4284ZM80.4107 98.2499C81.5868 98.2499 82.7365 98.5987 83.7144 99.2521C84.6923 99.9055 85.4544 100.834 85.9045 101.921C86.3546 103.007 86.4723 104.203 86.2429 105.356C86.0134 106.51 85.4471 107.57 84.6155 108.401C83.7838 109.233 82.7243 109.799 81.5708 110.029C80.4173 110.258 79.2217 110.14 78.1351 109.69C77.0485 109.24 76.1198 108.478 75.4664 107.5C74.813 106.522 74.4643 105.372 74.4643 104.196C74.4643 102.619 75.0908 101.107 76.206 99.9916C77.3211 98.8764 78.8336 98.2499 80.4107 98.2499ZM60.5893 78.4284C61.7654 78.4284 62.9151 78.7772 63.8929 79.4306C64.8708 80.084 65.633 81.0127 66.0831 82.0993C66.5331 83.1858 66.6509 84.3815 66.4215 85.535C66.192 86.6885 65.6257 87.748 64.794 88.5796C63.9624 89.4113 62.9029 89.9776 61.7494 90.2071C60.5959 90.4365 59.4003 90.3187 58.3137 89.8687C57.2271 89.4186 56.2984 88.6564 55.645 87.6785C54.9916 86.7006 54.6429 85.551 54.6429 84.3749C54.6429 82.7978 55.2694 81.2853 56.3845 80.1701C57.4997 79.0549 59.0122 78.4284 60.5893 78.4284ZM60.5893 98.2499C61.7654 98.2499 62.9151 98.5987 63.8929 99.2521C64.8708 99.9055 65.633 100.834 66.0831 101.921C66.5331 103.007 66.6509 104.203 66.4215 105.356C66.192 106.51 65.6257 107.57 64.794 108.401C63.9624 109.233 62.9029 109.799 61.7494 110.029C60.5959 110.258 59.4003 110.14 58.3137 109.69C57.2271 109.24 56.2984 108.478 55.645 107.5C54.9916 106.522 54.6429 105.372 54.6429 104.196C54.6429 102.619 55.2694 101.107 56.3845 99.9916C57.4997 98.8764 59.0122 98.2499 60.5893 98.2499ZM40.7679 78.4284C41.9439 78.4284 43.0936 78.7772 44.0715 79.4306C45.0494 80.084 45.8116 81.0127 46.2616 82.0993C46.7117 83.1858 46.8295 84.3815 46.6 85.535C46.3706 86.6885 45.8042 87.748 44.9726 88.5796C44.141 89.4113 43.0814 89.9776 41.9279 90.2071C40.7745 90.4365 39.5788 90.3187 38.4923 89.8687C37.4057 89.4186 36.477 88.6564 35.8236 87.6785C35.1702 86.7006 34.8214 85.551 34.8214 84.3749C34.8214 82.7978 35.4479 81.2853 36.5631 80.1701C37.6783 79.0549 39.1908 78.4284 40.7679 78.4284ZM40.7679 98.2499C41.9439 98.2499 43.0936 98.5987 44.0715 99.2521C45.0494 99.9055 45.8116 100.834 46.2616 101.921C46.7117 103.007 46.8295 104.203 46.6 105.356C46.3706 106.51 45.8042 107.57 44.9726 108.401C44.141 109.233 43.0814 109.799 41.9279 110.029C40.7745 110.258 39.5788 110.14 38.4923 109.69C37.4057 109.24 36.477 108.478 35.8236 107.5C35.1702 106.522 34.8214 105.372 34.8214 104.196C34.8214 102.619 35.4479 101.107 36.5631 99.9916C37.6783 98.8764 39.1908 98.2499 40.7679 98.2499Z" fill="url(#paint0_linear_399_1540)"/>
<defs>
<linearGradient id="paint0_linear_399_1540" x1="-13.0746" y1="125.436" x2="144.905" y2="106.714" gradientUnits="userSpaceOnUse">
<stop stop-color="#284FDC"/>
<stop offset="1" stop-color="#578FEC"/>
</linearGradient>
</defs>
</svg>
