<svg width="159" height="155" viewBox="0 0 159 155" fill="none" xmlns="http://www.w3.org/2000/svg">
<path d="M71.5 0C23.2 0 -16 39.2 -16 87.5C-16 135.8 23.2 175 71.5 175C119.8 175 159 135.8 159 87.5C159 39.2 119.8 0 71.5 0ZM79.4625 141.312C78.851 141.912 78.077 142.319 77.2364 142.483C76.3958 142.647 75.5257 142.56 74.7338 142.234C73.9419 141.908 73.2631 141.357 72.7816 140.648C72.3001 139.94 72.037 139.106 72.025 138.25V131.25H71.5C60.3 131.25 49.1 126.963 40.525 118.475C34.584 112.52 30.4839 104.979 28.715 96.755C26.946 88.531 27.5831 79.9715 30.55 72.1C32.2125 67.6375 38.075 66.5 41.4 69.9125C43.325 71.8375 43.7625 74.6375 42.8875 77.0875C38.8625 87.9375 41.1375 100.537 49.8875 109.287C56.0125 115.412 64.0625 118.3 72.1125 118.125V109.9C72.1125 105.963 76.8375 104.037 79.55 106.838L93.725 121.012C95.475 122.762 95.475 125.475 93.725 127.225L79.4625 141.312ZM101.6 105.175C100.696 104.244 100.075 103.075 99.8117 101.804C99.5482 100.533 99.6526 99.2136 100.113 98C104.138 87.15 101.863 74.55 93.1125 65.8C86.9875 59.675 78.9375 56.7 70.975 56.875V65.1C70.975 69.0375 66.25 70.9625 63.5375 68.1625L49.275 54.075C47.525 52.325 47.525 49.6125 49.275 47.8625L63.45 33.6875C64.0615 33.0879 64.8355 32.681 65.6761 32.5172C66.5167 32.3534 67.3868 32.4399 68.1787 32.766C68.9706 33.0921 69.6494 33.6434 70.1309 34.3516C70.6124 35.0598 70.8755 35.8937 70.8875 36.75V43.8375C82.2625 43.6625 93.725 47.775 102.387 56.525C108.329 62.4805 112.429 70.021 114.198 78.245C115.966 86.469 115.329 95.0285 112.363 102.9C110.7 107.45 104.925 108.588 101.6 105.175Z" fill="url(#paint0_linear_336_1627)"/>
<defs>
<linearGradient id="paint0_linear_336_1627" x1="-60.2617" y1="174.111" x2="188.805" y2="144.594" gradientUnits="userSpaceOnUse">
<stop stop-color="#284FDC"/>
<stop offset="1" stop-color="#578FEC"/>
</linearGradient>
</defs>
</svg>
