<svg width="158" height="156" viewBox="0 0 158 156" fill="none" xmlns="http://www.w3.org/2000/svg">
<path d="M119.803 14.4847C120.08 14.3311 120.386 14.2354 120.701 14.2035C121.017 14.1717 121.335 14.2043 121.638 14.2994C121.94 14.3944 122.22 14.55 122.46 14.7567C122.701 14.9633 122.897 15.2166 123.036 15.5013L128.093 25.817L90.0599 46.7398L106.645 53.6166L134.263 38.4266L143.316 56.9278C143.583 57.4756 143.626 58.1061 143.435 58.685C143.244 59.2639 142.835 59.7453 142.294 60.0266L133.372 64.6982L150.165 71.6609C153.508 69.4786 155.937 66.1498 156.996 62.301C158.055 58.4523 157.67 54.3491 155.914 50.764L135.638 9.32889C134.659 7.33185 133.283 5.55527 131.594 4.10765C129.906 2.66003 127.94 1.57175 125.817 0.909279C123.694 0.246811 121.458 0.0240529 119.245 0.254613C117.033 0.485176 114.891 1.16422 112.951 2.25027L57.5542 33.262L74.0532 40.103L119.803 14.4847ZM27.1586 15.5982C25.4403 14.8858 23.5095 14.885 21.7908 15.5961C20.0721 16.3072 18.7064 17.6718 17.994 19.3899C17.2817 21.1079 17.2811 23.0386 17.9924 24.7572C18.7037 26.4758 20.0686 27.8415 21.7868 28.554L134.084 75.1154C141.53 78.2026 147.445 84.1209 150.527 91.5681C153.609 99.0154 153.607 107.382 150.52 114.827L127.242 170.968C124.155 178.413 118.237 184.326 110.789 187.408C103.342 190.489 94.9745 190.486 87.5287 187.398L-16.1304 144.418C-23.5762 141.331 -29.4907 135.413 -32.573 127.966C-35.6552 120.518 -35.6527 112.152 -32.5659 104.707L5.03662 14.0174C7.17365 8.86327 11.2709 4.76931 16.427 2.63611C21.583 0.502914 27.3756 0.505219 32.5304 2.64252L69.8477 18.1153L54.1791 26.8016L27.1586 15.5982ZM86.156 123.567C84.6734 127.142 86.3725 131.248 89.9488 132.731L107.225 139.894C108.944 140.606 110.874 140.607 112.593 139.896C114.312 139.185 115.678 137.82 116.39 136.102C117.102 134.384 117.103 132.454 116.392 130.735C115.68 129.016 114.315 127.651 112.597 126.938L95.3206 119.775C93.6023 119.063 91.6714 119.062 89.9527 119.773C88.2341 120.484 86.8683 121.849 86.156 123.567Z" fill="url(#paint0_linear_336_1595)"/>
<defs>
<linearGradient id="paint0_linear_336_1595" x1="-84.2603" y1="115.142" x2="153.999" y2="184.649" gradientUnits="userSpaceOnUse">
<stop stop-color="#284FDC"/>
<stop offset="1" stop-color="#578FEC"/>
</linearGradient>
</defs>
</svg>
