<svg width="163" height="157" viewBox="0 0 163 157" fill="none" xmlns="http://www.w3.org/2000/svg">
<path d="M71.5625 2.49515C62.7685 -0.705598 53.0571 -0.265142 44.5648 3.71962C36.0724 7.70439 29.4946 14.907 26.2786 23.7431C23.0625 32.5792 23.4716 42.3248 27.4158 50.8361C31.3599 59.3474 38.5162 65.9271 47.3101 69.1279C56.1041 72.3286 65.8155 71.8882 74.3079 67.9034C82.8002 63.9187 89.378 56.716 92.594 47.8799C95.8101 39.0439 95.401 29.2983 91.4569 20.787C87.5127 12.2756 80.3565 5.69589 71.5625 2.49515ZM-17.4457 80.3863C-15.4666 74.9488 -11.4188 70.5164 -6.1927 68.0642C-0.966623 65.612 5.00961 65.341 10.4213 67.3107L76.7367 91.4475C80.2908 92.7378 83.4447 94.9382 85.8864 97.8309C77.596 100.8 70.0566 105.569 63.8083 111.799C57.56 118.029 52.7573 125.564 49.7443 133.865C48.2711 137.933 47.2486 142.023 46.6768 146.133C39.2968 145.967 30.8437 144.399 21.1922 140.886C-4.44634 131.555 -14.8277 117.096 -18.1962 104.098C-19.9554 97.2143 -19.9875 89.9955 -18.2897 83.0859C-18.1307 82.4681 -17.9538 81.855 -17.7591 81.2474L-17.4457 80.3863ZM161.212 81.5619C158.738 88.3588 153.679 93.8993 147.146 96.9645C140.613 100.03 133.143 100.369 126.379 97.9064C119.614 95.4443 114.109 90.383 111.075 83.8358C108.041 77.2887 107.727 69.792 110.2 62.9951C112.674 56.1981 117.734 50.6576 124.267 47.5924C130.799 44.5272 138.27 44.1884 145.034 46.6505C151.799 49.1126 157.304 54.174 160.338 60.7211C163.372 67.2683 163.686 74.7649 161.212 81.5619ZM151.768 170.998C147.315 183.233 138.207 193.206 126.449 198.723C114.69 204.24 101.244 204.85 89.0673 200.418C76.891 195.987 66.9824 186.876 61.5212 175.091C56.06 163.306 55.4936 149.812 59.9467 137.578C64.3997 125.343 73.5073 115.37 85.266 109.853C97.0246 104.336 110.471 103.726 122.647 108.158C134.824 112.589 144.732 121.7 150.193 133.485C155.655 145.27 156.221 158.764 151.768 170.998ZM135.487 152.209L119.725 146.472L120.56 129.003C120.654 127.829 120.361 126.658 119.728 125.668C119.095 124.679 118.156 123.927 117.054 123.526C115.952 123.125 114.749 123.097 113.628 123.448C112.507 123.799 111.53 124.508 110.847 125.468L100.269 139.391L84.4855 133.646C79.5475 131.849 75.0726 137.731 77.9638 142.232L87.1834 156.581L76.6008 170.515C73.2795 174.878 77.1739 180.94 82.2814 179.351L98.5677 174.284L107.787 188.634C110.678 193.134 117.558 190.994 117.818 185.517L118.668 168.041L134.954 162.975C140.062 161.386 140.415 154.003 135.477 152.206" fill="url(#paint0_linear_336_1611)"/>
<defs>
<linearGradient id="paint0_linear_336_1611" x1="-88.4085" y1="134.85" x2="176.849" y2="195.454" gradientUnits="userSpaceOnUse">
<stop stop-color="#284FDC"/>
<stop offset="1" stop-color="#578FEC"/>
</linearGradient>
</defs>
</svg>
