<svg width="175" height="175" viewBox="0 0 175 175" fill="none" xmlns="http://www.w3.org/2000/svg">
<g clip-path="url(#clip0_399_1607)">
<path d="M110.155 28.1099C83.1381 9.91185 46.0713 17.1631 27.8527 44.2104C20.7934 54.6906 17.5685 66.6734 17.8191 78.4823L12.0378 160.826C12.5961 170.33 16.5795 171.281 24.2082 168.544L55.1004 153.678C51.2326 146.89 48.995 139.289 48.5638 131.474C47.9517 120.821 50.723 110.235 56.4808 101.232C44.3966 90.9344 41.7685 73.2566 50.8839 59.7238C60.6946 45.159 80.0754 41.3693 94.623 51.1683C104.083 57.5402 108.947 67.964 108.52 78.4783C118.291 80.2732 127.307 84.9089 134.447 91.8081C140.337 68.2585 131.344 42.3823 110.155 28.1099Z" fill="url(#paint0_linear_399_1607)"/>
<path d="M128.089 96.4751C119.885 89.1749 108.908 84.9863 97.1249 85.6595C73.5602 87.0031 55.4864 107.292 56.8792 130.842C58.1836 152.884 76.1079 170.061 97.721 171.069L98.0639 176.878C97.3334 177.348 96.7577 177.913 96.3766 178.534C95.9955 179.155 95.8181 179.818 95.8568 180.476L98.3509 222.639C98.4224 223.844 99.2122 224.958 100.547 225.737C101.881 226.516 103.651 226.895 105.467 226.792C106.367 226.741 107.251 226.572 108.068 226.297C108.886 226.021 109.621 225.643 110.232 225.185C110.843 224.726 111.318 224.197 111.63 223.625C111.942 223.054 112.084 222.453 112.049 221.856L109.555 179.694C109.515 179.036 109.261 178.398 108.809 177.824C108.357 177.251 107.719 176.755 106.938 176.372L106.594 170.56C127.946 167.102 143.726 148.004 142.423 125.962C141.727 114.186 136.294 103.775 128.089 96.4751ZM121.804 103.531C125.079 106.442 127.747 109.971 129.655 113.914C131.562 117.856 132.671 122.135 132.918 126.505C133.186 130.872 132.588 135.248 131.158 139.381C129.728 143.514 127.495 147.323 124.586 150.588C121.678 153.853 118.151 156.511 114.21 158.409C110.268 160.306 105.988 161.407 101.616 161.646C97.2452 161.905 92.8647 161.299 88.7259 159.862C84.5871 158.425 80.7715 156.186 77.498 153.273C74.2246 150.361 71.5578 146.832 69.6508 142.89C67.7437 138.947 66.634 134.669 66.3853 130.3C66.1176 125.933 66.7158 121.557 68.1455 117.424C69.5752 113.292 71.8082 109.483 74.7165 106.218C77.6247 102.953 81.1509 100.295 85.0925 98.3975C89.0342 96.4997 93.3137 95.3991 97.6854 95.1591C102.056 94.8981 106.437 95.5034 110.577 96.9402C114.716 98.377 118.532 100.617 121.804 103.531Z" fill="url(#paint1_linear_399_1607)"/>
</g>
<defs>
<linearGradient id="paint0_linear_399_1607" x1="-57.6149" y1="119.031" x2="86.5474" y2="200.196" gradientUnits="userSpaceOnUse">
<stop stop-color="#284FDC"/>
<stop offset="1" stop-color="#578FEC"/>
</linearGradient>
<linearGradient id="paint1_linear_399_1607" x1="-2.60297" y1="155.52" x2="131.608" y2="227.278" gradientUnits="userSpaceOnUse">
<stop stop-color="#284FDC"/>
<stop offset="1" stop-color="#578FEC"/>
</linearGradient>
<clipPath id="clip0_399_1607">
<path d="M0 0H175V175H40C17.9086 175 0 157.091 0 135V0Z" fill="white"/>
</clipPath>
</defs>
</svg>
