<svg width="159" height="156" viewBox="0 0 159 156" fill="none" xmlns="http://www.w3.org/2000/svg">
<path d="M158.079 2.37461C158.008 2.02882 157.84 1.71054 157.594 1.45709C157.349 1.20364 157.036 1.02552 156.693 0.943609C133.813 -4.65529 80.9493 15.2967 52.3083 43.9519C47.1999 49.0236 42.5429 54.5312 38.3901 60.4124C29.5579 59.6304 20.7258 60.2833 13.1983 63.5676C-8.04028 72.9239 -14.224 97.337 -15.9466 107.839C-16.0444 108.414 -16.0075 109.003 -15.839 109.561C-15.6704 110.12 -15.3748 110.631 -14.9754 111.055C-14.576 111.48 -14.0836 111.806 -13.537 112.007C-12.9905 112.209 -12.4046 112.281 -11.8255 112.218L22.2805 108.453C22.3048 111.026 22.46 113.597 22.7453 116.155C22.917 117.931 23.7048 119.591 24.9719 120.847L38.1792 134.035C39.4346 135.301 41.0926 136.09 42.8667 136.263C45.408 136.548 47.9621 136.703 50.5192 136.729L46.777 170.823C46.7145 171.402 46.7871 171.988 46.9889 172.535C47.1907 173.081 47.5163 173.574 47.9401 173.973C48.364 174.373 48.8745 174.669 49.4318 174.838C49.9891 175.007 50.5779 175.044 51.152 174.947C61.6248 173.266 86.0588 167.077 95.3519 145.819C98.6332 138.285 99.3051 129.488 98.5472 120.69C104.437 116.534 109.954 111.871 115.036 106.756C143.767 78.1435 163.587 26.4123 158.079 2.37461ZM86.3713 72.6228C83.7478 69.9986 81.9608 66.6547 81.2363 63.0138C80.5118 59.373 80.8824 55.5989 82.3012 52.1689C83.72 48.7389 86.1233 45.8072 89.207 43.7445C92.2907 41.6817 95.9164 40.5807 99.6254 40.5807C103.334 40.5807 106.96 41.6817 110.044 43.7445C113.128 45.8072 115.531 48.7389 116.95 52.1689C118.368 55.5989 118.739 59.373 118.014 63.0138C117.29 66.6547 115.503 69.9986 112.88 72.6228C111.14 74.3665 109.074 75.7499 106.8 76.6937C104.525 77.6376 102.087 78.1234 99.6254 78.1234C97.1634 78.1234 94.7255 77.6376 92.4513 76.6937C90.177 75.7499 88.111 74.3665 86.3713 72.6228Z" fill="url(#paint0_linear_336_1600)"/>
<defs>
<linearGradient id="paint0_linear_336_1600" x1="-60.2617" y1="174.111" x2="188.805" y2="144.594" gradientUnits="userSpaceOnUse">
<stop stop-color="#284FDC"/>
<stop offset="1" stop-color="#578FEC"/>
</linearGradient>
</defs>
</svg>
