<svg width="174" height="156" viewBox="0 0 174 156" fill="none" xmlns="http://www.w3.org/2000/svg">
<path d="M20.5111 131.044L-10.2627 150.215C-11.8909 151.229 -13.4229 151.223 -14.8588 150.196C-16.2947 149.17 -16.7993 147.732 -16.3727 145.884L14.3433 12.8388C15.3489 8.48311 17.7659 5.11505 21.5943 2.73461C25.4227 0.354163 29.5187 -0.335139 33.8822 0.666702L160.94 30.0003C165.308 31.0087 168.69 33.4244 171.086 37.2474C173.482 41.0705 174.175 45.1566 173.166 49.5058L151.226 144.538C150.22 148.894 147.805 152.265 143.981 154.652C140.156 157.039 136.058 157.725 131.687 156.71L20.5111 131.044ZM78.2594 98.2891L91.2449 110.88C92.4875 112.14 93.9506 112.444 95.6344 111.793C97.3182 111.142 98.1603 109.91 98.1606 108.097L98.1667 89.9557L114.363 81.3913C115.961 80.509 116.685 79.1831 116.536 77.4136C116.387 75.6442 115.402 74.4769 113.581 73.9119L96.2318 68.4468L93.0314 50.6078C92.7353 48.8712 91.727 47.8042 90.0064 47.407C88.2858 47.0098 86.9118 47.5267 85.8844 48.9578L75.1878 63.5884L57.1989 60.8951C55.3155 60.5993 53.9183 61.2165 53.0074 62.7468C52.0965 64.2771 52.1663 65.7863 53.2168 67.2745L64.0199 82.0723L56.0727 98.3803C55.2795 100.005 55.4963 101.481 56.723 102.81C57.9497 104.138 59.3983 104.506 61.0687 103.913L78.2594 98.2891Z" fill="url(#paint0_linear_336_1606)"/>
<defs>
<linearGradient id="paint0_linear_336_1606" x1="-57.308" y1="139.925" x2="174.904" y2="164.273" gradientUnits="userSpaceOnUse">
<stop stop-color="#284FDC"/>
<stop offset="1" stop-color="#578FEC"/>
</linearGradient>
</defs>
</svg>
