<svg width="155" height="157" viewBox="0 0 155 157" fill="none" xmlns="http://www.w3.org/2000/svg">
<path d="M78.7221 14.8348C97.4813 3.62814 106.857 -1.97731 113.746 2C120.635 5.9773 120.469 16.8998 120.143 38.7491L120.059 44.4041C119.965 50.6155 119.918 53.7212 121.06 56.4467C122.202 59.1721 124.416 61.2168 128.845 65.3061L132.867 69.0248C148.422 83.4085 156.195 90.5926 154.374 98.6686C152.55 106.733 142.334 110.35 121.899 117.572L116.612 119.438C110.81 121.491 107.9 122.516 105.677 124.57C103.449 126.63 102.149 129.487 99.5518 135.195L97.1885 140.397C88.0375 160.497 83.4677 170.546 75.4553 171.555C67.4387 172.572 61.2887 163.871 48.995 146.491L45.803 141.991C42.3139 137.047 40.5651 134.583 38.0409 133.125C35.5167 131.668 32.5079 131.386 26.482 130.836L20.9957 130.326C-0.20939 128.365 -10.8156 127.382 -13.9445 119.95C-17.0796 112.495 -10.6621 103.513 2.16976 85.5377L5.48908 80.8973C9.13765 75.7873 10.9619 73.2324 11.6211 70.2763C12.299 67.3214 11.7322 64.288 10.6048 58.2441L9.58129 52.7258C5.61408 31.4243 3.63831 20.7684 9.71466 15.1493C15.7983 9.53447 25.9176 12.6707 46.148 18.9578L51.3793 20.5814C57.1278 22.3677 59.9983 23.2588 62.9371 22.8895C65.8685 22.5159 68.5345 20.9222 73.8665 17.7348L78.7221 14.8348Z" fill="url(#paint0_linear_336_1589)"/>
<defs>
<linearGradient id="paint0_linear_336_1589" x1="-79.372" y1="83.5079" x2="141.866" y2="178.52" gradientUnits="userSpaceOnUse">
<stop stop-color="#284FDC"/>
<stop offset="1" stop-color="#578FEC"/>
</linearGradient>
</defs>
</svg>
