<svg width="161" height="156" viewBox="0 0 161 156" fill="none" xmlns="http://www.w3.org/2000/svg">
<path fill-rule="evenodd" clip-rule="evenodd" d="M90.0584 4.7967C90.8284 6.29235 91.0231 8.2128 91.4036 12.0537C92.1293 19.3107 92.4921 22.9392 94.0144 24.9393C94.9628 26.1811 96.223 27.1498 97.6671 27.7467C99.1112 28.3436 100.688 28.5475 102.236 28.3377C104.714 28.0103 107.546 25.7004 113.192 21.0807C116.175 18.6292 117.67 17.4079 119.272 16.8946C121.312 16.2427 123.52 16.3528 125.485 17.2044C127.034 17.877 128.405 19.2399 131.122 21.9657L139.034 29.8776C141.76 32.6034 143.123 33.9663 143.796 35.5151C144.647 37.4802 144.757 39.6876 144.105 41.7278C143.592 43.3296 142.371 44.8253 139.928 47.8077C135.3 53.4629 132.99 56.286 132.653 58.7729C132.446 60.3207 132.652 61.8958 133.251 63.3382C133.849 64.7806 134.819 66.039 136.061 66.9857C138.052 68.5079 141.689 68.8707 148.955 69.5964C152.787 69.977 154.708 70.1717 156.212 70.9416C158.11 71.9257 159.588 73.5636 160.372 75.5525C161 77.1189 161 79.0482 161 82.9068V94.0932C161 97.9518 161 99.8811 160.381 101.439C159.594 103.434 158.109 105.076 156.203 106.058C154.708 106.828 152.787 107.023 148.946 107.404C141.689 108.129 138.061 108.492 136.061 110.014C134.819 110.963 133.85 112.223 133.253 113.667C132.656 115.111 132.453 116.688 132.662 118.236C132.999 120.714 135.308 123.546 139.928 129.192C142.371 132.175 143.592 133.662 144.105 135.272C144.757 137.312 144.647 139.52 143.796 141.485C143.123 143.034 141.76 144.397 139.034 147.122L131.122 155.025C128.397 157.76 127.034 159.123 125.485 159.787C123.52 160.638 121.312 160.748 119.272 160.097C117.67 159.583 116.175 158.362 113.192 155.919C107.537 151.3 104.714 148.99 102.236 148.662C100.688 148.453 99.1112 148.656 97.6671 149.253C96.223 149.85 94.9628 150.819 94.0144 152.061C92.4921 154.052 92.1293 157.68 91.4036 164.946C91.0231 168.787 90.8284 170.708 90.0584 172.203C89.0777 174.108 87.4394 175.592 85.4476 176.381C83.8811 177 81.9518 177 78.0932 177H66.9068C63.0482 177 61.1189 177 59.5613 176.381C57.5661 175.594 55.9245 174.109 54.9416 172.203C54.1717 170.708 53.977 168.787 53.5964 164.946C52.8707 157.689 52.5079 154.061 50.9857 152.061C50.038 150.82 48.7792 149.853 47.3368 149.256C45.8945 148.659 44.3199 148.454 42.7729 148.662C40.286 148.99 37.4629 151.3 31.8077 155.919C28.8253 158.371 27.3296 159.592 25.7278 160.105C23.6876 160.757 21.4802 160.647 19.5151 159.796C17.9663 159.123 16.5946 157.76 13.8776 155.034L5.9657 147.122C3.2399 144.397 1.877 143.034 1.2044 141.485C0.352787 139.52 0.242733 137.312 0.89465 135.272C1.40795 133.67 2.62925 132.175 5.07185 129.192C9.7004 123.537 12.0103 120.714 12.3377 118.227C12.5459 116.68 12.3411 115.106 11.7443 113.663C11.1474 112.221 10.1797 110.962 8.9393 110.014C6.94805 108.492 3.3107 108.129 -3.95515 107.404C-7.7872 107.023 -9.70765 106.828 -11.2122 106.058C-13.1101 105.074 -14.5876 103.436 -15.3716 101.448C-16 99.8811 -16 97.9518 -16 94.0932V82.9068C-16 79.0482 -16 77.1189 -15.3805 75.5613C-14.5938 73.5661 -13.1095 71.9245 -11.2033 70.9416C-9.70765 70.1717 -7.7872 69.977 -3.9463 69.5964C3.3107 68.8707 6.94805 68.5079 8.9393 66.9857C10.1813 66.039 11.1508 64.7806 11.7492 63.3382C12.3476 61.8958 12.5537 60.3207 12.3466 58.7729C12.0103 56.286 9.69155 53.4629 5.07185 47.7989C2.62925 44.8164 1.40795 43.3296 0.89465 41.7189C0.242733 39.6787 0.352787 37.4714 1.2044 35.5062C1.877 33.9663 3.2399 32.5946 5.9657 29.8688L13.8776 21.9657C16.6034 19.2399 17.9663 17.8682 19.5151 17.2044C21.4802 16.3528 23.6876 16.2427 25.7278 16.8946C27.3296 17.4079 28.8253 18.6293 31.8077 21.0719C37.4629 25.6916 40.286 28.0014 42.764 28.3377C44.3146 28.5481 45.8933 28.3436 47.3392 27.7451C48.785 27.1465 50.0463 26.1753 50.9945 24.9305C52.499 22.9392 52.8707 19.3107 53.5964 12.0449C53.977 8.2128 54.1717 6.29235 54.9416 4.78785C55.924 2.88662 57.5621 1.40576 59.5525 0.619499C61.1189 -5.96046e-07 63.0482 0 66.9068 0H78.0932C81.9518 0 83.8811 -5.96046e-07 85.4387 0.619499C87.4339 1.40615 89.0755 2.89054 90.0584 4.7967ZM72.5 123.9C81.8887 123.9 90.8928 120.17 97.5316 113.532C104.17 106.893 107.9 97.8887 107.9 88.5C107.9 79.1113 104.17 70.1072 97.5316 63.4684C90.8928 56.8296 81.8887 53.1 72.5 53.1C63.1113 53.1 54.1072 56.8296 47.4684 63.4684C40.8296 70.1072 37.1 79.1113 37.1 88.5C37.1 97.8887 40.8296 106.893 47.4684 113.532C54.1072 120.17 63.1113 123.9 72.5 123.9Z" fill="url(#paint0_linear_336_1616)"/>
<defs>
<linearGradient id="paint0_linear_336_1616" x1="-60.7675" y1="176.101" x2="191.146" y2="146.247" gradientUnits="userSpaceOnUse">
<stop stop-color="#284FDC"/>
<stop offset="1" stop-color="#578FEC"/>
</linearGradient>
</defs>
</svg>
