<svg width="442" height="583" viewBox="0 0 442 583" fill="none" xmlns="http://www.w3.org/2000/svg">
<path d="M330.872 0.5V92C330.872 109 326.167 142.5 291.327 142.5C256.488 142.5 161.347 142.5 118.132 142.5C103.115 142.5 74.0824 147.6 74.0824 180C74.0824 212.4 74.0824 236.5 74.0824 275.5C75.0835 291 77.286 320.2 122.137 321C166.987 321.8 323.697 321.333 396.446 321C411.463 319.833 441.396 325.3 440.996 356.5C440.596 387.7 440.829 433.5 440.996 459.5C440.829 476.167 430.284 509.5 389.438 509.5C348.592 509.5 145.163 509.5 41.0451 509.5C28.531 509.5 1 515.9 1 559.5L1 608" stroke="#fff"/>
</svg>
